<svg width="156" height="145" viewBox="0 0 161 131" fill="none" xmlns="http://www.w3.org/2000/svg">
<path d="M99.2566 11.4786L90.3124 4.30591L91.6951 7.80582L101.936 18.4784L110.88 25.651L109.497 22.1511L99.2566 11.4786Z" stroke="url(#paint0_linear_2526_806)" stroke-miterlimit="10"/>
<path d="M99.2999 11.3489L89.8372 3.57129L91.1334 7.20082L101.892 18.6511L111.355 26.4287L110.059 22.756L99.2999 11.3489Z" stroke="url(#paint1_linear_2526_806)" stroke-miterlimit="10"/>
<path d="M99.343 11.2192L89.3186 2.79346L90.5284 6.55261L101.849 18.7807L111.874 27.2064L110.664 23.4472L99.343 11.2192Z" stroke="url(#paint2_linear_2526_806)" stroke-miterlimit="10"/>
<path d="M99.4295 11.0897L88.757 1.92944L89.9236 5.86144L101.763 18.9105L112.435 28.0275L111.269 24.1387L99.4295 11.0897Z" stroke="url(#paint3_linear_2526_806)" stroke-miterlimit="10"/>
<path d="M99.559 10.96L88.2383 1.06519L89.2753 5.1268L101.633 19.04L112.954 28.9348L111.917 24.8732L99.559 10.96Z" stroke="url(#paint4_linear_2526_806)" stroke-miterlimit="10"/>
<path d="M99.6888 10.7871L87.6768 0.157715L88.6273 4.30575L101.504 19.1695L113.516 29.8421L112.565 25.6509L99.6888 10.7871Z" stroke="url(#paint5_linear_2526_806)" stroke-miterlimit="10"/>
<path d="M99.8182 10.6576L87.1581 -0.835938L87.9358 3.48493L101.374 19.2993L114.034 30.836L113.256 26.5152L99.8182 10.6576Z" stroke="url(#paint6_linear_2526_806)" stroke-miterlimit="10"/>
<path d="M99.9913 10.5711L86.5966 -1.87305L87.2015 2.57745L101.201 19.4289L114.596 31.8298L113.991 27.3793L99.9913 10.5711Z" stroke="url(#paint7_linear_2526_806)" stroke-miterlimit="10"/>
<path d="M100.164 10.4413L86.0348 -2.91016L86.4669 1.62676L101.028 19.5584L115.157 32.9099L114.725 28.3297L100.164 10.4413Z" stroke="url(#paint8_linear_2526_806)" stroke-miterlimit="10"/>
<path d="M100.38 10.3118L85.473 -4.03345L85.6891 0.633095L100.812 19.6449L115.719 34.0334L115.503 29.3669L100.38 10.3118Z" stroke="url(#paint9_linear_2526_806)" stroke-miterlimit="10"/>
<path d="M100.639 10.2256L84.9545 -5.19995L84.9113 -0.446992L100.553 19.7747L116.238 35.2002L116.281 30.4472L100.639 10.2256Z" stroke="url(#paint10_linear_2526_806)" stroke-miterlimit="10"/>
<path d="M100.899 10.139L84.3929 -6.40991L84.0905 -1.57054L100.294 19.861L116.799 36.4099L117.102 31.5706L100.899 10.139Z" stroke="url(#paint11_linear_2526_806)" stroke-miterlimit="10"/>
<path d="M101.244 10.0525L83.8743 -7.7063L83.2262 -2.7805L99.948 19.9473L117.318 37.7061L117.966 32.7371L101.244 10.0525Z" stroke="url(#paint12_linear_2526_806)" stroke-miterlimit="10"/>
<path d="M101.59 10.0094L83.3559 -9.04565L82.3621 -4.03345L99.6023 19.9906L117.836 39.0024L118.83 34.0334L101.59 10.0094Z" stroke="url(#paint13_linear_2526_806)" stroke-miterlimit="10"/>
<path d="M101.979 9.9663L82.8805 -10.385L81.4546 -5.3728L99.2134 20.0339L118.355 40.3852L119.738 35.373L101.979 9.9663Z" stroke="url(#paint14_linear_2526_806)" stroke-miterlimit="10"/>
<path d="M102.454 9.92294L82.4052 -11.8542L80.5472 -6.79883L98.7381 20.0338L118.787 41.811L120.645 36.7556L102.454 9.92294Z" stroke="url(#paint15_linear_2526_806)" stroke-miterlimit="10"/>
<path d="M102.929 9.92305L81.973 -13.3232L79.6398 -8.26782L98.2627 20.0339L119.219 43.3234L121.552 38.268L102.929 9.92305Z" stroke="url(#paint16_linear_2526_806)" stroke-miterlimit="10"/>
<path d="M103.491 9.96611L81.5411 -14.8357L78.6893 -9.82348L97.7012 20.0337L119.651 44.8355L122.503 39.8233L103.491 9.96611Z" stroke="url(#paint17_linear_2526_806)" stroke-miterlimit="10"/>
<path d="M104.096 10.0094L81.1953 -16.4343L77.7386 -11.4653L97.0961 19.9474L119.997 46.4343L123.497 41.4653L104.096 10.0094Z" stroke="url(#paint18_linear_2526_806)" stroke-miterlimit="10"/>
<path d="M104.744 10.1391L80.8929 -18.0762L76.7449 -13.1936L96.448 19.8611L120.299 48.0332L124.447 43.1938L104.744 10.1391Z" stroke="url(#paint19_linear_2526_806)" stroke-miterlimit="10"/>
<path d="M105.522 10.2686L80.6769 -19.7615L75.7943 -15.0085L95.6703 19.7313L120.515 49.7181L125.398 45.0084L105.522 10.2686Z" stroke="url(#paint20_linear_2526_806)" stroke-miterlimit="10"/>
<path d="M106.3 10.4415L80.504 -21.4897L74.8004 -16.9096L94.8925 19.5585L120.688 51.4466L126.392 46.8664L106.3 10.4415Z" stroke="url(#paint21_linear_2526_806)" stroke-miterlimit="10"/>
<path d="M107.207 10.6574L80.4177 -23.2183L73.8068 -18.8974L93.9852 19.3423L120.775 53.218L127.386 48.8539L107.207 10.6574Z" stroke="url(#paint22_linear_2526_806)" stroke-miterlimit="10"/>
<path d="M108.201 10.9167L80.4609 -25.033L72.8562 -20.9713L92.9915 19.0831L120.731 55.0328L128.336 50.9279L108.201 10.9167Z" stroke="url(#paint23_linear_2526_806)" stroke-miterlimit="10"/>
<path d="M109.238 11.2192L80.5905 -26.8909L71.9055 -23.1317L91.9544 18.7375L120.602 56.8476L129.287 53.0885L109.238 11.2192Z" stroke="url(#paint24_linear_2526_806)" stroke-miterlimit="10"/>
<path d="M110.405 11.6082L80.8065 -28.7488L70.9982 -25.3785L90.7878 18.3487L120.386 58.7489L130.194 55.3786L110.405 11.6082Z" stroke="url(#paint25_linear_2526_806)" stroke-miterlimit="10"/>
<path d="M111.701 12.0835L81.1953 -30.6499L70.0907 -27.7117L89.4914 17.9167L119.997 60.6069L131.101 57.7119L111.701 12.0835Z" stroke="url(#paint26_linear_2526_806)" stroke-miterlimit="10"/>
<path d="M113.083 12.645L81.7139 -32.5513L69.2266 -30.1748L88.1088 17.3548L119.478 62.5079L131.966 60.1746L113.083 12.645Z" stroke="url(#paint27_linear_2526_806)" stroke-miterlimit="10"/>
<path d="M114.596 13.25L82.4051 -34.4524L68.4055 -32.6808L86.5964 16.7499L118.787 64.4524L132.786 62.6808L114.596 13.25Z" stroke="url(#paint28_linear_2526_806)" stroke-miterlimit="10"/>
<path d="M116.238 13.9414L83.2694 -36.3535L67.671 -35.3165L84.9545 16.0154L117.923 66.3536L133.521 65.3166L116.238 13.9414Z" stroke="url(#paint29_linear_2526_806)" stroke-miterlimit="10"/>
<path d="M118.009 14.7625L84.3928 -38.2546L66.9797 -38.0386L83.183 15.1945L116.799 68.2548L134.212 68.0388L118.009 14.7625Z" stroke="url(#paint30_linear_2526_806)" stroke-miterlimit="10"/>
<path d="M119.91 15.713L85.689 -40.1558L66.3748 -40.8472L81.2818 14.2872L115.503 70.1128L134.817 70.8474L119.91 15.713Z" stroke="url(#paint31_linear_2526_806)" stroke-miterlimit="10"/>
<path d="M121.984 16.75L87.2878 -41.9706L65.8995 -43.7422L79.2078 13.2501L113.904 71.9707L135.293 73.6991L121.984 16.75Z" stroke="url(#paint32_linear_2526_806)" stroke-miterlimit="10"/>
<path d="M124.231 17.9166L89.1026 -43.7854L65.5106 -46.6804L76.9609 12.0834L112.09 73.7423L135.682 76.6805L124.231 17.9166Z" stroke="url(#paint33_linear_2526_806)" stroke-miterlimit="10"/>
<path d="M126.651 19.256L91.263 -45.5138L65.2513 -49.7483L74.5412 10.7439L109.929 75.4706L135.941 79.7482L126.651 19.256Z" stroke="url(#paint34_linear_2526_806)" stroke-miterlimit="10"/>
<path d="M129.243 20.7251L93.7691 -47.1558L65.1217 -52.8594L71.9487 9.27475L107.423 77.1557L136.07 82.8592L129.243 20.7251Z" stroke="url(#paint35_linear_2526_806)" stroke-miterlimit="10"/>
<path d="M132.052 22.3672L96.6209 -48.7112L65.1649 -56.0566L69.1401 7.633L104.571 78.6681L136.027 86.0568L132.052 22.3672Z" stroke="url(#paint36_linear_2526_806)" stroke-miterlimit="10"/>
<path d="M135.077 24.1819L99.9047 -50.1371L65.4242 -59.2974L66.1155 5.81816L101.287 80.0939L135.768 89.2974L135.077 24.1819Z" stroke="url(#paint37_linear_2526_806)" stroke-miterlimit="10"/>
<path d="M138.317 26.1694L103.621 -51.3902L65.8995 -62.5813L62.8749 3.78729L97.5715 81.3901L135.293 92.5812L138.317 26.1694Z" stroke="url(#paint38_linear_2526_806)" stroke-miterlimit="10"/>
<path d="M141.817 28.4164L107.812 -52.5135L66.5909 -65.9082L59.375 1.5838L93.3803 82.4705L134.601 95.9084L141.817 28.4164Z" stroke="url(#paint39_linear_2526_806)" stroke-miterlimit="10"/>
<path d="M145.533 30.8792L112.522 -53.3778L67.5845 -69.2786L55.6589 -0.879176L88.6704 83.3778L133.607 99.2354L145.533 30.8792Z" stroke="url(#paint40_linear_2526_806)" stroke-miterlimit="10"/>
<path d="M149.552 33.5581L117.836 -54.0692L68.8809 -72.6489L51.6406 -3.60141L83.3558 84.0259L132.311 102.606L149.552 33.5581Z" stroke="url(#paint41_linear_2526_806)" stroke-miterlimit="10"/>
<path d="M153.829 36.5394L123.713 -54.4581L70.4797 -75.9761L47.363 -6.53967L77.4795 84.4147L130.713 105.976L153.829 36.5394Z" stroke="url(#paint42_linear_2526_806)" stroke-miterlimit="10"/>
<path d="M158.409 39.7803L130.28 -54.5444L72.4672 -79.3462L42.7828 -9.82337L70.9117 84.5013L128.725 109.303L158.409 39.7803Z" stroke="url(#paint43_linear_2526_806)" stroke-miterlimit="10"/>
<path d="M163.292 43.3665L137.583 -54.2852L74.8868 -82.6301L37.9001 -13.3666L63.6093 84.2419L126.305 112.63L163.292 43.3665Z" stroke="url(#paint44_linear_2526_806)" stroke-miterlimit="10"/>
<path d="M168.52 47.2552L145.663 -53.5939L77.7387 -85.8708L32.672 -17.2554L55.5294 83.5937L123.454 115.827L168.52 47.2552Z" stroke="url(#paint45_linear_2526_806)" stroke-miterlimit="10"/>
<path d="M174.094 51.4898L154.607 -52.5135L81.1088 -88.9817L27.0979 -21.4897L46.585 82.5137L120.083 118.982L174.094 51.4898Z" stroke="url(#paint46_linear_2526_806)" stroke-miterlimit="10"/>
<path d="M180.014 56.1131L164.459 -50.9149L84.9977 -92.0063L21.1785 -26.1131L36.7336 80.8717L116.194 122.006L180.014 56.1131Z" stroke="url(#paint47_linear_2526_806)" stroke-miterlimit="10"/>
<path d="M186.365 61.1253L175.261 -48.7545L89.5348 -94.8582L14.8269 -31.1253L25.9315 78.7544L111.658 124.858L186.365 61.1253Z" stroke="url(#paint48_linear_2526_806)" stroke-miterlimit="10"/>
<path d="M193.063 66.5696L187.143 -45.9891L94.6764 -97.5371L8.12939 -36.5696L14.049 75.9459L106.516 127.537L193.063 66.5696Z" stroke="url(#paint49_linear_2526_806)" stroke-miterlimit="10"/>
<path d="M200.192 72.4892V-42.4892L100.596 -100L1 -42.4892V72.4892L100.596 130L200.192 72.4892Z" stroke="url(#paint50_linear_2526_806)" stroke-miterlimit="10"/>
<defs>
<linearGradient id="paint0_linear_2526_806" x1="90.3124" y1="4.30591" x2="113.158" y2="7.11372" gradientUnits="userSpaceOnUse">
<stop stop-color="#2CEBC7"/>
<stop offset="0.348958" stop-color="#4ABDCC" stop-opacity="0.2"/>
<stop offset="0.65625" stop-color="#8267D5" stop-opacity="0.1"/>
</linearGradient>
<linearGradient id="paint1_linear_2526_806" x1="89.8372" y1="3.57129" x2="113.755" y2="6.44324" gradientUnits="userSpaceOnUse">
<stop stop-color="#2CEBC7"/>
<stop offset="0.348958" stop-color="#4ABDCC" stop-opacity="0.2"/>
<stop offset="0.65625" stop-color="#8267D5" stop-opacity="0.1"/>
</linearGradient>
<linearGradient id="paint2_linear_2526_806" x1="89.3186" y1="2.79346" x2="114.402" y2="5.74939" gradientUnits="userSpaceOnUse">
<stop stop-color="#2CEBC7"/>
<stop offset="0.348958" stop-color="#4ABDCC" stop-opacity="0.2"/>
<stop offset="0.65625" stop-color="#8267D5" stop-opacity="0.1"/>
</linearGradient>
<linearGradient id="paint3_linear_2526_806" x1="88.757" y1="1.92944" x2="115.103" y2="4.97831" gradientUnits="userSpaceOnUse">
<stop stop-color="#2CEBC7"/>
<stop offset="0.348958" stop-color="#4ABDCC" stop-opacity="0.2"/>
<stop offset="0.65625" stop-color="#8267D5" stop-opacity="0.1"/>
</linearGradient>
<linearGradient id="paint4_linear_2526_806" x1="88.2383" y1="1.06519" x2="115.754" y2="4.17764" gradientUnits="userSpaceOnUse">
<stop stop-color="#2CEBC7"/>
<stop offset="0.348958" stop-color="#4ABDCC" stop-opacity="0.2"/>
<stop offset="0.65625" stop-color="#8267D5" stop-opacity="0.1"/>
</linearGradient>
<linearGradient id="paint5_linear_2526_806" x1="87.6768" y1="0.157715" x2="116.457" y2="3.35305" gradientUnits="userSpaceOnUse">
<stop stop-color="#2CEBC7"/>
<stop offset="0.348958" stop-color="#4ABDCC" stop-opacity="0.2"/>
<stop offset="0.65625" stop-color="#8267D5" stop-opacity="0.1"/>
</linearGradient>
<linearGradient id="paint6_linear_2526_806" x1="87.1581" y1="-0.835938" x2="117.111" y2="2.40604" gradientUnits="userSpaceOnUse">
<stop stop-color="#2CEBC7"/>
<stop offset="0.348958" stop-color="#4ABDCC" stop-opacity="0.2"/>
<stop offset="0.65625" stop-color="#8267D5" stop-opacity="0.1"/>
</linearGradient>
<linearGradient id="paint7_linear_2526_806" x1="86.5966" y1="-1.87305" x2="117.817" y2="1.43519" gradientUnits="userSpaceOnUse">
<stop stop-color="#2CEBC7"/>
<stop offset="0.348958" stop-color="#4ABDCC" stop-opacity="0.2"/>
<stop offset="0.65625" stop-color="#8267D5" stop-opacity="0.1"/>
</linearGradient>
<linearGradient id="paint8_linear_2526_806" x1="86.0348" y1="-2.91016" x2="118.523" y2="0.458923" gradientUnits="userSpaceOnUse">
<stop stop-color="#2CEBC7"/>
<stop offset="0.348958" stop-color="#4ABDCC" stop-opacity="0.2"/>
<stop offset="0.65625" stop-color="#8267D5" stop-opacity="0.1"/>
</linearGradient>
<linearGradient id="paint9_linear_2526_806" x1="85.473" y1="-4.03345" x2="119.23" y2="-0.612284" gradientUnits="userSpaceOnUse">
<stop stop-color="#2CEBC7"/>
<stop offset="0.348958" stop-color="#4ABDCC" stop-opacity="0.2"/>
<stop offset="0.65625" stop-color="#8267D5" stop-opacity="0.1"/>
</linearGradient>
<linearGradient id="paint10_linear_2526_806" x1="84.9113" y1="-5.19995" x2="119.938" y2="-1.73088" gradientUnits="userSpaceOnUse">
<stop stop-color="#2CEBC7"/>
<stop offset="0.348958" stop-color="#4ABDCC" stop-opacity="0.2"/>
<stop offset="0.65625" stop-color="#8267D5" stop-opacity="0.1"/>
</linearGradient>
<linearGradient id="paint11_linear_2526_806" x1="84.0905" y1="-6.40991" x2="120.956" y2="-2.78477" gradientUnits="userSpaceOnUse">
<stop stop-color="#2CEBC7"/>
<stop offset="0.348958" stop-color="#4ABDCC" stop-opacity="0.2"/>
<stop offset="0.65625" stop-color="#8267D5" stop-opacity="0.1"/>
</linearGradient>
<linearGradient id="paint12_linear_2526_806" x1="83.2262" y1="-7.7063" x2="122.028" y2="-3.92025" gradientUnits="userSpaceOnUse">
<stop stop-color="#2CEBC7"/>
<stop offset="0.348958" stop-color="#4ABDCC" stop-opacity="0.2"/>
<stop offset="0.65625" stop-color="#8267D5" stop-opacity="0.1"/>
</linearGradient>
<linearGradient id="paint13_linear_2526_806" x1="82.3621" y1="-9.04565" x2="123.1" y2="-5.1018" gradientUnits="userSpaceOnUse">
<stop stop-color="#2CEBC7"/>
<stop offset="0.348958" stop-color="#4ABDCC" stop-opacity="0.2"/>
<stop offset="0.65625" stop-color="#8267D5" stop-opacity="0.1"/>
</linearGradient>
<linearGradient id="paint14_linear_2526_806" x1="81.4546" y1="-10.385" x2="124.225" y2="-6.27141" gradientUnits="userSpaceOnUse">
<stop stop-color="#2CEBC7"/>
<stop offset="0.348958" stop-color="#4ABDCC" stop-opacity="0.2"/>
<stop offset="0.65625" stop-color="#8267D5" stop-opacity="0.1"/>
</linearGradient>
<linearGradient id="paint15_linear_2526_806" x1="80.5472" y1="-11.8542" x2="125.352" y2="-7.58414" gradientUnits="userSpaceOnUse">
<stop stop-color="#2CEBC7"/>
<stop offset="0.348958" stop-color="#4ABDCC" stop-opacity="0.2"/>
<stop offset="0.65625" stop-color="#8267D5" stop-opacity="0.1"/>
</linearGradient>
<linearGradient id="paint16_linear_2526_806" x1="79.6398" y1="-13.3232" x2="126.481" y2="-8.90264" gradientUnits="userSpaceOnUse">
<stop stop-color="#2CEBC7"/>
<stop offset="0.348958" stop-color="#4ABDCC" stop-opacity="0.2"/>
<stop offset="0.65625" stop-color="#8267D5" stop-opacity="0.1"/>
</linearGradient>
<linearGradient id="paint17_linear_2526_806" x1="78.6893" y1="-14.8357" x2="127.662" y2="-10.2492" gradientUnits="userSpaceOnUse">
<stop stop-color="#2CEBC7"/>
<stop offset="0.348958" stop-color="#4ABDCC" stop-opacity="0.2"/>
<stop offset="0.65625" stop-color="#8267D5" stop-opacity="0.1"/>
</linearGradient>
<linearGradient id="paint18_linear_2526_806" x1="77.7386" y1="-16.4343" x2="128.892" y2="-11.6854" gradientUnits="userSpaceOnUse">
<stop stop-color="#2CEBC7"/>
<stop offset="0.348958" stop-color="#4ABDCC" stop-opacity="0.2"/>
<stop offset="0.65625" stop-color="#8267D5" stop-opacity="0.1"/>
</linearGradient>
<linearGradient id="paint19_linear_2526_806" x1="76.7449" y1="-18.0762" x2="130.08" y2="-13.1674" gradientUnits="userSpaceOnUse">
<stop stop-color="#2CEBC7"/>
<stop offset="0.348958" stop-color="#4ABDCC" stop-opacity="0.2"/>
<stop offset="0.65625" stop-color="#8267D5" stop-opacity="0.1"/>
</linearGradient>
<linearGradient id="paint20_linear_2526_806" x1="75.7943" y1="-19.7615" x2="131.265" y2="-14.7102" gradientUnits="userSpaceOnUse">
<stop stop-color="#2CEBC7"/>
<stop offset="0.348958" stop-color="#4ABDCC" stop-opacity="0.2"/>
<stop offset="0.65625" stop-color="#8267D5" stop-opacity="0.1"/>
</linearGradient>
<linearGradient id="paint21_linear_2526_806" x1="74.8004" y1="-21.4897" x2="132.502" y2="-16.2837" gradientUnits="userSpaceOnUse">
<stop stop-color="#2CEBC7"/>
<stop offset="0.348958" stop-color="#4ABDCC" stop-opacity="0.2"/>
<stop offset="0.65625" stop-color="#8267D5" stop-opacity="0.1"/>
</linearGradient>
<linearGradient id="paint22_linear_2526_806" x1="73.8068" y1="-23.2183" x2="133.74" y2="-17.8597" gradientUnits="userSpaceOnUse">
<stop stop-color="#2CEBC7"/>
<stop offset="0.348958" stop-color="#4ABDCC" stop-opacity="0.2"/>
<stop offset="0.65625" stop-color="#8267D5" stop-opacity="0.1"/>
</linearGradient>
<linearGradient id="paint23_linear_2526_806" x1="72.8562" y1="-25.033" x2="134.928" y2="-19.5468" gradientUnits="userSpaceOnUse">
<stop stop-color="#2CEBC7"/>
<stop offset="0.348958" stop-color="#4ABDCC" stop-opacity="0.2"/>
<stop offset="0.65625" stop-color="#8267D5" stop-opacity="0.1"/>
</linearGradient>
<linearGradient id="paint24_linear_2526_806" x1="71.9055" y1="-26.8909" x2="136.115" y2="-21.2787" gradientUnits="userSpaceOnUse">
<stop stop-color="#2CEBC7"/>
<stop offset="0.348958" stop-color="#4ABDCC" stop-opacity="0.2"/>
<stop offset="0.65625" stop-color="#8267D5" stop-opacity="0.1"/>
</linearGradient>
<linearGradient id="paint25_linear_2526_806" x1="70.9982" y1="-28.7488" x2="137.251" y2="-23.0316" gradientUnits="userSpaceOnUse">
<stop stop-color="#2CEBC7"/>
<stop offset="0.348958" stop-color="#4ABDCC" stop-opacity="0.2"/>
<stop offset="0.65625" stop-color="#8267D5" stop-opacity="0.1"/>
</linearGradient>
<linearGradient id="paint26_linear_2526_806" x1="70.0907" y1="-30.6499" x2="138.387" y2="-24.8259" gradientUnits="userSpaceOnUse">
<stop stop-color="#2CEBC7"/>
<stop offset="0.348958" stop-color="#4ABDCC" stop-opacity="0.2"/>
<stop offset="0.65625" stop-color="#8267D5" stop-opacity="0.1"/>
</linearGradient>
<linearGradient id="paint27_linear_2526_806" x1="69.2266" y1="-32.5513" x2="139.47" y2="-26.6379" gradientUnits="userSpaceOnUse">
<stop stop-color="#2CEBC7"/>
<stop offset="0.348958" stop-color="#4ABDCC" stop-opacity="0.2"/>
<stop offset="0.65625" stop-color="#8267D5" stop-opacity="0.1"/>
</linearGradient>
<linearGradient id="paint28_linear_2526_806" x1="68.4055" y1="-34.4524" x2="140.501" y2="-28.4664" gradientUnits="userSpaceOnUse">
<stop stop-color="#2CEBC7"/>
<stop offset="0.348958" stop-color="#4ABDCC" stop-opacity="0.2"/>
<stop offset="0.65625" stop-color="#8267D5" stop-opacity="0.1"/>
</linearGradient>
<linearGradient id="paint29_linear_2526_806" x1="67.671" y1="-36.3535" x2="141.427" y2="-30.3218" gradientUnits="userSpaceOnUse">
<stop stop-color="#2CEBC7"/>
<stop offset="0.348958" stop-color="#4ABDCC" stop-opacity="0.2"/>
<stop offset="0.65625" stop-color="#8267D5" stop-opacity="0.1"/>
</linearGradient>
<linearGradient id="paint30_linear_2526_806" x1="66.9797" y1="-38.2546" x2="142.3" y2="-32.1902" gradientUnits="userSpaceOnUse">
<stop stop-color="#2CEBC7"/>
<stop offset="0.348958" stop-color="#4ABDCC" stop-opacity="0.2"/>
<stop offset="0.65625" stop-color="#8267D5" stop-opacity="0.1"/>
</linearGradient>
<linearGradient id="paint31_linear_2526_806" x1="66.3748" y1="-40.8472" x2="143.079" y2="-34.8521" gradientUnits="userSpaceOnUse">
<stop stop-color="#2CEBC7"/>
<stop offset="0.348958" stop-color="#4ABDCC" stop-opacity="0.2"/>
<stop offset="0.65625" stop-color="#8267D5" stop-opacity="0.1"/>
</linearGradient>
<linearGradient id="paint32_linear_2526_806" x1="65.8995" y1="-43.7422" x2="143.702" y2="-37.8785" gradientUnits="userSpaceOnUse">
<stop stop-color="#2CEBC7"/>
<stop offset="0.348958" stop-color="#4ABDCC" stop-opacity="0.2"/>
<stop offset="0.65625" stop-color="#8267D5" stop-opacity="0.1"/>
</linearGradient>
<linearGradient id="paint33_linear_2526_806" x1="65.5106" y1="-46.6804" x2="144.218" y2="-40.9699" gradientUnits="userSpaceOnUse">
<stop stop-color="#2CEBC7"/>
<stop offset="0.348958" stop-color="#4ABDCC" stop-opacity="0.2"/>
<stop offset="0.65625" stop-color="#8267D5" stop-opacity="0.1"/>
</linearGradient>
<linearGradient id="paint34_linear_2526_806" x1="65.2513" y1="-49.7483" x2="144.573" y2="-44.2253" gradientUnits="userSpaceOnUse">
<stop stop-color="#2CEBC7"/>
<stop offset="0.348958" stop-color="#4ABDCC" stop-opacity="0.2"/>
<stop offset="0.65625" stop-color="#8267D5" stop-opacity="0.1"/>
</linearGradient>
<linearGradient id="paint35_linear_2526_806" x1="65.1217" y1="-52.8594" x2="144.766" y2="-47.5488" gradientUnits="userSpaceOnUse">
<stop stop-color="#2CEBC7"/>
<stop offset="0.348958" stop-color="#4ABDCC" stop-opacity="0.2"/>
<stop offset="0.65625" stop-color="#8267D5" stop-opacity="0.1"/>
</linearGradient>
<linearGradient id="paint36_linear_2526_806" x1="65.1649" y1="-56.0566" x2="144.744" y2="-50.9953" gradientUnits="userSpaceOnUse">
<stop stop-color="#2CEBC7"/>
<stop offset="0.348958" stop-color="#4ABDCC" stop-opacity="0.2"/>
<stop offset="0.65625" stop-color="#8267D5" stop-opacity="0.1"/>
</linearGradient>
<linearGradient id="paint37_linear_2526_806" x1="65.4242" y1="-59.2974" x2="144.452" y2="-54.5255" gradientUnits="userSpaceOnUse">
<stop stop-color="#2CEBC7"/>
<stop offset="0.348958" stop-color="#4ABDCC" stop-opacity="0.2"/>
<stop offset="0.65625" stop-color="#8267D5" stop-opacity="0.1"/>
</linearGradient>
<linearGradient id="paint38_linear_2526_806" x1="62.8749" y1="-62.5813" x2="147.614" y2="-57.326" gradientUnits="userSpaceOnUse">
<stop stop-color="#2CEBC7"/>
<stop offset="0.348958" stop-color="#4ABDCC" stop-opacity="0.2"/>
<stop offset="0.65625" stop-color="#8267D5" stop-opacity="0.1"/>
</linearGradient>
<linearGradient id="paint39_linear_2526_806" x1="59.375" y1="-65.9082" x2="151.942" y2="-59.8928" gradientUnits="userSpaceOnUse">
<stop stop-color="#2CEBC7"/>
<stop offset="0.348958" stop-color="#4ABDCC" stop-opacity="0.2"/>
<stop offset="0.65625" stop-color="#8267D5" stop-opacity="0.1"/>
</linearGradient>
<linearGradient id="paint40_linear_2526_806" x1="55.6589" y1="-69.2786" x2="156.53" y2="-62.4166" gradientUnits="userSpaceOnUse">
<stop stop-color="#2CEBC7"/>
<stop offset="0.348958" stop-color="#4ABDCC" stop-opacity="0.2"/>
<stop offset="0.65625" stop-color="#8267D5" stop-opacity="0.1"/>
</linearGradient>
<linearGradient id="paint41_linear_2526_806" x1="51.6406" y1="-72.6489" x2="161.482" y2="-64.8216" gradientUnits="userSpaceOnUse">
<stop stop-color="#2CEBC7"/>
<stop offset="0.348958" stop-color="#4ABDCC" stop-opacity="0.2"/>
<stop offset="0.65625" stop-color="#8267D5" stop-opacity="0.1"/>
</linearGradient>
<linearGradient id="paint42_linear_2526_806" x1="47.363" y1="-75.9761" x2="166.744" y2="-67.0661" gradientUnits="userSpaceOnUse">
<stop stop-color="#2CEBC7"/>
<stop offset="0.348958" stop-color="#4ABDCC" stop-opacity="0.2"/>
<stop offset="0.65625" stop-color="#8267D5" stop-opacity="0.1"/>
</linearGradient>
<linearGradient id="paint43_linear_2526_806" x1="42.7828" y1="-79.3462" x2="172.366" y2="-69.2156" gradientUnits="userSpaceOnUse">
<stop stop-color="#2CEBC7"/>
<stop offset="0.348958" stop-color="#4ABDCC" stop-opacity="0.2"/>
<stop offset="0.65625" stop-color="#8267D5" stop-opacity="0.1"/>
</linearGradient>
<linearGradient id="paint44_linear_2526_806" x1="37.9001" y1="-82.6301" x2="178.343" y2="-71.1264" gradientUnits="userSpaceOnUse">
<stop stop-color="#2CEBC7"/>
<stop offset="0.348958" stop-color="#4ABDCC" stop-opacity="0.2"/>
<stop offset="0.65625" stop-color="#8267D5" stop-opacity="0.1"/>
</linearGradient>
<linearGradient id="paint45_linear_2526_806" x1="32.672" y1="-85.8708" x2="184.726" y2="-72.8082" gradientUnits="userSpaceOnUse">
<stop stop-color="#2CEBC7"/>
<stop offset="0.348958" stop-color="#4ABDCC" stop-opacity="0.2"/>
<stop offset="0.65625" stop-color="#8267D5" stop-opacity="0.1"/>
</linearGradient>
<linearGradient id="paint46_linear_2526_806" x1="27.0979" y1="-88.9817" x2="191.507" y2="-74.159" gradientUnits="userSpaceOnUse">
<stop stop-color="#2CEBC7"/>
<stop offset="0.348958" stop-color="#4ABDCC" stop-opacity="0.2"/>
<stop offset="0.65625" stop-color="#8267D5" stop-opacity="0.1"/>
</linearGradient>
<linearGradient id="paint47_linear_2526_806" x1="21.1785" y1="-92.0063" x2="198.683" y2="-75.2029" gradientUnits="userSpaceOnUse">
<stop stop-color="#2CEBC7"/>
<stop offset="0.348958" stop-color="#4ABDCC" stop-opacity="0.2"/>
<stop offset="0.65625" stop-color="#8267D5" stop-opacity="0.1"/>
</linearGradient>
<linearGradient id="paint48_linear_2526_806" x1="14.8269" y1="-94.8582" x2="206.346" y2="-75.7862" gradientUnits="userSpaceOnUse">
<stop stop-color="#2CEBC7"/>
<stop offset="0.348958" stop-color="#4ABDCC" stop-opacity="0.2"/>
<stop offset="0.65625" stop-color="#8267D5" stop-opacity="0.1"/>
</linearGradient>
<linearGradient id="paint49_linear_2526_806" x1="8.12939" y1="-97.5371" x2="214.386" y2="-75.9209" gradientUnits="userSpaceOnUse">
<stop stop-color="#2CEBC7"/>
<stop offset="0.348958" stop-color="#4ABDCC" stop-opacity="0.2"/>
<stop offset="0.65625" stop-color="#8267D5" stop-opacity="0.1"/>
</linearGradient>
<linearGradient id="paint50_linear_2526_806" x1="1" y1="-100" x2="222.892" y2="-75.4885" gradientUnits="userSpaceOnUse">
<stop stop-color="#2CEBC7"/>
<stop offset="0.348958" stop-color="#4ABDCC" stop-opacity="0.2"/>
<stop offset="0.65625" stop-color="#8267D5" stop-opacity="0.1"/>
</linearGradient>
</defs>
</svg>
