<svg width="156" height="145" viewBox="0 0 219 160" fill="none" xmlns="http://www.w3.org/2000/svg">
<path d="M161.82 22.3627L159.79 25.2239L157.78 28.1595L156.285 24.9645L154.789 21.7695L158.295 22.0289L161.82 22.3627Z" stroke="url(#paint0_linear_2526_1656)" stroke-miterlimit="10"/>
<path d="M162.064 22.3775L159.755 25.3931L157.522 28.3887L156.041 24.9501L154.54 21.4369L158.329 21.86L162.064 22.3775Z" stroke="url(#paint1_linear_2526_1656)" stroke-miterlimit="10"/>
<path d="M162.382 22.372L159.795 25.542L157.209 28.7121L155.797 24.9353L154.291 21.1039L158.289 21.7107L162.382 22.372Z" stroke="url(#paint2_linear_2526_1656)" stroke-miterlimit="10"/>
<path d="M162.625 22.3867L159.761 25.7112L156.896 29.0357L155.459 24.8662L154.042 20.7712L158.324 21.5417L162.625 22.3867Z" stroke="url(#paint3_linear_2526_1656)" stroke-miterlimit="10"/>
<path d="M162.964 22.4559L159.726 25.8803L156.509 29.3793L155.141 24.8716L153.773 20.3639L158.358 21.3726L162.964 22.4559Z" stroke="url(#paint4_linear_2526_1656)" stroke-miterlimit="10"/>
<path d="M163.302 22.525L159.711 26.1238L156.101 29.6481L154.803 24.8023L153.484 19.8819L158.393 21.2034L163.302 22.525Z" stroke="url(#paint5_linear_2526_1656)" stroke-miterlimit="10"/>
<path d="M163.64 22.5943L159.677 26.293L155.639 30.0116L154.465 24.7331L153.196 19.4L158.408 20.9599L163.64 22.5943Z" stroke="url(#paint6_linear_2526_1656)" stroke-miterlimit="10"/>
<path d="M164.053 22.6435L159.588 26.5566L155.177 30.3751L154.032 24.6094L152.961 18.8236L158.517 20.7708L164.053 22.6435Z" stroke="url(#paint7_linear_2526_1656)" stroke-miterlimit="10"/>
<path d="M164.411 22.7873L159.553 26.7257L154.641 30.7586L153.674 24.4656L152.652 18.2672L158.532 20.5272L164.411 22.7873Z" stroke="url(#paint8_linear_2526_1656)" stroke-miterlimit="10"/>
<path d="M164.843 22.9112L159.464 26.9894L154.01 31.0876L153.241 24.342L152.398 17.6163L158.621 20.2637L164.843 22.9112Z" stroke="url(#paint9_linear_2526_1656)" stroke-miterlimit="10"/>
<path d="M165.296 23.1093L159.375 27.2528L153.379 31.4164L152.734 24.238L152.144 16.9652L158.71 20L165.296 23.1093Z" stroke="url(#paint10_linear_2526_1656)" stroke-miterlimit="10"/>
<path d="M165.823 23.2876L159.211 27.5364L152.693 31.8397L152.261 23.9651L151.849 16.165L158.874 19.7164L165.823 23.2876Z" stroke="url(#paint11_linear_2526_1656)" stroke-miterlimit="10"/>
<path d="M166.37 23.5406L159.142 27.8746L151.913 32.2086L151.734 23.7868L151.63 15.345L158.963 19.4528L166.37 23.5406Z" stroke="url(#paint12_linear_2526_1656)" stroke-miterlimit="10"/>
<path d="M166.918 23.7934L158.978 28.1581L151.039 32.5228L151.187 23.5338L151.39 14.4503L159.107 19.0946L166.918 23.7934Z" stroke="url(#paint13_linear_2526_1656)" stroke-miterlimit="10"/>
<path d="M167.465 24.0463L158.76 28.5363L150.109 32.9316L150.62 23.2064L151.13 13.4812L159.27 18.811L167.465 24.0463Z" stroke="url(#paint14_linear_2526_1656)" stroke-miterlimit="10"/>
<path d="M168.052 24.4482L158.596 28.8197L149.086 33.2857L150.033 22.8043L150.925 12.4174L159.488 18.4328L168.052 24.4482Z" stroke="url(#paint15_linear_2526_1656)" stroke-miterlimit="10"/>
<path d="M168.714 24.8304L158.378 29.1979L147.987 33.66L149.371 22.4224L150.7 11.2792L159.707 18.0548L168.714 24.8304Z" stroke="url(#paint16_linear_2526_1656)" stroke-miterlimit="10"/>
<path d="M169.395 25.2869L158.085 29.5959L146.795 33.9796L148.689 21.9657L150.604 10.0264L160 17.6566L169.395 25.2869Z" stroke="url(#paint17_linear_2526_1656)" stroke-miterlimit="10"/>
<path d="M170.097 25.818L157.792 29.9941L145.507 34.2446L148.008 21.5092L150.488 8.69914L160.293 17.2586L170.097 25.818Z" stroke="url(#paint18_linear_2526_1656)" stroke-miterlimit="10"/>
<path d="M170.873 26.3292L157.445 30.4867L144.071 34.5496L147.211 20.9235L150.352 7.29729L160.585 16.8605L170.873 26.3292Z" stroke="url(#paint19_linear_2526_1656)" stroke-miterlimit="10"/>
<path d="M171.615 27.0095L157.077 30.9048L142.54 34.8001L146.47 20.2433L150.325 5.70649L161.007 16.348L171.615 27.0095Z" stroke="url(#paint20_linear_2526_1656)" stroke-miterlimit="10"/>
<path d="M172.451 27.7444L156.635 31.3429L140.914 34.996L145.634 19.5086L150.373 4.09567L161.375 15.93L172.451 27.7444Z" stroke="url(#paint21_linear_2526_1656)" stroke-miterlimit="10"/>
<path d="M173.307 28.5537L156.213 31.8555L139.12 35.1573L144.778 18.6992L150.436 2.24112L161.871 15.3974L173.307 28.5537Z" stroke="url(#paint22_linear_2526_1656)" stroke-miterlimit="10"/>
<path d="M174.183 29.4375L155.717 32.3879L137.156 35.2838L143.901 17.8151L150.572 0.36651L162.368 14.8647L174.183 29.4375Z" stroke="url(#paint23_linear_2526_1656)" stroke-miterlimit="10"/>
<path d="M175.099 30.4707L155.126 32.8661L135.098 35.356L143.006 16.8569L150.819 -1.69685L162.959 14.3869L175.099 30.4707Z" stroke="url(#paint24_linear_2526_1656)" stroke-miterlimit="10"/>
<path d="M176.035 31.5781L154.48 33.4385L132.925 35.2988L142.05 15.6746L151.194 -3.87504L163.605 13.8143L176.035 31.5781Z" stroke="url(#paint25_linear_2526_1656)" stroke-miterlimit="10"/>
<path d="M176.991 32.7603L153.74 33.9564L130.509 35.2272L141.093 14.4925L151.604 -6.22216L164.325 13.2218L176.991 32.7603Z" stroke="url(#paint26_linear_2526_1656)" stroke-miterlimit="10"/>
<path d="M177.987 34.0916L152.945 34.569L127.978 35.0264L140.078 13.0868L152.197 -8.77823L165.065 12.7039L177.987 34.0916Z" stroke="url(#paint27_linear_2526_1656)" stroke-miterlimit="10"/>
<path d="M178.948 35.5918L152.056 35.1268L125.164 34.6618L139.042 11.6065L152.92 -11.4489L165.934 12.0714L178.948 35.5918Z" stroke="url(#paint28_linear_2526_1656)" stroke-miterlimit="10"/>
<path d="M180.044 37.2957L151.187 35.7591L122.255 34.2426L138.041 9.95694L153.752 -14.3088L166.898 11.4934L180.044 37.2957Z" stroke="url(#paint29_linear_2526_1656)" stroke-miterlimit="10"/>
<path d="M181.085 39.0942L150.074 36.377L119.137 33.6399L136.925 8.17848L154.787 -17.3029L167.936 10.8957L181.085 39.0942Z" stroke="url(#paint30_linear_2526_1656)" stroke-miterlimit="10"/>
<path d="M182.167 41.0417L148.961 36.9948L115.735 32.8732L135.918 6.21081L156.007 -20.5062L169.049 10.2778L182.167 41.0417Z" stroke="url(#paint31_linear_2526_1656)" stroke-miterlimit="10"/>
<path d="M183.233 43.2332L147.679 37.5782L112.219 31.9778L134.851 4.01976L157.409 -23.9183L170.311 9.62017L183.233 43.2332Z" stroke="url(#paint32_linear_2526_1656)" stroke-miterlimit="10"/>
<path d="M184.265 45.5935L146.322 38.1814L108.399 30.8438L133.725 1.6049L159.071 -27.5595L171.668 9.017L184.265 45.5935Z" stroke="url(#paint33_linear_2526_1656)" stroke-miterlimit="10"/>
<path d="M185.357 48.1775L144.817 38.8246L104.351 29.4517L132.708 -0.999027L161.01 -31.3552L173.173 8.37386L185.357 48.1775Z" stroke="url(#paint34_linear_2526_1656)" stroke-miterlimit="10"/>
<path d="M186.34 50.9504L143.216 39.4131L99.9986 27.8211L131.65 -3.75216L163.208 -35.38L174.774 7.78521L186.34 50.9504Z" stroke="url(#paint35_linear_2526_1656)" stroke-miterlimit="10"/>
<path d="M187.402 54.0216L141.447 39.9669L95.4921 25.9123L130.588 -6.82349L165.738 -39.6538L176.618 7.21116L187.402 54.0216Z" stroke="url(#paint36_linear_2526_1656)" stroke-miterlimit="10"/>
<path d="M188.376 57.3565L139.529 40.561L90.6618 23.6909L129.614 -10.1582L168.621 -44.1018L178.536 6.61738L188.376 57.3565Z" stroke="url(#paint37_linear_2526_1656)" stroke-miterlimit="10"/>
<path d="M189.26 60.9548L137.421 41.0457L85.5081 21.1564L128.71 -13.8313L171.912 -48.819L180.623 6.05792L189.26 60.9548Z" stroke="url(#paint38_linear_2526_1656)" stroke-miterlimit="10"/>
<path d="M190.15 64.8715L135.165 41.5704L80.1601 18.1947L127.895 -17.7679L175.555 -53.7105L182.9 5.60776L190.15 64.8715Z" stroke="url(#paint39_linear_2526_1656)" stroke-miterlimit="10"/>
<path d="M190.896 69.1463L132.719 41.9861L74.4685 14.8458L127.074 -22.0225L179.68 -58.8909L185.325 5.11774L190.896 69.1463Z" stroke="url(#paint40_linear_2526_1656)" stroke-miterlimit="10"/>
<path d="M191.572 73.7591L130.03 42.3869L68.4879 11.0147L126.398 -26.6356L184.402 -64.2313L187.94 4.73666L191.572 73.7591Z" stroke="url(#paint41_linear_2526_1656)" stroke-miterlimit="10"/>
<path d="M192.18 78.7102L127.152 42.6787L62.1985 6.62726L125.865 -31.6066L189.531 -69.8405L190.818 4.44484L192.18 78.7102Z" stroke="url(#paint42_linear_2526_1656)" stroke-miterlimit="10"/>
<path d="M192.569 84.0394L124.084 42.8614L55.6199 1.75791L125.475 -36.9358L195.311 -75.7041L193.94 4.16766L192.569 84.0394Z" stroke="url(#paint43_linear_2526_1656)" stroke-miterlimit="10"/>
<path d="M192.76 89.8213L120.699 43.0495L48.7128 -3.74233L125.19 -42.7721L201.762 -81.7473L197.251 3.99975L192.76 89.8213Z" stroke="url(#paint44_linear_2526_1656)" stroke-miterlimit="10"/>
<path d="M192.827 96.0359L117.179 43.0339L41.4567 -9.94821L125.198 -49.0066L208.884 -87.9704L200.846 3.99549L192.827 96.0359Z" stroke="url(#paint45_linear_2526_1656)" stroke-miterlimit="10"/>
<path d="M192.601 102.648L113.301 42.8744L33.9261 -16.8797L125.403 -55.6938L216.806 -94.4879L204.704 4.0803L192.601 102.648Z" stroke="url(#paint46_linear_2526_1656)" stroke-miterlimit="10"/>
<path d="M192.123 109.808L109.159 42.6257L26.196 -24.5568L125.882 -62.8537L225.568 -101.151L208.845 4.32878L192.123 109.808Z" stroke="url(#paint47_linear_2526_1656)" stroke-miterlimit="10"/>
<path d="M191.391 117.515L104.714 42.1389L18.0569 -33.1629L126.614 -70.5606L235.17 -107.958L213.291 4.81576L191.391 117.515Z" stroke="url(#paint48_linear_2526_1656)" stroke-miterlimit="10"/>
<path d="M190.238 125.735L99.9853 41.4883L9.67837 -42.6636L127.767 -78.7801L245.856 -114.897L218.02 5.4664L190.238 125.735Z" stroke="url(#paint49_linear_2526_1656)" stroke-miterlimit="10"/>
<path d="M188.757 134.522L94.8782 40.6194L0.999892 -53.2828L129.228 -87.6414L257.456 -122L223.107 6.26071L188.757 134.522Z" stroke="url(#paint50_linear_2526_1656)" stroke-miterlimit="10"/>
<defs>
<linearGradient id="paint0_linear_2526_1656" x1="162.999" y1="26.7612" x2="155.643" y2="27.8017" gradientUnits="userSpaceOnUse">
<stop stop-color="#2CEBC7"/>
<stop offset="0.348958" stop-color="#4ABDCC" stop-opacity="0.2"/>
<stop offset="0.65625" stop-color="#8267D5" stop-opacity="0.1"/>
</linearGradient>
<linearGradient id="paint1_linear_2526_1656" x1="163.262" y1="26.8506" x2="155.479" y2="27.9689" gradientUnits="userSpaceOnUse">
<stop stop-color="#2CEBC7"/>
<stop offset="0.348958" stop-color="#4ABDCC" stop-opacity="0.2"/>
<stop offset="0.65625" stop-color="#8267D5" stop-opacity="0.1"/>
</linearGradient>
<linearGradient id="paint2_linear_2526_1656" x1="163.62" y1="26.9941" x2="155.324" y2="28.2014" gradientUnits="userSpaceOnUse">
<stop stop-color="#2CEBC7"/>
<stop offset="0.348958" stop-color="#4ABDCC" stop-opacity="0.2"/>
<stop offset="0.65625" stop-color="#8267D5" stop-opacity="0.1"/>
</linearGradient>
<linearGradient id="paint3_linear_2526_1656" x1="163.904" y1="27.158" x2="155.181" y2="28.4511" gradientUnits="userSpaceOnUse">
<stop stop-color="#2CEBC7"/>
<stop offset="0.348958" stop-color="#4ABDCC" stop-opacity="0.2"/>
<stop offset="0.65625" stop-color="#8267D5" stop-opacity="0.1"/>
</linearGradient>
<linearGradient id="paint4_linear_2526_1656" x1="164.262" y1="27.3018" x2="155.027" y2="28.6915" gradientUnits="userSpaceOnUse">
<stop stop-color="#2CEBC7"/>
<stop offset="0.348958" stop-color="#4ABDCC" stop-opacity="0.2"/>
<stop offset="0.65625" stop-color="#8267D5" stop-opacity="0.1"/>
</linearGradient>
<linearGradient id="paint5_linear_2526_1656" x1="164.6" y1="27.3708" x2="154.852" y2="28.8566" gradientUnits="userSpaceOnUse">
<stop stop-color="#2CEBC7"/>
<stop offset="0.348958" stop-color="#4ABDCC" stop-opacity="0.2"/>
<stop offset="0.65625" stop-color="#8267D5" stop-opacity="0.1"/>
</linearGradient>
<linearGradient id="paint6_linear_2526_1656" x1="164.958" y1="27.5146" x2="154.269" y2="29.1214" gradientUnits="userSpaceOnUse">
<stop stop-color="#2CEBC7"/>
<stop offset="0.348958" stop-color="#4ABDCC" stop-opacity="0.2"/>
<stop offset="0.65625" stop-color="#8267D5" stop-opacity="0.1"/>
</linearGradient>
<linearGradient id="paint7_linear_2526_1656" x1="165.391" y1="27.6384" x2="153.675" y2="29.3773" gradientUnits="userSpaceOnUse">
<stop stop-color="#2CEBC7"/>
<stop offset="0.348958" stop-color="#4ABDCC" stop-opacity="0.2"/>
<stop offset="0.65625" stop-color="#8267D5" stop-opacity="0.1"/>
</linearGradient>
<linearGradient id="paint8_linear_2526_1656" x1="165.749" y1="27.7822" x2="153.006" y2="29.6525" gradientUnits="userSpaceOnUse">
<stop stop-color="#2CEBC7"/>
<stop offset="0.348958" stop-color="#4ABDCC" stop-opacity="0.2"/>
<stop offset="0.65625" stop-color="#8267D5" stop-opacity="0.1"/>
</linearGradient>
<linearGradient id="paint9_linear_2526_1656" x1="166.162" y1="27.8315" x2="152.22" y2="29.8371" gradientUnits="userSpaceOnUse">
<stop stop-color="#2CEBC7"/>
<stop offset="0.348958" stop-color="#4ABDCC" stop-opacity="0.2"/>
<stop offset="0.65625" stop-color="#8267D5" stop-opacity="0.1"/>
</linearGradient>
<linearGradient id="paint10_linear_2526_1656" x1="166.575" y1="27.8806" x2="151.435" y2="30.0198" gradientUnits="userSpaceOnUse">
<stop stop-color="#2CEBC7"/>
<stop offset="0.348958" stop-color="#4ABDCC" stop-opacity="0.2"/>
<stop offset="0.65625" stop-color="#8267D5" stop-opacity="0.1"/>
</linearGradient>
<linearGradient id="paint11_linear_2526_1656" x1="167.082" y1="27.9844" x2="150.573" y2="30.2893" gradientUnits="userSpaceOnUse">
<stop stop-color="#2CEBC7"/>
<stop offset="0.348958" stop-color="#4ABDCC" stop-opacity="0.2"/>
<stop offset="0.65625" stop-color="#8267D5" stop-opacity="0.1"/>
</linearGradient>
<linearGradient id="paint12_linear_2526_1656" x1="167.569" y1="28.0137" x2="149.605" y2="30.474" gradientUnits="userSpaceOnUse">
<stop stop-color="#2CEBC7"/>
<stop offset="0.348958" stop-color="#4ABDCC" stop-opacity="0.2"/>
<stop offset="0.65625" stop-color="#8267D5" stop-opacity="0.1"/>
</linearGradient>
<linearGradient id="paint13_linear_2526_1656" x1="168.036" y1="27.9683" x2="148.533" y2="30.5828" gradientUnits="userSpaceOnUse">
<stop stop-color="#2CEBC7"/>
<stop offset="0.348958" stop-color="#4ABDCC" stop-opacity="0.2"/>
<stop offset="0.65625" stop-color="#8267D5" stop-opacity="0.1"/>
</linearGradient>
<linearGradient id="paint14_linear_2526_1656" x1="168.524" y1="27.9976" x2="147.394" y2="30.7873" gradientUnits="userSpaceOnUse">
<stop stop-color="#2CEBC7"/>
<stop offset="0.348958" stop-color="#4ABDCC" stop-opacity="0.2"/>
<stop offset="0.65625" stop-color="#8267D5" stop-opacity="0.1"/>
</linearGradient>
<linearGradient id="paint15_linear_2526_1656" x1="168.991" y1="27.9521" x2="146.151" y2="30.9157" gradientUnits="userSpaceOnUse">
<stop stop-color="#2CEBC7"/>
<stop offset="0.348958" stop-color="#4ABDCC" stop-opacity="0.2"/>
<stop offset="0.65625" stop-color="#8267D5" stop-opacity="0.1"/>
</linearGradient>
<linearGradient id="paint16_linear_2526_1656" x1="169.533" y1="27.887" x2="144.811" y2="31.0337" gradientUnits="userSpaceOnUse">
<stop stop-color="#2CEBC7"/>
<stop offset="0.348958" stop-color="#4ABDCC" stop-opacity="0.2"/>
<stop offset="0.65625" stop-color="#8267D5" stop-opacity="0.1"/>
</linearGradient>
<linearGradient id="paint17_linear_2526_1656" x1="170.055" y1="27.7471" x2="143.366" y2="31.0739" gradientUnits="userSpaceOnUse">
<stop stop-color="#2CEBC7"/>
<stop offset="0.348958" stop-color="#4ABDCC" stop-opacity="0.2"/>
<stop offset="0.65625" stop-color="#8267D5" stop-opacity="0.1"/>
</linearGradient>
<linearGradient id="paint18_linear_2526_1656" x1="170.557" y1="27.5327" x2="141.817" y2="31.0357" gradientUnits="userSpaceOnUse">
<stop stop-color="#2CEBC7"/>
<stop offset="0.348958" stop-color="#4ABDCC" stop-opacity="0.2"/>
<stop offset="0.65625" stop-color="#8267D5" stop-opacity="0.1"/>
</linearGradient>
<linearGradient id="paint19_linear_2526_1656" x1="171.133" y1="27.2983" x2="140.086" y2="30.9823" gradientUnits="userSpaceOnUse">
<stop stop-color="#2CEBC7"/>
<stop offset="0.348958" stop-color="#4ABDCC" stop-opacity="0.2"/>
<stop offset="0.65625" stop-color="#8267D5" stop-opacity="0.1"/>
</linearGradient>
<linearGradient id="paint20_linear_2526_1656" x1="171.615" y1="27.0095" x2="138.261" y2="30.885" gradientUnits="userSpaceOnUse">
<stop stop-color="#2CEBC7"/>
<stop offset="0.348958" stop-color="#4ABDCC" stop-opacity="0.2"/>
<stop offset="0.65625" stop-color="#8267D5" stop-opacity="0.1"/>
</linearGradient>
<linearGradient id="paint21_linear_2526_1656" x1="172.451" y1="27.7444" x2="136.614" y2="32.0055" gradientUnits="userSpaceOnUse">
<stop stop-color="#2CEBC7"/>
<stop offset="0.348958" stop-color="#4ABDCC" stop-opacity="0.2"/>
<stop offset="0.65625" stop-color="#8267D5" stop-opacity="0.1"/>
</linearGradient>
<linearGradient id="paint22_linear_2526_1656" x1="173.307" y1="28.5537" x2="134.816" y2="33.2479" gradientUnits="userSpaceOnUse">
<stop stop-color="#2CEBC7"/>
<stop offset="0.348958" stop-color="#4ABDCC" stop-opacity="0.2"/>
<stop offset="0.65625" stop-color="#8267D5" stop-opacity="0.1"/>
</linearGradient>
<linearGradient id="paint23_linear_2526_1656" x1="174.183" y1="29.4375" x2="132.868" y2="34.5709" gradientUnits="userSpaceOnUse">
<stop stop-color="#2CEBC7"/>
<stop offset="0.348958" stop-color="#4ABDCC" stop-opacity="0.2"/>
<stop offset="0.65625" stop-color="#8267D5" stop-opacity="0.1"/>
</linearGradient>
<linearGradient id="paint24_linear_2526_1656" x1="175.099" y1="30.4707" x2="130.874" y2="36.09" gradientUnits="userSpaceOnUse">
<stop stop-color="#2CEBC7"/>
<stop offset="0.348958" stop-color="#4ABDCC" stop-opacity="0.2"/>
<stop offset="0.65625" stop-color="#8267D5" stop-opacity="0.1"/>
</linearGradient>
<linearGradient id="paint25_linear_2526_1656" x1="176.035" y1="31.5781" x2="128.816" y2="37.7027" gradientUnits="userSpaceOnUse">
<stop stop-color="#2CEBC7"/>
<stop offset="0.348958" stop-color="#4ABDCC" stop-opacity="0.2"/>
<stop offset="0.65625" stop-color="#8267D5" stop-opacity="0.1"/>
</linearGradient>
<linearGradient id="paint26_linear_2526_1656" x1="176.991" y1="32.7603" x2="126.521" y2="39.4208" gradientUnits="userSpaceOnUse">
<stop stop-color="#2CEBC7"/>
<stop offset="0.348958" stop-color="#4ABDCC" stop-opacity="0.2"/>
<stop offset="0.65625" stop-color="#8267D5" stop-opacity="0.1"/>
</linearGradient>
<linearGradient id="paint27_linear_2526_1656" x1="177.987" y1="34.0916" x2="124.181" y2="41.33" gradientUnits="userSpaceOnUse">
<stop stop-color="#2CEBC7"/>
<stop offset="0.348958" stop-color="#4ABDCC" stop-opacity="0.2"/>
<stop offset="0.65625" stop-color="#8267D5" stop-opacity="0.1"/>
</linearGradient>
<linearGradient id="paint28_linear_2526_1656" x1="178.948" y1="35.5918" x2="121.636" y2="43.4375" gradientUnits="userSpaceOnUse">
<stop stop-color="#2CEBC7"/>
<stop offset="0.348958" stop-color="#4ABDCC" stop-opacity="0.2"/>
<stop offset="0.65625" stop-color="#8267D5" stop-opacity="0.1"/>
</linearGradient>
<linearGradient id="paint29_linear_2526_1656" x1="180.044" y1="37.2957" x2="119.056" y2="45.7986" gradientUnits="userSpaceOnUse">
<stop stop-color="#2CEBC7"/>
<stop offset="0.348958" stop-color="#4ABDCC" stop-opacity="0.2"/>
<stop offset="0.65625" stop-color="#8267D5" stop-opacity="0.1"/>
</linearGradient>
<linearGradient id="paint30_linear_2526_1656" x1="181.085" y1="39.0942" x2="116.336" y2="48.2708" gradientUnits="userSpaceOnUse">
<stop stop-color="#2CEBC7"/>
<stop offset="0.348958" stop-color="#4ABDCC" stop-opacity="0.2"/>
<stop offset="0.65625" stop-color="#8267D5" stop-opacity="0.1"/>
</linearGradient>
<linearGradient id="paint31_linear_2526_1656" x1="182.167" y1="41.0417" x2="113.4" y2="50.9318" gradientUnits="userSpaceOnUse">
<stop stop-color="#2CEBC7"/>
<stop offset="0.348958" stop-color="#4ABDCC" stop-opacity="0.2"/>
<stop offset="0.65625" stop-color="#8267D5" stop-opacity="0.1"/>
</linearGradient>
<linearGradient id="paint32_linear_2526_1656" x1="183.233" y1="43.2332" x2="110.451" y2="53.8787" gradientUnits="userSpaceOnUse">
<stop stop-color="#2CEBC7"/>
<stop offset="0.348958" stop-color="#4ABDCC" stop-opacity="0.2"/>
<stop offset="0.65625" stop-color="#8267D5" stop-opacity="0.1"/>
</linearGradient>
<linearGradient id="paint33_linear_2526_1656" x1="184.265" y1="45.5935" x2="107.298" y2="57.0295" gradientUnits="userSpaceOnUse">
<stop stop-color="#2CEBC7"/>
<stop offset="0.348958" stop-color="#4ABDCC" stop-opacity="0.2"/>
<stop offset="0.65625" stop-color="#8267D5" stop-opacity="0.1"/>
</linearGradient>
<linearGradient id="paint34_linear_2526_1656" x1="185.357" y1="48.1775" x2="104.035" y2="60.4385" gradientUnits="userSpaceOnUse">
<stop stop-color="#2CEBC7"/>
<stop offset="0.348958" stop-color="#4ABDCC" stop-opacity="0.2"/>
<stop offset="0.65625" stop-color="#8267D5" stop-opacity="0.1"/>
</linearGradient>
<linearGradient id="paint35_linear_2526_1656" x1="186.34" y1="50.9504" x2="100.578" y2="64.0671" gradientUnits="userSpaceOnUse">
<stop stop-color="#2CEBC7"/>
<stop offset="0.348958" stop-color="#4ABDCC" stop-opacity="0.2"/>
<stop offset="0.65625" stop-color="#8267D5" stop-opacity="0.1"/>
</linearGradient>
<linearGradient id="paint36_linear_2526_1656" x1="190.608" y1="53.1626" x2="96.63" y2="67.3351" gradientUnits="userSpaceOnUse">
<stop stop-color="#2CEBC7"/>
<stop offset="0.348958" stop-color="#4ABDCC" stop-opacity="0.2"/>
<stop offset="0.65625" stop-color="#8267D5" stop-opacity="0.1"/>
</linearGradient>
<linearGradient id="paint37_linear_2526_1656" x1="195.309" y1="55.4988" x2="92.4294" y2="70.779" gradientUnits="userSpaceOnUse">
<stop stop-color="#2CEBC7"/>
<stop offset="0.348958" stop-color="#4ABDCC" stop-opacity="0.2"/>
<stop offset="0.65625" stop-color="#8267D5" stop-opacity="0.1"/>
</linearGradient>
<linearGradient id="paint38_linear_2526_1656" x1="200.517" y1="57.9385" x2="87.9658" y2="74.3868" gradientUnits="userSpaceOnUse">
<stop stop-color="#2CEBC7"/>
<stop offset="0.348958" stop-color="#4ABDCC" stop-opacity="0.2"/>
<stop offset="0.65625" stop-color="#8267D5" stop-opacity="0.1"/>
</linearGradient>
<linearGradient id="paint39_linear_2526_1656" x1="206.178" y1="60.5767" x2="83.4422" y2="78.2442" gradientUnits="userSpaceOnUse">
<stop stop-color="#2CEBC7"/>
<stop offset="0.348958" stop-color="#4ABDCC" stop-opacity="0.2"/>
<stop offset="0.65625" stop-color="#8267D5" stop-opacity="0.1"/>
</linearGradient>
<linearGradient id="paint40_linear_2526_1656" x1="212.441" y1="63.3733" x2="78.6648" y2="82.3282" gradientUnits="userSpaceOnUse">
<stop stop-color="#2CEBC7"/>
<stop offset="0.348958" stop-color="#4ABDCC" stop-opacity="0.2"/>
<stop offset="0.65625" stop-color="#8267D5" stop-opacity="0.1"/>
</linearGradient>
<linearGradient id="paint41_linear_2526_1656" x1="219.38" y1="66.3081" x2="73.7084" y2="86.5951" gradientUnits="userSpaceOnUse">
<stop stop-color="#2CEBC7"/>
<stop offset="0.348958" stop-color="#4ABDCC" stop-opacity="0.2"/>
<stop offset="0.65625" stop-color="#8267D5" stop-opacity="0.1"/>
</linearGradient>
<linearGradient id="paint42_linear_2526_1656" x1="226.846" y1="69.4214" x2="68.596" y2="91.1002" gradientUnits="userSpaceOnUse">
<stop stop-color="#2CEBC7"/>
<stop offset="0.348958" stop-color="#4ABDCC" stop-opacity="0.2"/>
<stop offset="0.65625" stop-color="#8267D5" stop-opacity="0.1"/>
</linearGradient>
<linearGradient id="paint43_linear_2526_1656" x1="235.063" y1="72.6531" x2="63.2942" y2="95.7736" gradientUnits="userSpaceOnUse">
<stop stop-color="#2CEBC7"/>
<stop offset="0.348958" stop-color="#4ABDCC" stop-opacity="0.2"/>
<stop offset="0.65625" stop-color="#8267D5" stop-opacity="0.1"/>
</linearGradient>
<linearGradient id="paint44_linear_2526_1656" x1="244.051" y1="76.0779" x2="57.824" y2="100.686" gradientUnits="userSpaceOnUse">
<stop stop-color="#2CEBC7"/>
<stop offset="0.348958" stop-color="#4ABDCC" stop-opacity="0.2"/>
<stop offset="0.65625" stop-color="#8267D5" stop-opacity="0.1"/>
</linearGradient>
<linearGradient id="paint45_linear_2526_1656" x1="253.81" y1="79.6956" x2="52.1858" y2="105.832" gradientUnits="userSpaceOnUse">
<stop stop-color="#2CEBC7"/>
<stop offset="0.348958" stop-color="#4ABDCC" stop-opacity="0.2"/>
<stop offset="0.65625" stop-color="#8267D5" stop-opacity="0.1"/>
</linearGradient>
<linearGradient id="paint46_linear_2526_1656" x1="264.469" y1="83.3916" x2="46.424" y2="111.093" gradientUnits="userSpaceOnUse">
<stop stop-color="#2CEBC7"/>
<stop offset="0.348958" stop-color="#4ABDCC" stop-opacity="0.2"/>
<stop offset="0.65625" stop-color="#8267D5" stop-opacity="0.1"/>
</linearGradient>
<linearGradient id="paint47_linear_2526_1656" x1="276.068" y1="87.3152" x2="40.6649" y2="116.615" gradientUnits="userSpaceOnUse">
<stop stop-color="#2CEBC7"/>
<stop offset="0.348958" stop-color="#4ABDCC" stop-opacity="0.2"/>
<stop offset="0.65625" stop-color="#8267D5" stop-opacity="0.1"/>
</linearGradient>
<linearGradient id="paint48_linear_2526_1656" x1="288.606" y1="91.4666" x2="34.7383" y2="122.39" gradientUnits="userSpaceOnUse">
<stop stop-color="#2CEBC7"/>
<stop offset="0.348958" stop-color="#4ABDCC" stop-opacity="0.2"/>
<stop offset="0.65625" stop-color="#8267D5" stop-opacity="0.1"/>
</linearGradient>
<linearGradient id="paint49_linear_2526_1656" x1="302.288" y1="95.7109" x2="28.765" y2="128.248" gradientUnits="userSpaceOnUse">
<stop stop-color="#2CEBC7"/>
<stop offset="0.348958" stop-color="#4ABDCC" stop-opacity="0.2"/>
<stop offset="0.65625" stop-color="#8267D5" stop-opacity="0.1"/>
</linearGradient>
<linearGradient id="paint50_linear_2526_1656" x1="316.985" y1="100.163" x2="22.7866" y2="134.327" gradientUnits="userSpaceOnUse">
<stop stop-color="#2CEBC7"/>
<stop offset="0.348958" stop-color="#4ABDCC" stop-opacity="0.2"/>
<stop offset="0.65625" stop-color="#8267D5" stop-opacity="0.1"/>
</linearGradient>
</defs>
</svg>
