<svg width="156" height="145" viewBox="0 0 156 145" fill="none" xmlns="http://www.w3.org/2000/svg">
<path d="M110.66 29.3883C118.913 25.003 124.864 20.0542 123.95 18.3347C123.037 16.6152 115.605 18.7762 107.351 23.1614C99.0979 27.5466 93.1476 32.4955 94.0612 34.215C94.9748 35.9345 102.406 33.7735 110.66 29.3883Z" stroke="url(#paint0_linear_2526_2797)" stroke-miterlimit="10"/>
<path d="M110.787 29.4655C119.605 24.5555 125.96 19.1501 124.981 17.3922C124.002 15.6343 116.06 18.1896 107.242 23.0996C98.4245 28.0096 92.0698 33.4151 93.0486 35.173C94.0275 36.9309 101.969 34.3756 110.787 29.4655Z" stroke="url(#paint1_linear_2526_2797)" stroke-miterlimit="10"/>
<path d="M110.952 29.5182C120.376 24.0325 127.169 18.1302 126.124 16.3352C125.079 14.5401 116.592 17.5319 107.168 23.0176C97.7437 28.5034 90.9509 34.4057 91.9959 36.2007C93.0408 37.9958 101.528 35.004 110.952 29.5182Z" stroke="url(#paint2_linear_2526_2797)" stroke-miterlimit="10"/>
<path d="M110.98 29.6238C121.022 23.5279 128.262 17.1021 127.15 15.2713C126.039 13.4405 116.998 16.8979 106.956 22.9937C96.9138 29.0896 89.6742 35.5155 90.7856 37.3463C91.897 39.1771 100.938 35.7196 110.98 29.6238Z" stroke="url(#paint3_linear_2526_2797)" stroke-miterlimit="10"/>
<path d="M111.167 29.6794C121.84 22.9358 129.535 15.9566 128.357 14.091C127.178 12.2255 117.571 16.1799 106.898 22.9236C96.2262 29.6672 88.5303 36.6464 89.7092 38.5119C90.888 40.3775 100.495 36.423 111.167 29.6794Z" stroke="url(#paint4_linear_2526_2797)" stroke-miterlimit="10"/>
<path d="M111.265 29.7083C122.604 22.2625 130.785 14.6872 129.538 12.7883C128.291 10.8895 118.088 15.3861 106.749 22.8319C95.4105 30.2777 87.2293 37.8531 88.4762 39.7519C89.7231 41.6508 99.926 37.1541 111.265 29.7083Z" stroke="url(#paint5_linear_2526_2797)" stroke-miterlimit="10"/>
<path d="M111.367 29.8547C123.382 21.6695 132.04 13.4471 130.706 11.4894C129.373 9.53163 118.552 14.5799 106.537 22.7651C94.5224 30.9503 85.8638 39.1727 87.1975 41.1305C88.5313 43.0882 99.3523 38.0399 111.367 29.8547Z" stroke="url(#paint6_linear_2526_2797)" stroke-miterlimit="10"/>
<path d="M111.528 29.9426C124.253 20.9594 133.415 12.0438 131.993 10.029C130.57 8.01426 119.102 13.6633 106.377 22.6465C93.6523 31.6298 84.4898 40.5454 85.9122 42.5602C87.3345 44.5749 98.8031 38.9259 111.528 29.9426Z" stroke="url(#paint7_linear_2526_2797)" stroke-miterlimit="10"/>
<path d="M111.732 30.0129C125.147 20.2098 134.796 10.5848 133.284 8.51489C131.771 6.44495 119.67 12.7139 106.254 22.517C92.8391 32.3201 83.1901 41.9451 84.7027 44.0151C86.2152 46.085 98.3167 39.816 111.732 30.0129Z" stroke="url(#paint8_linear_2526_2797)" stroke-miterlimit="10"/>
<path d="M111.914 30.1892C126.051 19.5083 136.212 9.12849 134.608 7.00522C133.004 4.88196 120.242 11.8193 106.105 22.5002C91.9668 33.181 81.8062 43.5608 83.4103 45.6841C85.0144 47.8074 97.7757 40.8701 111.914 30.1892Z" stroke="url(#paint9_linear_2526_2797)" stroke-miterlimit="10"/>
<path d="M112.172 30.2502C127.061 18.6271 137.738 7.42124 136.021 5.2212C134.303 3.02116 120.841 10.66 105.952 22.2831C91.0638 33.9062 80.3865 45.1121 82.104 47.3122C83.8215 49.5122 97.2835 41.8733 112.172 30.2502Z" stroke="url(#paint10_linear_2526_2797)" stroke-miterlimit="10"/>
<path d="M112.307 30.4381C127.922 17.8534 139.095 5.80801 137.262 3.53397C135.43 1.25993 121.285 9.61836 105.67 22.2031C90.0551 34.7878 78.8823 46.8332 80.7151 49.1073C82.5478 51.3813 96.692 43.0228 112.307 30.4381Z" stroke="url(#paint11_linear_2526_2797)" stroke-miterlimit="10"/>
<path d="M112.472 30.536C128.839 16.9241 140.525 3.98838 138.575 1.64317C136.625 -0.702044 121.776 8.43137 105.409 22.0432C89.0424 35.6551 77.3558 48.5909 79.3063 50.9361C81.2568 53.2813 96.1057 44.1479 112.472 30.536Z" stroke="url(#paint12_linear_2526_2797)" stroke-miterlimit="10"/>
<path d="M112.749 30.631C129.868 15.946 142.066 2.08466 139.996 -0.329181C137.925 -2.74303 122.369 7.20471 105.25 21.8897C88.1318 36.5747 75.933 50.436 78.0037 52.8499C80.0744 55.2637 95.6304 45.316 112.749 30.631Z" stroke="url(#paint13_linear_2526_2797)" stroke-miterlimit="10"/>
<path d="M113.038 30.8326C130.93 15.009 143.639 0.151619 141.425 -2.35229C139.21 -4.8562 122.911 5.94153 105.019 21.7651C87.1266 37.5887 74.4175 52.4461 76.6319 54.95C78.8464 57.4539 95.1458 46.6562 113.038 30.8326Z" stroke="url(#paint14_linear_2526_2797)" stroke-miterlimit="10"/>
<path d="M113.311 31.0346C131.945 14.0471 145.119 -1.84302 142.736 -4.45706C140.353 -7.0711 123.315 4.58085 104.681 21.5683C86.0474 38.5558 72.8734 54.446 75.2564 57.0601C77.6395 59.6741 94.6772 48.0221 113.311 31.0346Z" stroke="url(#paint15_linear_2526_2797)" stroke-miterlimit="10"/>
<path d="M113.672 31.1932C133.042 12.9925 146.673 -3.96703 144.117 -6.68689C141.562 -9.40676 123.787 3.14298 104.417 21.3437C85.047 39.5444 71.4161 56.504 73.9718 59.2238C76.5274 61.9437 94.3019 49.394 113.672 31.1932Z" stroke="url(#paint16_linear_2526_2797)" stroke-miterlimit="10"/>
<path d="M113.988 31.3716C134.084 11.9103 148.161 -6.15291 145.429 -8.97385C142.697 -11.7948 124.192 1.69482 104.095 21.1561C83.999 40.6173 69.9223 58.6806 72.6541 61.5016C75.3859 64.3225 93.8917 50.8328 113.988 31.3716Z" stroke="url(#paint17_linear_2526_2797)" stroke-miterlimit="10"/>
<path d="M114.309 31.6428C135.142 10.8507 149.652 -8.3881 146.718 -11.3282C143.784 -14.2683 124.516 0.20363 103.683 20.9958C82.8494 41.7879 68.3393 61.0267 71.2736 63.9668C74.2078 66.9069 93.4753 52.4349 114.309 31.6428Z" stroke="url(#paint18_linear_2526_2797)" stroke-miterlimit="10"/>
<path d="M114.709 31.826C136.22 9.69501 151.111 -10.7211 147.97 -13.7747C144.828 -16.8283 124.843 -1.36295 103.333 20.7681C81.8219 42.8991 66.9308 63.3153 70.0725 66.3688C73.2141 69.4224 93.1987 53.9571 114.709 31.826Z" stroke="url(#paint19_linear_2526_2797)" stroke-miterlimit="10"/>
<path d="M115.151 32.0641C137.343 8.51967 152.576 -13.1652 149.176 -16.3705C145.775 -19.5758 125.028 -3.08764 102.836 20.4568C80.644 44.0013 65.4106 65.6863 68.8112 68.8916C72.2118 72.0968 92.9587 55.6086 115.151 32.0641Z" stroke="url(#paint20_linear_2526_2797)" stroke-miterlimit="10"/>
<path d="M115.605 32.3181C138.438 7.33194 153.997 -15.6209 150.355 -18.9485C146.714 -22.2761 125.252 -4.71838 102.418 20.2678C79.5849 45.254 64.0266 68.2068 67.6679 71.5344C71.3092 74.862 92.7713 57.3043 115.605 32.3181Z" stroke="url(#paint21_linear_2526_2797)" stroke-miterlimit="10"/>
<path d="M116.103 32.5469C139.53 6.08767 155.331 -18.1869 151.394 -21.672C147.458 -25.157 125.276 -6.53269 101.849 19.9265C78.4222 46.3858 62.6216 70.6604 66.5577 74.1454C70.4938 77.6304 92.676 59.0061 116.103 32.5469Z" stroke="url(#paint22_linear_2526_2797)" stroke-miterlimit="10"/>
<path d="M116.739 32.9291C140.739 4.94448 156.739 -20.7043 152.478 -24.3592C148.216 -28.014 125.306 -8.29086 101.306 19.6937C77.3069 47.6783 61.3064 73.3271 65.5681 76.9819C69.8298 80.6368 92.74 60.9136 116.739 32.9291Z" stroke="url(#paint23_linear_2526_2797)" stroke-miterlimit="10"/>
<path d="M117.293 33.2125C141.789 3.69578 157.921 -23.3234 153.327 -27.1366C148.732 -30.9498 125.149 -10.113 100.654 19.4037C76.1582 48.9204 60.0254 75.9396 64.6202 79.7528C69.215 83.566 92.7974 62.7291 117.293 33.2125Z" stroke="url(#paint24_linear_2526_2797)" stroke-miterlimit="10"/>
<path d="M118.018 33.4701C142.977 2.36093 159.168 -26.1013 154.182 -30.102C149.195 -34.1028 124.919 -12.1271 99.9603 18.982C75.0012 50.0911 58.8102 78.5533 63.7968 82.5541C68.7834 86.5549 93.0592 64.5792 118.018 33.4701Z" stroke="url(#paint25_linear_2526_2797)" stroke-miterlimit="10"/>
<path d="M118.795 33.8601C144.142 1.15629 160.302 -28.7559 154.89 -32.9506C149.478 -37.1453 124.543 -14.0341 99.1957 18.6698C73.8486 51.3736 57.6881 81.2857 63.1003 85.4804C68.5124 89.6751 93.4477 66.5639 118.795 33.8601Z" stroke="url(#paint26_linear_2526_2797)" stroke-miterlimit="10"/>
<path d="M119.672 34.3086C145.346 -0.0209855 161.377 -31.4271 155.478 -35.839C149.579 -40.2508 123.983 -15.9977 98.3089 18.3318C72.6346 52.6614 56.6038 84.0675 62.5029 88.4793C68.4021 92.8912 93.9975 68.6381 119.672 34.3086Z" stroke="url(#paint27_linear_2526_2797)" stroke-miterlimit="10"/>
<path d="M120.563 34.634C146.459 -1.30414 162.265 -34.1749 155.867 -38.785C149.47 -43.3951 123.29 -17.9986 97.3944 17.9395C71.4984 53.8776 55.6919 86.7484 62.0897 91.3585C68.4875 95.9685 94.6667 70.5721 120.563 34.634Z" stroke="url(#paint28_linear_2526_2797)" stroke-miterlimit="10"/>
<path d="M121.599 35.0505C147.649 -2.52614 163.102 -36.9148 156.115 -41.7586C149.127 -46.6024 122.346 -20.0672 96.2962 17.5095C70.2468 55.0862 54.7938 89.4748 61.7811 94.3186C68.7684 99.1625 95.55 72.6272 121.599 35.0505Z" stroke="url(#paint29_linear_2526_2797)" stroke-miterlimit="10"/>
<path d="M122.835 35.4612C148.95 -3.76177 163.922 -39.6843 156.277 -44.774C148.633 -49.8637 121.266 -22.1933 95.1516 17.0296C69.0376 56.2526 54.0652 92.1751 61.7098 97.2648C69.3545 102.355 96.7214 74.6841 122.835 35.4612Z" stroke="url(#paint30_linear_2526_2797)" stroke-miterlimit="10"/>
<path d="M124.136 35.8862C150.22 -4.98524 164.601 -42.4349 156.258 -47.7599C147.914 -53.085 120.004 -24.2689 93.9203 16.6025C67.8363 57.4739 53.4551 94.9235 61.799 100.249C70.1429 105.574 98.0522 76.7576 124.136 35.8862Z" stroke="url(#paint31_linear_2526_2797)" stroke-miterlimit="10"/>
<path d="M125.623 36.3842C151.542 -6.0815 165.12 -45.0434 155.951 -50.6398C146.782 -56.2362 118.338 -26.3478 92.4186 16.1179C66.4995 58.5835 52.9208 97.5456 62.0898 103.142C71.2589 108.738 99.7035 78.8498 125.623 36.3842Z" stroke="url(#paint32_linear_2526_2797)" stroke-miterlimit="10"/>
<path d="M127.208 36.8749C152.862 -7.18379 165.519 -47.6396 155.479 -53.4857C145.439 -59.3318 116.503 -28.3543 90.8491 15.7044C65.1949 59.7631 52.5372 100.219 62.5773 106.065C72.6174 111.911 101.553 80.9336 127.208 36.8749Z" stroke="url(#paint33_linear_2526_2797)" stroke-miterlimit="10"/>
<path d="M128.941 37.3483C154.202 -8.27286 165.729 -50.2132 154.685 -56.3282C143.642 -62.4432 114.211 -30.4172 88.9495 15.204C63.6878 60.8251 52.1616 102.766 63.2049 108.881C74.2483 114.995 103.679 82.9694 128.941 37.3483Z" stroke="url(#paint34_linear_2526_2797)" stroke-miterlimit="10"/>
<path d="M131.066 37.9092C155.818 -9.2416 166.008 -52.6494 153.825 -59.0449C141.642 -65.4404 111.7 -32.4017 86.9481 14.7492C62.1957 61.9 52.0061 105.308 64.1889 111.703C76.3717 118.099 106.313 85.0601 131.066 37.9092Z" stroke="url(#paint35_linear_2526_2797)" stroke-miterlimit="10"/>
<path d="M133.354 38.3572C157.451 -10.2595 166.095 -55.0688 152.662 -61.7271C139.228 -68.3854 108.804 -34.3714 84.707 14.2453C60.6102 62.862 51.966 107.671 65.3996 114.33C78.8331 120.988 109.257 86.9739 133.354 38.3572Z" stroke="url(#paint36_linear_2526_2797)" stroke-miterlimit="10"/>
<path d="M135.936 38.8066C159.248 -11.233 166.102 -57.4084 151.246 -64.3292C136.39 -71.25 105.449 -36.2953 82.1382 13.7443C58.8269 63.7838 51.9725 109.959 66.8284 116.88C81.6844 123.801 112.625 88.8461 135.936 38.8066Z" stroke="url(#paint37_linear_2526_2797)" stroke-miterlimit="10"/>
<path d="M138.702 39.2245C161.081 -12.1572 165.909 -59.6088 149.486 -66.7617C133.063 -73.9145 101.608 -38.06 79.2292 13.3217C56.8506 64.7033 52.0227 112.155 68.4458 119.308C84.8689 126.461 116.324 90.6061 138.702 39.2245Z" stroke="url(#paint38_linear_2526_2797)" stroke-miterlimit="10"/>
<path d="M141.979 39.6825C163.287 -12.9571 165.784 -61.6114 147.556 -68.9901C129.327 -76.3687 97.2768 -39.6775 75.9688 12.962C54.6609 65.6016 52.1643 114.256 70.3927 121.635C88.621 129.013 120.671 92.3221 141.979 39.6825Z" stroke="url(#paint39_linear_2526_2797)" stroke-miterlimit="10"/>
<path d="M145.57 39.9486C165.662 -13.8612 165.562 -63.6023 145.345 -71.1511C125.128 -78.7 92.4513 -41.1981 72.3588 12.6117C52.2662 66.4215 52.3669 116.163 72.5836 123.711C92.8003 131.26 125.477 93.7584 145.57 39.9486Z" stroke="url(#paint40_linear_2526_2797)" stroke-miterlimit="10"/>
<path d="M149.683 40.2125C168.426 -14.6651 165.397 -65.376 142.918 -73.0536C120.439 -80.7311 87.0214 -42.468 68.2785 12.4095C49.5356 67.2871 52.5644 117.998 75.0437 125.676C97.5229 133.353 130.94 95.09 149.683 40.2125Z" stroke="url(#paint41_linear_2526_2797)" stroke-miterlimit="10"/>
<path d="M154.297 40.2907C171.557 -15.5486 165.265 -67.0846 140.244 -74.8182C115.223 -82.5517 80.9485 -43.5543 63.6893 12.2851C46.4302 68.1244 52.7223 119.66 77.743 127.394C102.764 135.127 137.038 96.13 154.297 40.2907Z" stroke="url(#paint42_linear_2526_2797)" stroke-miterlimit="10"/>
<path d="M159.401 40.2155C175.057 -16.496 165.155 -68.7071 137.284 -76.4013C109.414 -84.0955 74.1279 -44.3592 58.4718 12.3523C42.8157 69.0638 52.7177 121.275 80.5887 128.969C108.46 136.663 143.745 96.927 159.401 40.2155Z" stroke="url(#paint43_linear_2526_2797)" stroke-miterlimit="10"/>
<path d="M165.244 39.9359C179.186 -17.5242 165.306 -70.2151 134.243 -77.7525C103.179 -85.2899 66.6942 -44.8195 52.7519 12.6406C38.8097 70.1007 52.6894 122.792 83.7532 130.329C114.817 137.866 151.302 97.396 165.244 39.9359Z" stroke="url(#paint44_linear_2526_2797)" stroke-miterlimit="10"/>
<path d="M171.68 39.3679C183.799 -18.7026 165.554 -71.6364 130.927 -78.863C96.3012 -86.0897 58.4062 -44.8726 46.2866 13.198C34.1671 71.2685 52.4124 124.202 87.0388 131.429C121.665 138.656 159.56 97.4385 171.68 39.3679Z" stroke="url(#paint45_linear_2526_2797)" stroke-miterlimit="10"/>
<path d="M178.956 38.5107C189.175 -20.0875 166.128 -73.0549 127.478 -79.7954C88.8279 -86.5359 49.2115 -44.497 38.9921 14.1012C28.7727 72.6994 51.8201 125.667 90.4699 132.407C129.12 139.148 168.736 97.1088 178.956 38.5107Z" stroke="url(#paint46_linear_2526_2797)" stroke-miterlimit="10"/>
<path d="M187.028 37.1526C195.274 -21.8573 167.019 -74.5768 123.919 -80.5997C80.8183 -86.6226 39.1938 -43.6682 30.9477 15.3417C22.7015 74.3515 50.9565 127.071 94.0568 133.094C137.157 139.117 178.782 96.1624 187.028 37.1526Z" stroke="url(#paint47_linear_2526_2797)" stroke-miterlimit="10"/>
<path d="M195.948 35.4208C202.166 -23.8657 168.25 -76.0124 120.195 -81.0523C72.1397 -86.0922 28.1427 -42.1167 21.9249 17.1697C15.7071 76.4562 49.6231 128.603 97.6784 133.643C145.734 138.683 189.731 94.7072 195.948 35.4208Z" stroke="url(#paint48_linear_2526_2797)" stroke-miterlimit="10"/>
<path d="M205.964 33.0286C210.124 -26.475 170.089 -77.7474 116.542 -81.4916C62.9955 -85.2358 16.2143 -40.034 12.0536 19.4696C7.89285 78.9732 47.9281 130.246 101.475 133.99C155.022 137.734 201.803 92.5322 205.964 33.0286Z" stroke="url(#paint49_linear_2526_2797)" stroke-miterlimit="10"/>
<path d="M109 134.287C168.647 134.287 217 85.9334 217 26.2866C217 -33.3601 168.647 -81.7134 109 -81.7134C49.3533 -81.7134 1 -33.3601 1 26.2866C1 85.9334 49.3533 134.287 109 134.287Z" stroke="url(#paint50_linear_2526_2797)" stroke-miterlimit="10"/>
<defs>
<linearGradient id="paint0_linear_2526_2797" x1="92.407" y1="31.1016" x2="124.894" y2="33.0855" gradientUnits="userSpaceOnUse">
<stop stop-color="#2CEBC7"/>
<stop offset="0.348958" stop-color="#4ABDCC" stop-opacity="0.2"/>
<stop offset="0.65625" stop-color="#8267D5" stop-opacity="0.1"/>
</linearGradient>
<linearGradient id="paint1_linear_2526_2797" x1="91.2762" y1="31.99" x2="125.925" y2="34.11" gradientUnits="userSpaceOnUse">
<stop stop-color="#2CEBC7"/>
<stop offset="0.348958" stop-color="#4ABDCC" stop-opacity="0.2"/>
<stop offset="0.65625" stop-color="#8267D5" stop-opacity="0.1"/>
</linearGradient>
<linearGradient id="paint2_linear_2526_2797" x1="90.1039" y1="32.9504" x2="127.027" y2="35.2765" gradientUnits="userSpaceOnUse">
<stop stop-color="#2CEBC7"/>
<stop offset="0.348958" stop-color="#4ABDCC" stop-opacity="0.2"/>
<stop offset="0.65625" stop-color="#8267D5" stop-opacity="0.1"/>
</linearGradient>
<linearGradient id="paint3_linear_2526_2797" x1="88.7732" y1="34.0312" x2="127.994" y2="36.5792" gradientUnits="userSpaceOnUse">
<stop stop-color="#2CEBC7"/>
<stop offset="0.348958" stop-color="#4ABDCC" stop-opacity="0.2"/>
<stop offset="0.65625" stop-color="#8267D5" stop-opacity="0.1"/>
</linearGradient>
<linearGradient id="paint4_linear_2526_2797" x1="87.5747" y1="35.134" x2="129.123" y2="37.9145" gradientUnits="userSpaceOnUse">
<stop stop-color="#2CEBC7"/>
<stop offset="0.348958" stop-color="#4ABDCC" stop-opacity="0.2"/>
<stop offset="0.65625" stop-color="#8267D5" stop-opacity="0.1"/>
</linearGradient>
<linearGradient id="paint5_linear_2526_2797" x1="86.2185" y1="36.3137" x2="130.174" y2="39.3904" gradientUnits="userSpaceOnUse">
<stop stop-color="#2CEBC7"/>
<stop offset="0.348958" stop-color="#4ABDCC" stop-opacity="0.2"/>
<stop offset="0.65625" stop-color="#8267D5" stop-opacity="0.1"/>
</linearGradient>
<linearGradient id="paint6_linear_2526_2797" x1="84.7826" y1="37.5857" x2="131.424" y2="40.6736" gradientUnits="userSpaceOnUse">
<stop stop-color="#2CEBC7"/>
<stop offset="0.348958" stop-color="#4ABDCC" stop-opacity="0.2"/>
<stop offset="0.65625" stop-color="#8267D5" stop-opacity="0.1"/>
</linearGradient>
<linearGradient id="paint7_linear_2526_2797" x1="83.3368" y1="38.9121" x2="132.766" y2="42.0512" gradientUnits="userSpaceOnUse">
<stop stop-color="#2CEBC7"/>
<stop offset="0.348958" stop-color="#4ABDCC" stop-opacity="0.2"/>
<stop offset="0.65625" stop-color="#8267D5" stop-opacity="0.1"/>
</linearGradient>
<linearGradient id="paint8_linear_2526_2797" x1="81.9639" y1="40.2671" x2="134.161" y2="43.3884" gradientUnits="userSpaceOnUse">
<stop stop-color="#2CEBC7"/>
<stop offset="0.348958" stop-color="#4ABDCC" stop-opacity="0.2"/>
<stop offset="0.65625" stop-color="#8267D5" stop-opacity="0.1"/>
</linearGradient>
<linearGradient id="paint9_linear_2526_2797" x1="80.5059" y1="41.8396" x2="135.561" y2="44.986" gradientUnits="userSpaceOnUse">
<stop stop-color="#2CEBC7"/>
<stop offset="0.348958" stop-color="#4ABDCC" stop-opacity="0.2"/>
<stop offset="0.65625" stop-color="#8267D5" stop-opacity="0.1"/>
</linearGradient>
<linearGradient id="paint10_linear_2526_2797" x1="78.9941" y1="43.3286" x2="137.306" y2="46.2036" gradientUnits="userSpaceOnUse">
<stop stop-color="#2CEBC7"/>
<stop offset="0.348958" stop-color="#4ABDCC" stop-opacity="0.2"/>
<stop offset="0.65625" stop-color="#8267D5" stop-opacity="0.1"/>
</linearGradient>
<linearGradient id="paint11_linear_2526_2797" x1="77.3966" y1="44.9897" x2="138.947" y2="47.5124" gradientUnits="userSpaceOnUse">
<stop stop-color="#2CEBC7"/>
<stop offset="0.348958" stop-color="#4ABDCC" stop-opacity="0.2"/>
<stop offset="0.65625" stop-color="#8267D5" stop-opacity="0.1"/>
</linearGradient>
<linearGradient id="paint12_linear_2526_2797" x1="75.7747" y1="46.6897" x2="140.663" y2="48.8693" gradientUnits="userSpaceOnUse">
<stop stop-color="#2CEBC7"/>
<stop offset="0.348958" stop-color="#4ABDCC" stop-opacity="0.2"/>
<stop offset="0.65625" stop-color="#8267D5" stop-opacity="0.1"/>
</linearGradient>
<linearGradient id="paint13_linear_2526_2797" x1="74.2544" y1="48.4792" x2="142.528" y2="50.2758" gradientUnits="userSpaceOnUse">
<stop stop-color="#2CEBC7"/>
<stop offset="0.348958" stop-color="#4ABDCC" stop-opacity="0.2"/>
<stop offset="0.65625" stop-color="#8267D5" stop-opacity="0.1"/>
</linearGradient>
<linearGradient id="paint14_linear_2526_2797" x1="72.6223" y1="50.4163" x2="144.696" y2="51.4953" gradientUnits="userSpaceOnUse">
<stop stop-color="#2CEBC7"/>
<stop offset="0.348958" stop-color="#4ABDCC" stop-opacity="0.2"/>
<stop offset="0.65625" stop-color="#8267D5" stop-opacity="0.1"/>
</linearGradient>
<linearGradient id="paint15_linear_2526_2797" x1="70.9415" y1="52.3269" x2="147.119" y2="52.2271" gradientUnits="userSpaceOnUse">
<stop stop-color="#2CEBC7"/>
<stop offset="0.348958" stop-color="#4ABDCC" stop-opacity="0.2"/>
<stop offset="0.65625" stop-color="#8267D5" stop-opacity="0.1"/>
</linearGradient>
<linearGradient id="paint16_linear_2526_2797" x1="69.3444" y1="54.2991" x2="149.667" y2="52.9452" gradientUnits="userSpaceOnUse">
<stop stop-color="#2CEBC7"/>
<stop offset="0.348958" stop-color="#4ABDCC" stop-opacity="0.2"/>
<stop offset="0.65625" stop-color="#8267D5" stop-opacity="0.1"/>
</linearGradient>
<linearGradient id="paint17_linear_2526_2797" x1="67.7078" y1="56.3938" x2="152.205" y2="53.709" gradientUnits="userSpaceOnUse">
<stop stop-color="#2CEBC7"/>
<stop offset="0.348958" stop-color="#4ABDCC" stop-opacity="0.2"/>
<stop offset="0.65625" stop-color="#8267D5" stop-opacity="0.1"/>
</linearGradient>
<linearGradient id="paint18_linear_2526_2797" x1="65.9606" y1="58.6433" x2="155.014" y2="54.2327" gradientUnits="userSpaceOnUse">
<stop stop-color="#2CEBC7"/>
<stop offset="0.348958" stop-color="#4ABDCC" stop-opacity="0.2"/>
<stop offset="0.65625" stop-color="#8267D5" stop-opacity="0.1"/>
</linearGradient>
<linearGradient id="paint19_linear_2526_2797" x1="64.384" y1="60.8398" x2="157.907" y2="54.507" gradientUnits="userSpaceOnUse">
<stop stop-color="#2CEBC7"/>
<stop offset="0.348958" stop-color="#4ABDCC" stop-opacity="0.2"/>
<stop offset="0.65625" stop-color="#8267D5" stop-opacity="0.1"/>
</linearGradient>
<linearGradient id="paint20_linear_2526_2797" x1="62.6538" y1="63.0879" x2="161.264" y2="54.0346" gradientUnits="userSpaceOnUse">
<stop stop-color="#2CEBC7"/>
<stop offset="0.348958" stop-color="#4ABDCC" stop-opacity="0.2"/>
<stop offset="0.65625" stop-color="#8267D5" stop-opacity="0.1"/>
</linearGradient>
<linearGradient id="paint21_linear_2526_2797" x1="61.0747" y1="65.5093" x2="164.43" y2="53.9453" gradientUnits="userSpaceOnUse">
<stop stop-color="#2CEBC7"/>
<stop offset="0.348958" stop-color="#4ABDCC" stop-opacity="0.2"/>
<stop offset="0.65625" stop-color="#8267D5" stop-opacity="0.1"/>
</linearGradient>
<linearGradient id="paint22_linear_2526_2797" x1="59.4308" y1="67.8352" x2="167.946" y2="52.8399" gradientUnits="userSpaceOnUse">
<stop stop-color="#2CEBC7"/>
<stop offset="0.348958" stop-color="#4ABDCC" stop-opacity="0.2"/>
<stop offset="0.65625" stop-color="#8267D5" stop-opacity="0.1"/>
</linearGradient>
<linearGradient id="paint23_linear_2526_2797" x1="57.8516" y1="70.3643" x2="171.692" y2="51.4455" gradientUnits="userSpaceOnUse">
<stop stop-color="#2CEBC7"/>
<stop offset="0.348958" stop-color="#4ABDCC" stop-opacity="0.2"/>
<stop offset="0.65625" stop-color="#8267D5" stop-opacity="0.1"/>
</linearGradient>
<linearGradient id="paint24_linear_2526_2797" x1="56.3005" y1="72.8484" x2="175.229" y2="49.7726" gradientUnits="userSpaceOnUse">
<stop stop-color="#2CEBC7"/>
<stop offset="0.348958" stop-color="#4ABDCC" stop-opacity="0.2"/>
<stop offset="0.65625" stop-color="#8267D5" stop-opacity="0.1"/>
</linearGradient>
<linearGradient id="paint25_linear_2526_2797" x1="54.7678" y1="75.3101" x2="179.059" y2="47.1878" gradientUnits="userSpaceOnUse">
<stop stop-color="#2CEBC7"/>
<stop offset="0.348958" stop-color="#4ABDCC" stop-opacity="0.2"/>
<stop offset="0.65625" stop-color="#8267D5" stop-opacity="0.1"/>
</linearGradient>
<linearGradient id="paint26_linear_2526_2797" x1="53.3007" y1="77.8853" x2="182.795" y2="44.1559" gradientUnits="userSpaceOnUse">
<stop stop-color="#2CEBC7"/>
<stop offset="0.348958" stop-color="#4ABDCC" stop-opacity="0.2"/>
<stop offset="0.65625" stop-color="#8267D5" stop-opacity="0.1"/>
</linearGradient>
<linearGradient id="paint27_linear_2526_2797" x1="51.8215" y1="80.491" x2="186.5" y2="40.2834" gradientUnits="userSpaceOnUse">
<stop stop-color="#2CEBC7"/>
<stop offset="0.348958" stop-color="#4ABDCC" stop-opacity="0.2"/>
<stop offset="0.65625" stop-color="#8267D5" stop-opacity="0.1"/>
</linearGradient>
<linearGradient id="paint28_linear_2526_2797" x1="50.5055" y1="83.0112" x2="189.851" y2="36.1074" gradientUnits="userSpaceOnUse">
<stop stop-color="#2CEBC7"/>
<stop offset="0.348958" stop-color="#4ABDCC" stop-opacity="0.2"/>
<stop offset="0.65625" stop-color="#8267D5" stop-opacity="0.1"/>
</linearGradient>
<linearGradient id="paint29_linear_2526_2797" x1="49.1295" y1="85.5481" x2="193.033" y2="30.8248" gradientUnits="userSpaceOnUse">
<stop stop-color="#2CEBC7"/>
<stop offset="0.348958" stop-color="#4ABDCC" stop-opacity="0.2"/>
<stop offset="0.65625" stop-color="#8267D5" stop-opacity="0.1"/>
</linearGradient>
<linearGradient id="paint30_linear_2526_2797" x1="47.8679" y1="88.0491" x2="195.907" y2="24.7742" gradientUnits="userSpaceOnUse">
<stop stop-color="#2CEBC7"/>
<stop offset="0.348958" stop-color="#4ABDCC" stop-opacity="0.2"/>
<stop offset="0.65625" stop-color="#8267D5" stop-opacity="0.1"/>
</linearGradient>
<linearGradient id="paint31_linear_2526_2797" x1="46.691" y1="90.6067" x2="198.289" y2="18.4367" gradientUnits="userSpaceOnUse">
<stop stop-color="#2CEBC7"/>
<stop offset="0.348958" stop-color="#4ABDCC" stop-opacity="0.2"/>
<stop offset="0.65625" stop-color="#8267D5" stop-opacity="0.1"/>
</linearGradient>
<linearGradient id="paint32_linear_2526_2797" x1="45.4878" y1="93.0088" x2="199.876" y2="10.8159" gradientUnits="userSpaceOnUse">
<stop stop-color="#2CEBC7"/>
<stop offset="0.348958" stop-color="#4ABDCC" stop-opacity="0.2"/>
<stop offset="0.65625" stop-color="#8267D5" stop-opacity="0.1"/>
</linearGradient>
<linearGradient id="paint33_linear_2526_2797" x1="44.3981" y1="95.4797" x2="200.835" y2="3.14026" gradientUnits="userSpaceOnUse">
<stop stop-color="#2CEBC7"/>
<stop offset="0.348958" stop-color="#4ABDCC" stop-opacity="0.2"/>
<stop offset="0.65625" stop-color="#8267D5" stop-opacity="0.1"/>
</linearGradient>
<linearGradient id="paint34_linear_2526_2797" x1="43.2092" y1="97.8083" x2="200.768" y2="-5.45087" gradientUnits="userSpaceOnUse">
<stop stop-color="#2CEBC7"/>
<stop offset="0.348958" stop-color="#4ABDCC" stop-opacity="0.2"/>
<stop offset="0.65625" stop-color="#8267D5" stop-opacity="0.1"/>
</linearGradient>
<linearGradient id="paint35_linear_2526_2797" x1="42.13" y1="100.123" x2="199.815" y2="-14.5618" gradientUnits="userSpaceOnUse">
<stop stop-color="#2CEBC7"/>
<stop offset="0.348958" stop-color="#4ABDCC" stop-opacity="0.2"/>
<stop offset="0.65625" stop-color="#8267D5" stop-opacity="0.1"/>
</linearGradient>
<linearGradient id="paint36_linear_2526_2797" x1="41.0759" y1="102.274" x2="197.725" y2="-23.9281" gradientUnits="userSpaceOnUse">
<stop stop-color="#2CEBC7"/>
<stop offset="0.348958" stop-color="#4ABDCC" stop-opacity="0.2"/>
<stop offset="0.65625" stop-color="#8267D5" stop-opacity="0.1"/>
</linearGradient>
<linearGradient id="paint37_linear_2526_2797" x1="39.9293" y1="104.349" x2="194.388" y2="-33.6135" gradientUnits="userSpaceOnUse">
<stop stop-color="#2CEBC7"/>
<stop offset="0.348958" stop-color="#4ABDCC" stop-opacity="0.2"/>
<stop offset="0.65625" stop-color="#8267D5" stop-opacity="0.1"/>
</linearGradient>
<linearGradient id="paint38_linear_2526_2797" x1="38.7091" y1="106.356" x2="189.756" y2="-43.1699" gradientUnits="userSpaceOnUse">
<stop stop-color="#2CEBC7"/>
<stop offset="0.348958" stop-color="#4ABDCC" stop-opacity="0.2"/>
<stop offset="0.65625" stop-color="#8267D5" stop-opacity="0.1"/>
</linearGradient>
<linearGradient id="paint39_linear_2526_2797" x1="37.3873" y1="108.274" x2="183.711" y2="-52.7678" gradientUnits="userSpaceOnUse">
<stop stop-color="#2CEBC7"/>
<stop offset="0.348958" stop-color="#4ABDCC" stop-opacity="0.2"/>
<stop offset="0.65625" stop-color="#8267D5" stop-opacity="0.1"/>
</linearGradient>
<linearGradient id="paint40_linear_2526_2797" x1="35.978" y1="110.043" x2="176.426" y2="-61.9929" gradientUnits="userSpaceOnUse">
<stop stop-color="#2CEBC7"/>
<stop offset="0.348958" stop-color="#4ABDCC" stop-opacity="0.2"/>
<stop offset="0.65625" stop-color="#8267D5" stop-opacity="0.1"/>
</linearGradient>
<linearGradient id="paint41_linear_2526_2797" x1="34.3414" y1="111.774" x2="167.715" y2="-70.7726" gradientUnits="userSpaceOnUse">
<stop stop-color="#2CEBC7"/>
<stop offset="0.348958" stop-color="#4ABDCC" stop-opacity="0.2"/>
<stop offset="0.65625" stop-color="#8267D5" stop-opacity="0.1"/>
</linearGradient>
<linearGradient id="paint42_linear_2526_2797" x1="32.439" y1="113.391" x2="157.668" y2="-78.9659" gradientUnits="userSpaceOnUse">
<stop stop-color="#2CEBC7"/>
<stop offset="0.348958" stop-color="#4ABDCC" stop-opacity="0.2"/>
<stop offset="0.65625" stop-color="#8267D5" stop-opacity="0.1"/>
</linearGradient>
<linearGradient id="paint43_linear_2526_2797" x1="30.1239" y1="115.038" x2="146.324" y2="-86.3694" gradientUnits="userSpaceOnUse">
<stop stop-color="#2CEBC7"/>
<stop offset="0.348958" stop-color="#4ABDCC" stop-opacity="0.2"/>
<stop offset="0.65625" stop-color="#8267D5" stop-opacity="0.1"/>
</linearGradient>
<linearGradient id="paint44_linear_2526_2797" x1="27.5072" y1="116.681" x2="133.872" y2="-92.8458" gradientUnits="userSpaceOnUse">
<stop stop-color="#2CEBC7"/>
<stop offset="0.348958" stop-color="#4ABDCC" stop-opacity="0.2"/>
<stop offset="0.65625" stop-color="#8267D5" stop-opacity="0.1"/>
</linearGradient>
<linearGradient id="paint45_linear_2526_2797" x1="24.3423" y1="118.344" x2="120.166" y2="-98.2732" gradientUnits="userSpaceOnUse">
<stop stop-color="#2CEBC7"/>
<stop offset="0.348958" stop-color="#4ABDCC" stop-opacity="0.2"/>
<stop offset="0.65625" stop-color="#8267D5" stop-opacity="0.1"/>
</linearGradient>
<linearGradient id="paint46_linear_2526_2797" x1="20.4882" y1="120.203" x2="105.315" y2="-102.663" gradientUnits="userSpaceOnUse">
<stop stop-color="#2CEBC7"/>
<stop offset="0.348958" stop-color="#4ABDCC" stop-opacity="0.2"/>
<stop offset="0.65625" stop-color="#8267D5" stop-opacity="0.1"/>
</linearGradient>
<linearGradient id="paint47_linear_2526_2797" x1="16.0167" y1="122.188" x2="89.5238" y2="-105.925" gradientUnits="userSpaceOnUse">
<stop stop-color="#2CEBC7"/>
<stop offset="0.348958" stop-color="#4ABDCC" stop-opacity="0.2"/>
<stop offset="0.65625" stop-color="#8267D5" stop-opacity="0.1"/>
</linearGradient>
<linearGradient id="paint48_linear_2526_2797" x1="10.6666" y1="124.517" x2="72.6152" y2="-107.814" gradientUnits="userSpaceOnUse">
<stop stop-color="#2CEBC7"/>
<stop offset="0.348958" stop-color="#4ABDCC" stop-opacity="0.2"/>
<stop offset="0.65625" stop-color="#8267D5" stop-opacity="0.1"/>
</linearGradient>
<linearGradient id="paint49_linear_2526_2797" x1="4.5199" y1="127.21" x2="54.9345" y2="-108.61" gradientUnits="userSpaceOnUse">
<stop stop-color="#2CEBC7"/>
<stop offset="0.348958" stop-color="#4ABDCC" stop-opacity="0.2"/>
<stop offset="0.65625" stop-color="#8267D5" stop-opacity="0.1"/>
</linearGradient>
<linearGradient id="paint50_linear_2526_2797" x1="1" y1="-81.7134" x2="240.652" y2="-51.1455" gradientUnits="userSpaceOnUse">
<stop stop-color="#2CEBC7"/>
<stop offset="0.348958" stop-color="#4ABDCC" stop-opacity="0.2"/>
<stop offset="0.65625" stop-color="#8267D5" stop-opacity="0.1"/>
</linearGradient>
</defs>
</svg>
