<svg width="156" height="145" viewBox="0 0 210 160" fill="none" xmlns="http://www.w3.org/2000/svg">
<path d="M243.952 -67.6829C242.364 -69.2712 204.669 -34.1517 159.759 10.7586C114.849 55.6689 79.7293 93.3634 81.3175 94.9516C82.9057 96.5399 120.6 61.4204 165.511 16.5101C210.421 -28.4002 245.54 -66.0947 243.952 -67.6829Z" stroke="url(#paint0_linear_2526_501)" stroke-miterlimit="10"/>
<path d="M243.952 -67.6827C242.217 -69.4176 204.404 -34.417 159.494 10.4933C114.583 55.4036 79.5827 93.217 81.3175 94.9518C83.0524 96.6867 120.866 61.686 165.776 16.7757C210.686 -28.1346 245.687 -65.9479 243.952 -67.6827Z" stroke="url(#paint1_linear_2526_501)" stroke-miterlimit="10"/>
<path d="M243.952 -67.6828C242.07 -69.5643 204.138 -34.6825 159.228 10.2278C114.318 55.1381 79.4359 93.0703 81.3173 94.9517C83.1988 96.8332 121.131 61.9514 166.041 17.0411C210.952 -27.8692 245.833 -65.8014 243.952 -67.6828Z" stroke="url(#paint2_linear_2526_501)" stroke-miterlimit="10"/>
<path d="M243.952 -67.6827C241.9 -69.7352 203.829 -34.9921 158.918 9.91823C114.008 54.8285 79.265 92.8994 81.3175 94.9519C83.3699 97.0043 121.441 62.2612 166.351 17.3509C211.261 -27.5594 246.004 -65.6302 243.952 -67.6827Z" stroke="url(#paint3_linear_2526_501)" stroke-miterlimit="10"/>
<path d="M243.952 -67.6828C241.728 -69.9064 203.519 -35.3019 158.609 9.60841C113.698 54.5187 79.0939 92.7282 81.3175 94.9517C83.541 97.1753 121.75 62.5708 166.661 17.6605C211.571 -27.2498 246.176 -65.4593 243.952 -67.6828Z" stroke="url(#paint4_linear_2526_501)" stroke-miterlimit="10"/>
<path d="M243.952 -67.6828C241.533 -70.1018 203.165 -35.6558 158.255 9.25453C113.345 54.1648 78.8985 92.5328 81.3175 94.9518C83.7365 97.3708 122.104 62.9248 167.015 18.0145C211.925 -26.8958 246.371 -65.2638 243.952 -67.6828Z" stroke="url(#paint5_linear_2526_501)" stroke-miterlimit="10"/>
<path d="M243.952 -67.6828C241.313 -70.3217 202.767 -36.0539 157.857 8.85636C112.946 53.7667 78.6786 92.3129 81.3175 94.9518C83.9564 97.5907 122.503 63.323 167.413 18.4127C212.323 -26.4976 246.591 -65.0438 243.952 -67.6828Z" stroke="url(#paint6_linear_2526_501)" stroke-miterlimit="10"/>
<path d="M243.952 -67.6827C241.093 -70.5416 202.369 -36.4521 157.458 8.4582C112.548 53.3685 78.4586 92.093 81.3174 94.9518C84.1762 97.8106 122.901 63.7212 167.811 18.8109C212.721 -26.0994 246.811 -64.8239 243.952 -67.6827Z" stroke="url(#paint7_linear_2526_501)" stroke-miterlimit="10"/>
<path d="M243.952 -67.6828C240.849 -70.7859 201.926 -36.8946 157.016 8.01574C112.106 52.926 78.2144 91.8486 81.3175 94.9518C84.4207 98.055 123.343 64.1636 168.254 19.2533C213.164 -25.657 247.055 -64.5796 243.952 -67.6828Z" stroke="url(#paint8_linear_2526_501)" stroke-miterlimit="10"/>
<path d="M243.952 -67.6827C240.556 -71.0791 201.395 -37.4254 156.485 7.48493C111.575 52.3952 77.9211 91.5555 81.3175 94.9519C84.7139 98.3483 123.874 64.6946 168.784 19.7843C213.695 -25.126 247.348 -64.2863 243.952 -67.6827Z" stroke="url(#paint9_linear_2526_501)" stroke-miterlimit="10"/>
<path d="M243.952 -67.6828C240.262 -71.3724 200.864 -37.9564 155.954 6.95388C111.044 51.8642 77.6279 91.2622 81.3175 94.9517C85.0071 98.6413 124.405 65.2253 169.315 20.315C214.226 -24.5953 247.642 -63.9932 243.952 -67.6828Z" stroke="url(#paint10_linear_2526_501)" stroke-miterlimit="10"/>
<path d="M243.952 -67.6828C239.945 -71.69 200.289 -38.5315 155.379 6.37877C110.469 51.2891 77.3103 90.9446 81.3175 94.9518C85.3247 98.959 124.98 65.8005 169.891 20.8902C214.801 -24.0201 247.959 -63.6755 243.952 -67.6828Z" stroke="url(#paint11_linear_2526_501)" stroke-miterlimit="10"/>
<path d="M243.952 -67.6828C239.603 -72.0321 199.67 -39.1509 154.76 5.75937C109.849 50.6697 76.9682 90.6025 81.3175 94.9518C85.6668 99.3011 125.6 66.4199 170.51 21.5096C215.42 -23.4007 248.301 -63.3335 243.952 -67.6828Z" stroke="url(#paint12_linear_2526_501)" stroke-miterlimit="10"/>
<path d="M243.952 -67.6829C239.236 -72.3987 199.006 -39.8146 154.096 5.09568C109.186 50.006 76.6016 90.2359 81.3174 94.9517C86.0333 99.6675 126.263 67.0835 171.173 22.1732C216.084 -22.7371 248.668 -62.967 243.952 -67.6829Z" stroke="url(#paint13_linear_2526_501)" stroke-miterlimit="10"/>
<path d="M243.952 -67.6828C238.821 -72.814 198.254 -40.5667 153.344 4.34364C108.434 49.2539 76.1863 89.8206 81.3175 94.9518C86.4487 100.083 127.015 67.8357 171.926 22.9254C216.836 -21.9849 249.083 -62.5516 243.952 -67.6828Z" stroke="url(#paint14_linear_2526_501)" stroke-miterlimit="10"/>
<path d="M243.952 -67.6828C238.357 -73.2783 197.414 -41.4073 152.503 3.50301C107.593 48.4133 75.7222 89.3563 81.3176 94.9518C86.9131 100.547 127.856 68.6763 172.766 23.766C217.677 -21.1443 249.548 -62.0873 243.952 -67.6828Z" stroke="url(#paint15_linear_2526_501)" stroke-miterlimit="10"/>
<path d="M243.952 -67.6828C237.892 -73.7425 196.573 -42.2479 151.663 2.66238C106.752 47.5727 75.2578 88.892 81.3175 94.9517C87.3772 101.011 128.697 69.5168 173.607 24.6065C218.517 -20.3038 250.012 -61.6231 243.952 -67.6828Z" stroke="url(#paint16_linear_2526_501)" stroke-miterlimit="10"/>
<path d="M243.952 -67.6828C237.355 -74.28 195.6 -43.2212 150.689 1.68911C105.779 46.5994 74.7201 88.3545 81.3174 94.9518C87.9147 101.549 129.67 70.4902 174.58 25.5799C219.49 -19.3304 250.549 -61.0855 243.952 -67.6828Z" stroke="url(#paint17_linear_2526_501)" stroke-miterlimit="10"/>
<path d="M243.952 -67.6828C236.793 -74.842 194.582 -44.2388 149.672 0.671541C104.761 45.5818 74.1581 87.7926 81.3174 94.9518C88.4767 102.111 130.687 71.5078 175.598 26.5975C220.508 -18.3128 251.111 -60.5235 243.952 -67.6828Z" stroke="url(#paint18_linear_2526_501)" stroke-miterlimit="10"/>
<path d="M243.952 -67.6827C236.157 -75.4772 193.432 -45.389 148.521 -0.478665C103.611 44.4316 73.523 87.1574 81.3175 94.9519C89.1121 102.746 131.838 72.6582 176.748 27.7479C221.658 -17.1624 251.747 -59.8881 243.952 -67.6827Z" stroke="url(#paint19_linear_2526_501)" stroke-miterlimit="10"/>
<path d="M243.952 -67.6829C235.473 -76.1616 192.193 -46.628 147.283 -1.7177C102.372 43.1926 72.8388 86.4729 81.3175 94.9516C89.7962 103.43 133.077 73.8967 177.987 28.9864C222.897 -15.9239 252.431 -59.2042 243.952 -67.6829Z" stroke="url(#paint20_linear_2526_501)" stroke-miterlimit="10"/>
<path d="M243.952 -67.6828C234.74 -76.8945 190.866 -47.9552 145.955 -3.04485C101.045 41.8654 72.1057 85.74 81.3175 94.9518C90.5292 104.164 134.404 75.2241 179.314 30.3138C224.224 -14.5965 253.164 -58.4711 243.952 -67.6828Z" stroke="url(#paint21_linear_2526_501)" stroke-miterlimit="10"/>
<path d="M243.952 -67.6828C233.934 -77.7009 189.406 -49.4152 144.495 -4.50488C99.5851 40.4054 71.2994 84.9337 81.3175 94.9517C91.3355 104.97 135.864 76.6841 180.774 31.7738C225.684 -13.1365 253.97 -57.6648 243.952 -67.6828Z" stroke="url(#paint22_linear_2526_501)" stroke-miterlimit="10"/>
<path d="M243.952 -67.6827C233.079 -78.556 187.857 -50.9636 142.947 -6.05325C98.0366 38.857 70.4442 84.0786 81.3174 94.9518C92.1907 105.825 137.412 78.2327 182.323 33.3224C227.233 -11.5879 254.825 -56.8095 243.952 -67.6827Z" stroke="url(#paint23_linear_2526_501)" stroke-miterlimit="10"/>
<path d="M243.952 -67.6828C232.126 -79.509 186.132 -52.6891 141.221 -7.77881C96.3112 37.1315 69.4912 83.1255 81.3175 94.9517C93.1437 106.778 139.138 79.958 184.048 35.0477C228.958 -9.8626 255.778 -55.8566 243.952 -67.6828Z" stroke="url(#paint24_linear_2526_501)" stroke-miterlimit="10"/>
<path d="M243.952 -67.6829C231.1 -80.5353 184.274 -54.5473 139.363 -9.63699C94.453 35.2733 68.465 82.0993 81.3174 94.9517C94.1699 107.804 140.996 81.8162 185.906 36.9059C230.816 -8.00444 256.804 -54.8304 243.952 -67.6829Z" stroke="url(#paint25_linear_2526_501)" stroke-miterlimit="10"/>
<path d="M243.952 -67.6828C229.976 -81.6593 182.238 -56.5824 137.328 -11.6721C92.4179 33.2382 67.341 80.9753 81.3174 94.9517C95.2939 108.928 143.031 83.8513 187.941 38.941C232.852 -5.96929 257.928 -53.7064 243.952 -67.6828Z" stroke="url(#paint26_linear_2526_501)" stroke-miterlimit="10"/>
<path d="M243.952 -67.6828C228.754 -82.8809 180.026 -58.7945 135.116 -13.8842C90.2058 31.0261 66.1193 79.7536 81.3175 94.9518C96.5156 110.15 145.243 86.0635 190.153 41.1532C235.064 -3.75713 259.15 -52.4846 243.952 -67.6828Z" stroke="url(#paint27_linear_2526_501)" stroke-miterlimit="10"/>
<path d="M243.952 -67.6827C227.435 -84.2003 177.637 -61.1835 132.727 -16.2732C87.8168 28.6371 64.8 78.4342 81.3176 94.9519C97.8352 111.469 147.632 88.4526 192.543 43.5423C237.453 -1.36797 260.47 -51.1651 243.952 -67.6827Z" stroke="url(#paint28_linear_2526_501)" stroke-miterlimit="10"/>
<path d="M243.952 -67.6829C226.017 -85.6176 175.071 -63.7497 130.161 -18.8394C85.2507 26.0709 63.3828 77.0169 81.3176 94.9517C99.2524 112.887 150.198 91.0185 195.109 46.1083C240.019 1.19795 261.887 -49.7481 243.952 -67.6829Z" stroke="url(#paint29_linear_2526_501)" stroke-miterlimit="10"/>
<path d="M243.952 -67.6828C224.453 -87.1814 172.24 -66.5812 127.329 -21.6709C82.4191 23.2394 61.8189 75.4532 81.3175 94.9518C100.816 114.45 153.03 93.8501 197.94 48.9398C242.85 4.02949 263.451 -48.1842 243.952 -67.6828Z" stroke="url(#paint30_linear_2526_501)" stroke-miterlimit="10"/>
<path d="M243.952 -67.6828C222.743 -88.8918 169.143 -69.6782 124.232 -24.7679C79.3221 20.1424 60.1084 73.7427 81.3174 94.9517C102.526 116.161 156.127 96.947 201.037 52.0367C245.947 7.12641 265.161 -46.4739 243.952 -67.6828Z" stroke="url(#paint31_linear_2526_501)" stroke-miterlimit="10"/>
<path d="M243.952 -67.6829C220.91 -90.7245 165.825 -72.9964 120.914 -28.0861C76.004 16.8242 58.2759 71.9101 81.3175 94.9517C104.359 117.993 159.445 100.265 204.355 55.3548C249.266 10.4445 266.994 -44.6413 243.952 -67.6829Z" stroke="url(#paint32_linear_2526_501)" stroke-miterlimit="10"/>
<path d="M243.952 -67.6828C218.907 -92.728 162.197 -76.6242 117.286 -31.7139C72.3761 13.1964 56.2723 69.9065 81.3174 94.9517C106.363 119.997 163.073 103.893 207.983 58.9828C252.893 14.0725 268.997 -42.6377 243.952 -67.6828Z" stroke="url(#paint33_linear_2526_501)" stroke-miterlimit="10"/>
<path d="M243.952 -67.6827C216.732 -94.9025 158.259 -80.5616 113.349 -35.6513C68.4386 9.25904 54.0977 67.7321 81.3175 94.9519C108.537 122.172 167.01 107.831 211.921 62.9205C256.831 18.0102 271.172 -40.4628 243.952 -67.6827Z" stroke="url(#paint34_linear_2526_501)" stroke-miterlimit="10"/>
<path d="M243.952 -67.6829C214.362 -97.2729 153.968 -84.8533 109.057 -39.943C64.1471 4.96731 51.7275 65.3617 81.3175 94.9517C110.907 124.542 171.302 112.122 216.212 67.2118C261.122 22.3015 273.542 -38.0929 243.952 -67.6829Z" stroke="url(#paint35_linear_2526_501)" stroke-miterlimit="10"/>
<path d="M243.952 -67.6828C211.796 -99.8384 149.322 -89.4987 104.412 -44.5884C59.5016 0.321944 49.1619 62.7962 81.3175 94.9517C113.473 127.107 175.947 116.768 220.858 71.8573C265.768 26.947 276.108 -35.5273 243.952 -67.6828Z" stroke="url(#paint36_linear_2526_501)" stroke-miterlimit="10"/>
<path d="M243.952 -67.6828C208.986 -102.648 144.234 -94.5865 99.3241 -49.6762C54.4138 -4.76588 46.352 59.9862 81.3175 94.9518C116.283 129.917 181.035 121.855 225.945 76.9452C270.856 32.0349 278.918 -32.7173 243.952 -67.6828Z" stroke="url(#paint37_linear_2526_501)" stroke-miterlimit="10"/>
<path d="M243.952 -67.6828C205.957 -105.678 138.748 -100.072 93.8381 -55.1622C48.9278 -10.2519 43.3221 56.9564 81.3175 94.9518C119.313 132.947 186.521 127.342 231.432 82.4312C276.342 37.5209 281.947 -29.6874 243.952 -67.6828Z" stroke="url(#paint38_linear_2526_501)" stroke-miterlimit="10"/>
<path d="M243.952 -67.6829C202.634 -109.001 132.731 -106.09 87.8211 -61.1792C42.9109 -16.2689 39.9991 53.6333 81.3175 94.9517C122.636 136.27 192.538 133.358 237.448 88.4481C282.359 43.5378 285.271 -26.3644 243.952 -67.6829Z" stroke="url(#paint39_linear_2526_501)" stroke-miterlimit="10"/>
<path d="M243.952 -67.6828C199.042 -112.593 126.228 -112.593 81.3175 -67.6828C36.4072 -22.7725 36.4072 50.0415 81.3175 94.9518C126.228 139.862 199.042 139.862 243.952 94.9518C288.862 50.0415 288.862 -22.7725 243.952 -67.6828Z" stroke="url(#paint40_linear_2526_501)" stroke-miterlimit="10"/>
<defs>
<linearGradient id="paint0_linear_2526_501" x1="84.1932" y1="97.8274" x2="77.7375" y2="91.3132" gradientUnits="userSpaceOnUse">
<stop stop-color="#2CEBC7"/>
<stop offset="0.348958" stop-color="#4ABDCC" stop-opacity="0.2"/>
<stop offset="0.65625" stop-color="#8267D5" stop-opacity="0.1"/>
</linearGradient>
<linearGradient id="paint1_linear_2526_501" x1="84.4587" y1="98.093" x2="77.4101" y2="90.9746" gradientUnits="userSpaceOnUse">
<stop stop-color="#2CEBC7"/>
<stop offset="0.348958" stop-color="#4ABDCC" stop-opacity="0.2"/>
<stop offset="0.65625" stop-color="#8267D5" stop-opacity="0.1"/>
</linearGradient>
<linearGradient id="paint2_linear_2526_501" x1="84.724" y1="98.3584" x2="77.0829" y2="90.6352" gradientUnits="userSpaceOnUse">
<stop stop-color="#2CEBC7"/>
<stop offset="0.348958" stop-color="#4ABDCC" stop-opacity="0.2"/>
<stop offset="0.65625" stop-color="#8267D5" stop-opacity="0.1"/>
</linearGradient>
<linearGradient id="paint3_linear_2526_501" x1="85.0338" y1="98.6682" x2="76.7022" y2="90.2389" gradientUnits="userSpaceOnUse">
<stop stop-color="#2CEBC7"/>
<stop offset="0.348958" stop-color="#4ABDCC" stop-opacity="0.2"/>
<stop offset="0.65625" stop-color="#8267D5" stop-opacity="0.1"/>
</linearGradient>
<linearGradient id="paint4_linear_2526_501" x1="85.3435" y1="98.9778" x2="76.3221" y2="89.8417" gradientUnits="userSpaceOnUse">
<stop stop-color="#2CEBC7"/>
<stop offset="0.348958" stop-color="#4ABDCC" stop-opacity="0.2"/>
<stop offset="0.65625" stop-color="#8267D5" stop-opacity="0.1"/>
</linearGradient>
<linearGradient id="paint5_linear_2526_501" x1="85.6975" y1="99.3318" x2="75.8885" y2="89.3871" gradientUnits="userSpaceOnUse">
<stop stop-color="#2CEBC7"/>
<stop offset="0.348958" stop-color="#4ABDCC" stop-opacity="0.2"/>
<stop offset="0.65625" stop-color="#8267D5" stop-opacity="0.1"/>
</linearGradient>
<linearGradient id="paint6_linear_2526_501" x1="86.0957" y1="99.73" x2="75.4018" y2="88.8746" gradientUnits="userSpaceOnUse">
<stop stop-color="#2CEBC7"/>
<stop offset="0.348958" stop-color="#4ABDCC" stop-opacity="0.2"/>
<stop offset="0.65625" stop-color="#8267D5" stop-opacity="0.1"/>
</linearGradient>
<linearGradient id="paint7_linear_2526_501" x1="86.4938" y1="100.128" x2="74.9161" y2="88.361" gradientUnits="userSpaceOnUse">
<stop stop-color="#2CEBC7"/>
<stop offset="0.348958" stop-color="#4ABDCC" stop-opacity="0.2"/>
<stop offset="0.65625" stop-color="#8267D5" stop-opacity="0.1"/>
</linearGradient>
<linearGradient id="paint8_linear_2526_501" x1="86.9363" y1="100.571" x2="74.378" y2="87.789" gradientUnits="userSpaceOnUse">
<stop stop-color="#2CEBC7"/>
<stop offset="0.348958" stop-color="#4ABDCC" stop-opacity="0.2"/>
<stop offset="0.65625" stop-color="#8267D5" stop-opacity="0.1"/>
</linearGradient>
<linearGradient id="paint9_linear_2526_501" x1="87.4672" y1="101.102" x2="73.7341" y2="87.1009" gradientUnits="userSpaceOnUse">
<stop stop-color="#2CEBC7"/>
<stop offset="0.348958" stop-color="#4ABDCC" stop-opacity="0.2"/>
<stop offset="0.65625" stop-color="#8267D5" stop-opacity="0.1"/>
</linearGradient>
<linearGradient id="paint10_linear_2526_501" x1="87.998" y1="101.632" x2="73.0922" y2="86.4107" gradientUnits="userSpaceOnUse">
<stop stop-color="#2CEBC7"/>
<stop offset="0.348958" stop-color="#4ABDCC" stop-opacity="0.2"/>
<stop offset="0.65625" stop-color="#8267D5" stop-opacity="0.1"/>
</linearGradient>
<linearGradient id="paint11_linear_2526_501" x1="88.5732" y1="102.208" x2="72.3991" y2="85.661" gradientUnits="userSpaceOnUse">
<stop stop-color="#2CEBC7"/>
<stop offset="0.348958" stop-color="#4ABDCC" stop-opacity="0.2"/>
<stop offset="0.65625" stop-color="#8267D5" stop-opacity="0.1"/>
</linearGradient>
<linearGradient id="paint12_linear_2526_501" x1="89.1926" y1="102.827" x2="71.6555" y2="84.8511" gradientUnits="userSpaceOnUse">
<stop stop-color="#2CEBC7"/>
<stop offset="0.348958" stop-color="#4ABDCC" stop-opacity="0.2"/>
<stop offset="0.65625" stop-color="#8267D5" stop-opacity="0.1"/>
</linearGradient>
<linearGradient id="paint13_linear_2526_501" x1="89.8562" y1="103.49" x2="70.8617" y2="83.9803" gradientUnits="userSpaceOnUse">
<stop stop-color="#2CEBC7"/>
<stop offset="0.348958" stop-color="#4ABDCC" stop-opacity="0.2"/>
<stop offset="0.65625" stop-color="#8267D5" stop-opacity="0.1"/>
</linearGradient>
<linearGradient id="paint14_linear_2526_501" x1="90.6084" y1="104.243" x2="69.9662" y2="82.99" gradientUnits="userSpaceOnUse">
<stop stop-color="#2CEBC7"/>
<stop offset="0.348958" stop-color="#4ABDCC" stop-opacity="0.2"/>
<stop offset="0.65625" stop-color="#8267D5" stop-opacity="0.1"/>
</linearGradient>
<linearGradient id="paint15_linear_2526_501" x1="91.4491" y1="105.083" x2="68.9703" y2="81.8785" gradientUnits="userSpaceOnUse">
<stop stop-color="#2CEBC7"/>
<stop offset="0.348958" stop-color="#4ABDCC" stop-opacity="0.2"/>
<stop offset="0.65625" stop-color="#8267D5" stop-opacity="0.1"/>
</linearGradient>
<linearGradient id="paint16_linear_2526_501" x1="92.2896" y1="105.924" x2="67.9794" y2="80.7623" gradientUnits="userSpaceOnUse">
<stop stop-color="#2CEBC7"/>
<stop offset="0.348958" stop-color="#4ABDCC" stop-opacity="0.2"/>
<stop offset="0.65625" stop-color="#8267D5" stop-opacity="0.1"/>
</linearGradient>
<linearGradient id="paint17_linear_2526_501" x1="93.2628" y1="106.897" x2="66.8387" y2="79.464" gradientUnits="userSpaceOnUse">
<stop stop-color="#2CEBC7"/>
<stop offset="0.348958" stop-color="#4ABDCC" stop-opacity="0.2"/>
<stop offset="0.65625" stop-color="#8267D5" stop-opacity="0.1"/>
</linearGradient>
<linearGradient id="paint18_linear_2526_501" x1="94.2804" y1="107.915" x2="65.6538" y2="78.0999" gradientUnits="userSpaceOnUse">
<stop stop-color="#2CEBC7"/>
<stop offset="0.348958" stop-color="#4ABDCC" stop-opacity="0.2"/>
<stop offset="0.65625" stop-color="#8267D5" stop-opacity="0.1"/>
</linearGradient>
<linearGradient id="paint19_linear_2526_501" x1="95.4308" y1="109.065" x2="64.3237" y2="76.5497" gradientUnits="userSpaceOnUse">
<stop stop-color="#2CEBC7"/>
<stop offset="0.348958" stop-color="#4ABDCC" stop-opacity="0.2"/>
<stop offset="0.65625" stop-color="#8267D5" stop-opacity="0.1"/>
</linearGradient>
<linearGradient id="paint20_linear_2526_501" x1="96.6696" y1="110.304" x2="62.9023" y2="74.8701" gradientUnits="userSpaceOnUse">
<stop stop-color="#2CEBC7"/>
<stop offset="0.348958" stop-color="#4ABDCC" stop-opacity="0.2"/>
<stop offset="0.65625" stop-color="#8267D5" stop-opacity="0.1"/>
</linearGradient>
<linearGradient id="paint21_linear_2526_501" x1="97.9968" y1="111.631" x2="61.3923" y2="73.0598" gradientUnits="userSpaceOnUse">
<stop stop-color="#2CEBC7"/>
<stop offset="0.348958" stop-color="#4ABDCC" stop-opacity="0.2"/>
<stop offset="0.65625" stop-color="#8267D5" stop-opacity="0.1"/>
</linearGradient>
<linearGradient id="paint22_linear_2526_501" x1="99.4568" y1="113.091" x2="59.7468" y2="71.0552" gradientUnits="userSpaceOnUse">
<stop stop-color="#2CEBC7"/>
<stop offset="0.348958" stop-color="#4ABDCC" stop-opacity="0.2"/>
<stop offset="0.65625" stop-color="#8267D5" stop-opacity="0.1"/>
</linearGradient>
<linearGradient id="paint23_linear_2526_501" x1="101.005" y1="114.64" x2="58.0193" y2="68.9142" gradientUnits="userSpaceOnUse">
<stop stop-color="#2CEBC7"/>
<stop offset="0.348958" stop-color="#4ABDCC" stop-opacity="0.2"/>
<stop offset="0.65625" stop-color="#8267D5" stop-opacity="0.1"/>
</linearGradient>
<linearGradient id="paint24_linear_2526_501" x1="102.731" y1="116.365" x2="56.1162" y2="66.5102" gradientUnits="userSpaceOnUse">
<stop stop-color="#2CEBC7"/>
<stop offset="0.348958" stop-color="#4ABDCC" stop-opacity="0.2"/>
<stop offset="0.65625" stop-color="#8267D5" stop-opacity="0.1"/>
</linearGradient>
<linearGradient id="paint25_linear_2526_501" x1="104.589" y1="118.223" x2="54.0923" y2="63.9004" gradientUnits="userSpaceOnUse">
<stop stop-color="#2CEBC7"/>
<stop offset="0.348958" stop-color="#4ABDCC" stop-opacity="0.2"/>
<stop offset="0.65625" stop-color="#8267D5" stop-opacity="0.1"/>
</linearGradient>
<linearGradient id="paint26_linear_2526_501" x1="106.624" y1="120.258" x2="51.9067" y2="61.0174" gradientUnits="userSpaceOnUse">
<stop stop-color="#2CEBC7"/>
<stop offset="0.348958" stop-color="#4ABDCC" stop-opacity="0.2"/>
<stop offset="0.65625" stop-color="#8267D5" stop-opacity="0.1"/>
</linearGradient>
<linearGradient id="paint27_linear_2526_501" x1="108.836" y1="122.47" x2="49.5678" y2="57.8547" gradientUnits="userSpaceOnUse">
<stop stop-color="#2CEBC7"/>
<stop offset="0.348958" stop-color="#4ABDCC" stop-opacity="0.2"/>
<stop offset="0.65625" stop-color="#8267D5" stop-opacity="0.1"/>
</linearGradient>
<linearGradient id="paint28_linear_2526_501" x1="111.225" y1="124.86" x2="47.0854" y2="54.4056" gradientUnits="userSpaceOnUse">
<stop stop-color="#2CEBC7"/>
<stop offset="0.348958" stop-color="#4ABDCC" stop-opacity="0.2"/>
<stop offset="0.65625" stop-color="#8267D5" stop-opacity="0.1"/>
</linearGradient>
<linearGradient id="paint29_linear_2526_501" x1="113.791" y1="127.426" x2="44.4697" y2="50.6627" gradientUnits="userSpaceOnUse">
<stop stop-color="#2CEBC7"/>
<stop offset="0.348958" stop-color="#4ABDCC" stop-opacity="0.2"/>
<stop offset="0.65625" stop-color="#8267D5" stop-opacity="0.1"/>
</linearGradient>
<linearGradient id="paint30_linear_2526_501" x1="116.623" y1="130.257" x2="41.6447" y2="46.4878" gradientUnits="userSpaceOnUse">
<stop stop-color="#2CEBC7"/>
<stop offset="0.348958" stop-color="#4ABDCC" stop-opacity="0.2"/>
<stop offset="0.65625" stop-color="#8267D5" stop-opacity="0.1"/>
</linearGradient>
<linearGradient id="paint31_linear_2526_501" x1="119.72" y1="133.354" x2="38.6294" y2="41.8683" gradientUnits="userSpaceOnUse">
<stop stop-color="#2CEBC7"/>
<stop offset="0.348958" stop-color="#4ABDCC" stop-opacity="0.2"/>
<stop offset="0.65625" stop-color="#8267D5" stop-opacity="0.1"/>
</linearGradient>
<linearGradient id="paint32_linear_2526_501" x1="123.038" y1="136.672" x2="35.486" y2="36.8587" gradientUnits="userSpaceOnUse">
<stop stop-color="#2CEBC7"/>
<stop offset="0.348958" stop-color="#4ABDCC" stop-opacity="0.2"/>
<stop offset="0.65625" stop-color="#8267D5" stop-opacity="0.1"/>
</linearGradient>
<linearGradient id="paint33_linear_2526_501" x1="126.666" y1="140.3" x2="32.1531" y2="31.3121" gradientUnits="userSpaceOnUse">
<stop stop-color="#2CEBC7"/>
<stop offset="0.348958" stop-color="#4ABDCC" stop-opacity="0.2"/>
<stop offset="0.65625" stop-color="#8267D5" stop-opacity="0.1"/>
</linearGradient>
<linearGradient id="paint34_linear_2526_501" x1="130.603" y1="144.238" x2="28.6603" y2="25.2121" gradientUnits="userSpaceOnUse">
<stop stop-color="#2CEBC7"/>
<stop offset="0.348958" stop-color="#4ABDCC" stop-opacity="0.2"/>
<stop offset="0.65625" stop-color="#8267D5" stop-opacity="0.1"/>
</linearGradient>
<linearGradient id="paint35_linear_2526_501" x1="134.895" y1="148.529" x2="25.0024" y2="18.4713" gradientUnits="userSpaceOnUse">
<stop stop-color="#2CEBC7"/>
<stop offset="0.348958" stop-color="#4ABDCC" stop-opacity="0.2"/>
<stop offset="0.65625" stop-color="#8267D5" stop-opacity="0.1"/>
</linearGradient>
<linearGradient id="paint36_linear_2526_501" x1="139.54" y1="153.175" x2="21.2197" y2="11.0704" gradientUnits="userSpaceOnUse">
<stop stop-color="#2CEBC7"/>
<stop offset="0.348958" stop-color="#4ABDCC" stop-opacity="0.2"/>
<stop offset="0.65625" stop-color="#8267D5" stop-opacity="0.1"/>
</linearGradient>
<linearGradient id="paint37_linear_2526_501" x1="144.628" y1="158.262" x2="17.2901" y2="2.84492" gradientUnits="userSpaceOnUse">
<stop stop-color="#2CEBC7"/>
<stop offset="0.348958" stop-color="#4ABDCC" stop-opacity="0.2"/>
<stop offset="0.65625" stop-color="#8267D5" stop-opacity="0.1"/>
</linearGradient>
<linearGradient id="paint38_linear_2526_501" x1="150.114" y1="163.749" x2="13.3056" y2="-6.15836" gradientUnits="userSpaceOnUse">
<stop stop-color="#2CEBC7"/>
<stop offset="0.348958" stop-color="#4ABDCC" stop-opacity="0.2"/>
<stop offset="0.65625" stop-color="#8267D5" stop-opacity="0.1"/>
</linearGradient>
<linearGradient id="paint39_linear_2526_501" x1="156.131" y1="169.765" x2="9.23995" y2="-16.1847" gradientUnits="userSpaceOnUse">
<stop stop-color="#2CEBC7"/>
<stop offset="0.348958" stop-color="#4ABDCC" stop-opacity="0.2"/>
<stop offset="0.65625" stop-color="#8267D5" stop-opacity="0.1"/>
</linearGradient>
<linearGradient id="paint40_linear_2526_501" x1="162.635" y1="176.269" x2="5.20736" y2="-27.1897" gradientUnits="userSpaceOnUse">
<stop stop-color="#2CEBC7"/>
<stop offset="0.348958" stop-color="#4ABDCC" stop-opacity="0.2"/>
<stop offset="0.65625" stop-color="#8267D5" stop-opacity="0.1"/>
</linearGradient>
</defs>
</svg>
