<svg width="1272" height="1204" viewBox="0 0 1272 1204" fill="none" xmlns="http://www.w3.org/2000/svg">
<g clip-path="url(#clip0_299_3067)">
<path d="M619.431 611.252C643.006 657.258 669.61 690.425 678.854 685.333C688.098 680.24 676.481 638.817 652.906 592.811C629.332 546.804 602.727 513.637 593.483 518.729C584.239 523.822 595.857 565.246 619.431 611.252Z" stroke="url(#paint0_linear_299_3067)" stroke-width="2" stroke-miterlimit="10"/>
<path d="M619.016 611.961C645.412 661.113 674.471 696.535 683.922 691.079C693.372 685.623 679.635 641.354 653.239 592.203C626.843 543.051 597.784 507.629 588.334 513.086C578.884 518.542 592.621 562.81 619.016 611.961Z" stroke="url(#paint1_linear_299_3067)" stroke-width="2" stroke-miterlimit="10"/>
<path d="M618.732 612.88C648.223 665.411 679.953 703.275 689.603 697.45C699.253 691.626 683.17 644.319 653.679 591.788C624.188 539.257 592.458 501.393 582.808 507.218C573.158 513.042 589.242 560.349 618.732 612.88Z" stroke="url(#paint2_linear_299_3067)" stroke-width="2" stroke-miterlimit="10"/>
<path d="M618.165 613.039C650.935 669.013 685.48 709.367 695.322 703.172C705.164 696.977 686.578 646.579 653.807 590.604C621.037 534.63 586.492 494.276 576.649 500.471C566.807 506.666 585.394 557.064 618.165 613.039Z" stroke="url(#paint3_linear_299_3067)" stroke-width="2" stroke-miterlimit="10"/>
<path d="M617.866 614.081C654.12 673.569 691.639 716.466 701.668 709.895C711.697 703.324 690.438 649.773 654.185 590.286C617.932 530.798 580.413 487.901 570.384 494.472C560.355 501.043 581.613 554.594 617.866 614.081Z" stroke="url(#paint4_linear_299_3067)" stroke-width="2" stroke-miterlimit="10"/>
<path d="M617.711 614.625C657.739 677.829 698.463 723.431 708.671 716.481C718.879 709.531 694.706 652.66 654.678 589.456C614.65 526.252 573.926 480.649 563.718 487.599C553.51 494.549 577.683 551.421 617.711 614.625Z" stroke="url(#paint5_linear_299_3067)" stroke-width="2" stroke-miterlimit="10"/>
<path d="M616.922 615.193C660.925 682.163 705.128 730.427 715.652 722.992C726.177 715.558 699.038 655.241 655.035 588.271C611.033 521.301 566.83 473.037 556.305 480.471C545.78 487.906 572.92 548.223 616.922 615.193Z" stroke="url(#paint6_linear_299_3067)" stroke-width="2" stroke-miterlimit="10"/>
<path d="M616.449 616.091C664.742 687.02 712.672 738.092 723.503 730.164C734.334 722.236 703.965 658.309 655.672 587.38C607.38 516.451 559.45 465.379 548.619 473.307C537.788 481.235 568.157 545.162 616.449 616.091Z" stroke="url(#paint7_linear_299_3067)" stroke-width="2" stroke-miterlimit="10"/>
<path d="M616.073 617.229C668.773 692.006 720.516 745.791 731.643 737.36C742.771 728.928 709.07 661.474 656.37 586.696C603.669 511.918 551.926 458.134 540.799 466.565C529.671 474.996 563.372 542.451 616.073 617.229Z" stroke="url(#paint8_linear_299_3067)" stroke-width="2" stroke-miterlimit="10"/>
<path d="M615.125 618.24C672.545 697.045 728.345 753.681 739.76 744.74C751.174 735.799 713.88 664.666 656.461 585.861C599.042 507.055 543.241 450.42 531.826 459.361C520.412 468.302 557.706 539.435 615.125 618.24Z" stroke="url(#paint9_linear_299_3067)" stroke-width="2" stroke-miterlimit="10"/>
<path d="M614.796 619.682C677.281 702.672 737.522 762.188 749.349 752.615C761.177 743.042 720.111 668.004 657.627 585.013C595.142 502.023 534.9 442.506 523.073 452.08C511.246 461.653 552.312 536.691 614.796 619.682Z" stroke="url(#paint10_linear_299_3067)" stroke-width="2" stroke-miterlimit="10"/>
<path d="M613.787 620.434C681.44 707.473 746.195 769.751 758.42 759.535C770.645 749.32 725.711 670.479 658.057 583.439C590.403 496.4 525.648 434.121 513.423 444.337C501.198 454.553 546.133 533.394 613.787 620.434Z" stroke="url(#paint11_linear_299_3067)" stroke-width="2" stroke-miterlimit="10"/>
<path d="M613.26 621.355C686.436 712.583 755.977 777.725 768.585 766.853C781.192 755.981 732.092 673.212 658.916 581.983C585.741 490.755 516.199 425.613 503.592 436.485C490.984 447.357 540.084 530.126 613.26 621.355Z" stroke="url(#paint12_linear_299_3067)" stroke-width="2" stroke-miterlimit="10"/>
<path d="M612.749 622.897C691.694 718.317 766.211 786.314 779.187 774.772C792.164 763.229 738.686 676.519 659.741 581.099C580.796 485.679 506.279 417.682 493.303 429.224C480.326 440.766 533.804 527.477 612.749 622.897Z" stroke="url(#paint13_linear_299_3067)" stroke-width="2" stroke-miterlimit="10"/>
<path d="M611.666 624.507C696.732 724.239 776.604 795.081 790.064 782.737C803.525 770.394 745.478 679.539 660.412 579.808C575.346 480.076 495.475 409.235 482.014 421.578C468.553 433.922 526.601 524.776 611.666 624.507Z" stroke="url(#paint14_linear_299_3067)" stroke-width="2" stroke-miterlimit="10"/>
<path d="M610.58 626.032C701.903 729.899 787.326 803.332 801.379 790.049C815.432 776.765 752.793 681.796 661.47 577.929C570.147 474.061 484.723 400.628 470.67 413.911C456.618 427.195 519.257 522.164 610.58 626.032Z" stroke="url(#paint15_linear_299_3067)" stroke-width="2" stroke-miterlimit="10"/>
<path d="M609.728 628.043C707.573 736.014 798.746 811.993 813.367 797.748C827.989 783.502 760.523 684.426 662.678 576.456C564.833 468.485 473.66 392.505 459.039 406.751C444.417 420.996 511.883 520.072 609.728 628.043Z" stroke="url(#paint16_linear_299_3067)" stroke-width="2" stroke-miterlimit="10"/>
<path d="M608.769 629.804C713.39 741.822 810.496 820.286 825.661 805.059C840.826 789.832 768.307 686.679 663.686 574.661C559.065 462.643 461.958 384.179 446.793 399.406C431.628 414.633 504.147 517.786 608.769 629.804Z" stroke="url(#paint17_linear_299_3067)" stroke-width="2" stroke-miterlimit="10"/>
<path d="M607.312 631.591C719.088 747.717 822.513 828.598 838.319 812.242C854.125 795.886 776.325 688.487 664.549 572.361C552.773 456.234 449.347 375.354 433.542 391.71C417.736 408.066 495.536 515.464 607.312 631.591Z" stroke="url(#paint18_linear_299_3067)" stroke-width="2" stroke-miterlimit="10"/>
<path d="M606.326 633.825C725.3 753.727 835.055 836.731 851.471 819.219C867.886 801.707 784.747 690.311 665.773 570.409C546.799 450.507 437.044 367.503 420.628 385.015C404.213 402.526 487.353 513.922 606.326 633.825Z" stroke="url(#paint19_linear_299_3067)" stroke-width="2" stroke-miterlimit="10"/>
<path d="M605.046 636.286C731.618 759.986 848.194 844.898 865.425 825.943C882.656 806.988 794.018 691.343 667.445 567.643C540.873 443.943 424.297 359.03 407.066 377.985C389.835 396.94 478.473 512.585 605.046 636.286Z" stroke="url(#paint20_linear_299_3067)" stroke-width="2" stroke-miterlimit="10"/>
<path d="M603.68 638.816C738.003 766.092 861.394 852.815 879.283 832.518C897.172 812.221 802.784 692.59 668.461 565.314C534.138 438.039 410.746 351.315 392.857 371.612C374.969 391.909 469.357 511.541 603.68 638.816Z" stroke="url(#paint21_linear_299_3067)" stroke-width="2" stroke-miterlimit="10"/>
<path d="M602.45 641.592C744.692 772.176 875.189 860.25 893.924 838.31C912.66 816.37 812.537 692.725 670.296 562.141C528.054 431.557 397.556 343.483 378.821 365.423C360.086 387.363 460.208 511.008 602.45 641.592Z" stroke="url(#paint22_linear_299_3067)" stroke-width="2" stroke-miterlimit="10"/>
<path d="M600.394 645.14C750.836 778.915 888.721 868.103 908.369 844.348C928.017 820.593 821.987 692.89 671.546 559.115C521.104 425.34 383.219 336.152 363.571 359.907C343.923 383.663 449.952 511.366 600.394 645.14Z" stroke="url(#paint23_linear_299_3067)" stroke-width="2" stroke-miterlimit="10"/>
<path d="M598.871 648.226C757.55 784.766 902.801 874.691 923.301 849.079C943.8 823.467 831.784 692.017 673.106 555.477C514.427 418.937 369.175 329.012 348.676 354.623C328.176 380.235 440.193 511.685 598.871 648.226Z" stroke="url(#paint24_linear_299_3067)" stroke-width="2" stroke-miterlimit="10"/>
<path d="M597.488 652.269C764.727 791.393 917.736 881.642 939.244 853.846C960.752 826.051 842.613 690.736 675.374 551.612C508.135 412.488 355.125 322.239 333.617 350.034C312.11 377.83 430.249 513.145 597.488 652.269Z" stroke="url(#paint25_linear_299_3067)" stroke-width="2" stroke-miterlimit="10"/>
<path d="M595.391 656.597C771.203 797.883 932.007 887.963 954.557 857.795C977.108 827.628 852.865 688.636 677.053 547.349C501.241 406.063 340.436 315.983 317.886 346.151C295.336 376.319 419.579 515.31 595.391 656.597Z" stroke="url(#paint26_linear_299_3067)" stroke-width="2" stroke-miterlimit="10"/>
<path d="M592.978 661.485C777.53 804.595 946.366 893.953 970.083 861.07C993.801 828.188 863.419 685.518 678.868 542.407C494.316 399.297 325.48 309.939 301.762 342.822C278.045 375.704 408.427 518.375 592.978 661.485Z" stroke="url(#paint27_linear_299_3067)" stroke-width="2" stroke-miterlimit="10"/>
<path d="M591.229 666.451C784.428 810.798 961.138 898.904 985.921 863.242C1010.7 827.581 874.176 681.655 680.976 537.309C487.777 392.963 311.068 304.856 286.284 340.518C261.501 376.18 398.029 522.105 591.229 666.451Z" stroke="url(#paint28_linear_299_3067)" stroke-width="2" stroke-miterlimit="10"/>
<path d="M588.991 672.23C790.999 817.431 975.868 903.567 1001.91 864.619C1027.95 825.672 885.297 676.389 683.289 531.188C481.281 385.986 296.412 299.85 270.372 338.798C244.332 377.746 386.983 527.028 588.991 672.23Z" stroke="url(#paint29_linear_299_3067)" stroke-width="2" stroke-miterlimit="10"/>
<path d="M586.783 679.12C797.641 824.682 990.756 908.139 1018.12 865.527C1045.48 822.915 896.726 670.37 685.869 524.808C475.011 379.246 281.895 295.789 254.533 338.401C227.172 381.013 375.925 533.558 586.783 679.12Z" stroke="url(#paint30_linear_299_3067)" stroke-width="2" stroke-miterlimit="10"/>
<path d="M584.499 686.37C804.219 831.764 1005.54 911.926 1034.17 865.417C1062.8 818.907 907.886 663.339 688.166 517.945C468.446 372.55 267.121 292.389 238.495 338.898C209.868 385.408 364.779 540.976 584.499 686.37Z" stroke="url(#paint31_linear_299_3067)" stroke-width="2" stroke-miterlimit="10"/>
<path d="M581.822 694.655C810.112 839.131 1019.57 914.819 1049.65 863.71C1079.74 812.601 919.061 654.049 690.771 509.573C462.48 365.098 253.025 289.41 222.939 340.518C192.854 391.627 353.531 550.18 581.822 694.655Z" stroke="url(#paint32_linear_299_3067)" stroke-width="2" stroke-miterlimit="10"/>
<path d="M579.182 703.49C816.036 846.488 1033.52 917.043 1064.95 861.079C1096.38 805.114 929.847 643.823 692.992 500.825C456.137 357.827 238.652 287.272 207.224 343.236C175.796 399.2 342.327 560.491 579.182 703.49Z" stroke="url(#paint33_linear_299_3067)" stroke-width="2" stroke-miterlimit="10"/>
<path d="M576.638 713.152C821.892 853.963 1047.36 918.211 1080.23 856.654C1113.11 795.098 940.937 631.047 695.683 490.237C450.429 349.427 224.962 285.179 192.089 346.735C159.215 408.292 331.384 572.342 576.638 713.152Z" stroke="url(#paint34_linear_299_3067)" stroke-width="2" stroke-miterlimit="10"/>
<path d="M573.622 724.996C827.099 862.968 1060.45 919.765 1094.84 851.858C1129.22 783.95 951.605 617.052 698.128 479.081C444.65 341.109 211.294 284.312 176.913 352.219C142.532 420.127 320.144 587.025 573.622 724.996Z" stroke="url(#paint35_linear_299_3067)" stroke-width="2" stroke-miterlimit="10"/>
<path d="M571.215 737.752C832.573 872.069 1073.46 920.252 1109.26 845.372C1145.05 770.493 962.196 600.905 700.838 466.588C439.48 332.271 198.59 284.088 162.796 358.967C127.002 433.847 309.857 603.435 571.215 737.752Z" stroke="url(#paint36_linear_299_3067)" stroke-width="2" stroke-miterlimit="10"/>
<path d="M568.799 752.145C837.806 882.084 1086.04 920.291 1123.25 837.483C1160.45 754.675 972.538 582.209 703.531 452.27C434.524 322.331 186.29 284.124 149.085 366.932C111.88 449.741 299.792 622.206 568.799 752.145Z" stroke="url(#paint37_linear_299_3067)" stroke-width="2" stroke-miterlimit="10"/>
<path d="M566.552 767.564C842.774 892.304 1097.87 919.215 1136.32 827.671C1174.77 736.128 982.025 560.795 705.803 436.055C429.581 311.315 174.486 284.404 136.033 375.948C97.58 467.491 290.33 642.824 566.552 767.564Z" stroke="url(#paint38_linear_299_3067)" stroke-width="2" stroke-miterlimit="10"/>
<path d="M564.09 785.83C847.074 904.602 1108.63 918.518 1148.3 816.912C1187.97 715.306 990.72 536.654 707.736 417.882C424.752 299.109 163.191 285.194 123.525 386.8C83.8578 488.406 281.106 667.058 564.09 785.83Z" stroke="url(#paint39_linear_299_3067)" stroke-width="2" stroke-miterlimit="10"/>
<path d="M562.659 805.843C851.934 917.84 1119.34 917.279 1159.92 804.589C1200.5 691.9 998.895 509.756 709.619 397.759C420.344 285.761 152.942 286.322 112.36 399.012C71.7778 511.701 273.384 693.845 562.659 805.843Z" stroke="url(#paint40_linear_299_3067)" stroke-width="2" stroke-miterlimit="10"/>
<path d="M561.241 828.77C856.256 933.244 1128.87 916.361 1170.15 791.06C1211.42 665.759 1005.72 479.49 710.706 375.015C415.691 270.541 143.074 287.424 101.8 412.725C60.5267 538.026 266.225 724.295 561.241 828.77Z" stroke="url(#paint41_linear_299_3067)" stroke-width="2" stroke-miterlimit="10"/>
<path d="M560.819 854.491C861.005 950.695 1138.06 915.623 1179.63 776.155C1221.21 636.688 1011.56 445.638 711.374 349.435C411.189 253.231 134.137 288.304 92.5623 427.771C50.9877 567.239 260.633 758.288 560.819 854.491Z" stroke="url(#paint42_linear_299_3067)" stroke-width="2" stroke-miterlimit="10"/>
<path d="M561.225 882.94C866.1 970.209 1146.78 915.014 1188.14 759.659C1229.51 604.305 1015.89 407.62 711.015 320.352C406.14 233.083 125.459 288.278 84.0955 443.633C42.7323 598.987 256.351 795.672 561.225 882.94Z" stroke="url(#paint43_linear_299_3067)" stroke-width="2" stroke-miterlimit="10"/>
<path d="M562.727 915.508C871.627 993.223 1154.89 915.856 1195.41 742.704C1235.93 569.553 1018.36 366.185 709.464 288.469C400.565 210.754 117.304 288.121 76.784 461.272C36.2638 634.424 253.828 837.792 562.727 915.508Z" stroke="url(#paint44_linear_299_3067)" stroke-width="2" stroke-miterlimit="10"/>
<path d="M565.781 951.381C877.962 1018.94 1162.53 917.235 1201.38 724.226C1240.23 531.216 1018.65 319.986 706.468 252.431C394.287 184.876 109.721 286.577 70.8714 479.587C32.0219 672.596 253.601 883.826 565.781 951.381Z" stroke="url(#paint45_linear_299_3067)" stroke-width="2" stroke-miterlimit="10"/>
<path d="M570.389 991.938C885.406 1048.9 1170.15 920.434 1206.39 704.997C1242.63 489.56 1016.63 268.735 701.612 211.771C386.595 154.807 101.848 283.275 65.6115 498.712C29.3754 714.15 255.372 934.974 570.389 991.938Z" stroke="url(#paint46_linear_299_3067)" stroke-width="2" stroke-miterlimit="10"/>
<path d="M577.69 1036.93C894.921 1082.9 1178.33 925.402 1210.71 685.158C1243.09 444.913 1012.17 212.895 694.943 166.93C377.713 120.966 94.2989 278.461 61.9204 518.705C29.542 758.95 260.46 990.968 577.69 1036.93Z" stroke="url(#paint47_linear_299_3067)" stroke-width="2" stroke-miterlimit="10"/>
<path d="M587 1086.66C905.717 1121.31 1186.05 932.265 1213.15 664.401C1240.24 396.538 1003.83 151.295 685.116 116.637C366.399 81.9786 86.0634 271.029 58.9696 538.892C31.8758 806.756 268.283 1052 587 1086.66Z" stroke="url(#paint48_linear_299_3067)" stroke-width="2" stroke-miterlimit="10"/>
<path d="M599.86 1142.48C919.744 1165.67 1195.38 942.515 1215.51 644.041C1235.64 345.568 992.636 84.8057 672.751 61.6133C352.867 38.421 77.2314 261.581 57.1029 560.054C36.9744 858.528 279.975 1119.29 599.86 1142.48Z" stroke="url(#paint49_linear_299_3067)" stroke-width="2" stroke-miterlimit="10"/>
<path d="M55.5078 602C55.5078 934.476 315.449 1204 636.103 1204C956.758 1204 1216.7 934.476 1216.7 602C1216.7 269.525 956.758 4.92558e-05 636.104 3.47251e-05C315.449 2.01945e-05 55.5078 269.525 55.5078 602Z" stroke="url(#paint50_linear_299_3067)" stroke-width="2" stroke-miterlimit="10"/>
</g>
<defs>
<linearGradient id="paint0_linear_299_3067" x1="610.221" y1="509.509" x2="598.758" y2="690.541" gradientUnits="userSpaceOnUse">
<stop stop-color="#2CEBC7" stop-opacity="0.2"/>
<stop offset="0.322917" stop-color="#48C0CC" stop-opacity="0.1"/>
<stop offset="0.651042" stop-color="#48C0CC" stop-opacity="0.2"/>
<stop offset="1" stop-color="#8267D5" stop-opacity="0.3"/>
</linearGradient>
<linearGradient id="paint1_linear_299_3067" x1="605.445" y1="503.206" x2="593.196" y2="696.288" gradientUnits="userSpaceOnUse">
<stop stop-color="#2CEBC7" stop-opacity="0.2"/>
<stop offset="0.322917" stop-color="#48C0CC" stop-opacity="0.1"/>
<stop offset="0.651042" stop-color="#48C0CC" stop-opacity="0.2"/>
<stop offset="1" stop-color="#8267D5" stop-opacity="0.3"/>
</linearGradient>
<linearGradient id="paint2_linear_299_3067" x1="600.281" y1="496.672" x2="586.841" y2="702.425" gradientUnits="userSpaceOnUse">
<stop stop-color="#2CEBC7" stop-opacity="0.2"/>
<stop offset="0.322917" stop-color="#48C0CC" stop-opacity="0.1"/>
<stop offset="0.651042" stop-color="#48C0CC" stop-opacity="0.2"/>
<stop offset="1" stop-color="#8267D5" stop-opacity="0.3"/>
</linearGradient>
<linearGradient id="paint3_linear_299_3067" x1="594.471" y1="489.254" x2="579.749" y2="707.804" gradientUnits="userSpaceOnUse">
<stop stop-color="#2CEBC7" stop-opacity="0.2"/>
<stop offset="0.322917" stop-color="#48C0CC" stop-opacity="0.1"/>
<stop offset="0.651042" stop-color="#48C0CC" stop-opacity="0.2"/>
<stop offset="1" stop-color="#8267D5" stop-opacity="0.3"/>
</linearGradient>
<linearGradient id="paint4_linear_299_3067" x1="588.543" y1="482.574" x2="572.478" y2="714.089" gradientUnits="userSpaceOnUse">
<stop stop-color="#2CEBC7" stop-opacity="0.2"/>
<stop offset="0.322917" stop-color="#48C0CC" stop-opacity="0.1"/>
<stop offset="0.651042" stop-color="#48C0CC" stop-opacity="0.2"/>
<stop offset="1" stop-color="#8267D5" stop-opacity="0.3"/>
</linearGradient>
<linearGradient id="paint5_linear_299_3067" x1="582.201" y1="475.014" x2="564.426" y2="719.938" gradientUnits="userSpaceOnUse">
<stop stop-color="#2CEBC7" stop-opacity="0.2"/>
<stop offset="0.322917" stop-color="#48C0CC" stop-opacity="0.1"/>
<stop offset="0.651042" stop-color="#48C0CC" stop-opacity="0.2"/>
<stop offset="1" stop-color="#8267D5" stop-opacity="0.3"/>
</linearGradient>
<linearGradient id="paint6_linear_299_3067" x1="575.361" y1="467.01" x2="557.52" y2="726.906" gradientUnits="userSpaceOnUse">
<stop stop-color="#2CEBC7" stop-opacity="0.2"/>
<stop offset="0.322917" stop-color="#48C0CC" stop-opacity="0.1"/>
<stop offset="0.651042" stop-color="#48C0CC" stop-opacity="0.2"/>
<stop offset="1" stop-color="#8267D5" stop-opacity="0.3"/>
</linearGradient>
<linearGradient id="paint7_linear_299_3067" x1="568.23" y1="458.952" x2="550.093" y2="734.392" gradientUnits="userSpaceOnUse">
<stop stop-color="#2CEBC7" stop-opacity="0.2"/>
<stop offset="0.322917" stop-color="#48C0CC" stop-opacity="0.1"/>
<stop offset="0.651042" stop-color="#48C0CC" stop-opacity="0.2"/>
<stop offset="1" stop-color="#8267D5" stop-opacity="0.3"/>
</linearGradient>
<linearGradient id="paint8_linear_299_3067" x1="560.947" y1="451.299" x2="542.912" y2="742.173" gradientUnits="userSpaceOnUse">
<stop stop-color="#2CEBC7" stop-opacity="0.2"/>
<stop offset="0.322917" stop-color="#48C0CC" stop-opacity="0.1"/>
<stop offset="0.651042" stop-color="#48C0CC" stop-opacity="0.2"/>
<stop offset="1" stop-color="#8267D5" stop-opacity="0.3"/>
</linearGradient>
<linearGradient id="paint9_linear_299_3067" x1="552.494" y1="443.171" x2="534.314" y2="749.98" gradientUnits="userSpaceOnUse">
<stop stop-color="#2CEBC7" stop-opacity="0.2"/>
<stop offset="0.322917" stop-color="#48C0CC" stop-opacity="0.1"/>
<stop offset="0.651042" stop-color="#48C0CC" stop-opacity="0.2"/>
<stop offset="1" stop-color="#8267D5" stop-opacity="0.3"/>
</linearGradient>
<linearGradient id="paint10_linear_299_3067" x1="544.488" y1="434.745" x2="527.875" y2="759.722" gradientUnits="userSpaceOnUse">
<stop stop-color="#2CEBC7" stop-opacity="0.2"/>
<stop offset="0.322917" stop-color="#48C0CC" stop-opacity="0.1"/>
<stop offset="0.651042" stop-color="#48C0CC" stop-opacity="0.2"/>
<stop offset="1" stop-color="#8267D5" stop-opacity="0.3"/>
</linearGradient>
<linearGradient id="paint11_linear_299_3067" x1="535.559" y1="425.84" x2="520.98" y2="768.883" gradientUnits="userSpaceOnUse">
<stop stop-color="#2CEBC7" stop-opacity="0.2"/>
<stop offset="0.322917" stop-color="#48C0CC" stop-opacity="0.1"/>
<stop offset="0.651042" stop-color="#48C0CC" stop-opacity="0.2"/>
<stop offset="1" stop-color="#8267D5" stop-opacity="0.3"/>
</linearGradient>
<linearGradient id="paint12_linear_299_3067" x1="526.42" y1="416.799" x2="513.824" y2="778.461" gradientUnits="userSpaceOnUse">
<stop stop-color="#2CEBC7" stop-opacity="0.2"/>
<stop offset="0.322917" stop-color="#48C0CC" stop-opacity="0.1"/>
<stop offset="0.651042" stop-color="#48C0CC" stop-opacity="0.2"/>
<stop offset="1" stop-color="#8267D5" stop-opacity="0.3"/>
</linearGradient>
<linearGradient id="paint13_linear_299_3067" x1="516.799" y1="408.325" x2="506.416" y2="788.869" gradientUnits="userSpaceOnUse">
<stop stop-color="#2CEBC7" stop-opacity="0.2"/>
<stop offset="0.322917" stop-color="#48C0CC" stop-opacity="0.1"/>
<stop offset="0.651042" stop-color="#48C0CC" stop-opacity="0.2"/>
<stop offset="1" stop-color="#8267D5" stop-opacity="0.3"/>
</linearGradient>
<linearGradient id="paint14_linear_299_3067" x1="506.387" y1="399.228" x2="500.151" y2="800.965" gradientUnits="userSpaceOnUse">
<stop stop-color="#2CEBC7" stop-opacity="0.2"/>
<stop offset="0.322917" stop-color="#48C0CC" stop-opacity="0.1"/>
<stop offset="0.651042" stop-color="#48C0CC" stop-opacity="0.2"/>
<stop offset="1" stop-color="#8267D5" stop-opacity="0.3"/>
</linearGradient>
<linearGradient id="paint15_linear_299_3067" x1="496.115" y1="389.86" x2="496.692" y2="814.48" gradientUnits="userSpaceOnUse">
<stop stop-color="#2CEBC7" stop-opacity="0.2"/>
<stop offset="0.322917" stop-color="#48C0CC" stop-opacity="0.1"/>
<stop offset="0.651042" stop-color="#48C0CC" stop-opacity="0.2"/>
<stop offset="1" stop-color="#8267D5" stop-opacity="0.3"/>
</linearGradient>
<linearGradient id="paint16_linear_299_3067" x1="485.514" y1="380.957" x2="493.338" y2="828.672" gradientUnits="userSpaceOnUse">
<stop stop-color="#2CEBC7" stop-opacity="0.2"/>
<stop offset="0.322917" stop-color="#48C0CC" stop-opacity="0.1"/>
<stop offset="0.651042" stop-color="#48C0CC" stop-opacity="0.2"/>
<stop offset="1" stop-color="#8267D5" stop-opacity="0.3"/>
</linearGradient>
<linearGradient id="paint17_linear_299_3067" x1="474.252" y1="371.835" x2="489.768" y2="842.792" gradientUnits="userSpaceOnUse">
<stop stop-color="#2CEBC7" stop-opacity="0.2"/>
<stop offset="0.322917" stop-color="#48C0CC" stop-opacity="0.1"/>
<stop offset="0.651042" stop-color="#48C0CC" stop-opacity="0.2"/>
<stop offset="1" stop-color="#8267D5" stop-opacity="0.3"/>
</linearGradient>
<linearGradient id="paint18_linear_299_3067" x1="462.16" y1="362.095" x2="487.647" y2="858.395" gradientUnits="userSpaceOnUse">
<stop stop-color="#2CEBC7" stop-opacity="0.2"/>
<stop offset="0.322917" stop-color="#48C0CC" stop-opacity="0.1"/>
<stop offset="0.651042" stop-color="#48C0CC" stop-opacity="0.2"/>
<stop offset="1" stop-color="#8267D5" stop-opacity="0.3"/>
</linearGradient>
<linearGradient id="paint19_linear_299_3067" x1="450.352" y1="353.307" x2="486.94" y2="874.434" gradientUnits="userSpaceOnUse">
<stop stop-color="#2CEBC7" stop-opacity="0.2"/>
<stop offset="0.322917" stop-color="#48C0CC" stop-opacity="0.1"/>
<stop offset="0.651042" stop-color="#48C0CC" stop-opacity="0.2"/>
<stop offset="1" stop-color="#8267D5" stop-opacity="0.3"/>
</linearGradient>
<linearGradient id="paint20_linear_299_3067" x1="438.266" y1="343.664" x2="490.557" y2="892.979" gradientUnits="userSpaceOnUse">
<stop stop-color="#2CEBC7" stop-opacity="0.2"/>
<stop offset="0.322917" stop-color="#48C0CC" stop-opacity="0.1"/>
<stop offset="0.651042" stop-color="#48C0CC" stop-opacity="0.2"/>
<stop offset="1" stop-color="#8267D5" stop-opacity="0.3"/>
</linearGradient>
<linearGradient id="paint21_linear_299_3067" x1="425.248" y1="334.861" x2="492.021" y2="910.437" gradientUnits="userSpaceOnUse">
<stop stop-color="#2CEBC7" stop-opacity="0.2"/>
<stop offset="0.322917" stop-color="#48C0CC" stop-opacity="0.1"/>
<stop offset="0.651042" stop-color="#48C0CC" stop-opacity="0.2"/>
<stop offset="1" stop-color="#8267D5" stop-opacity="0.3"/>
</linearGradient>
<linearGradient id="paint22_linear_299_3067" x1="412.744" y1="325.697" x2="499.288" y2="929.719" gradientUnits="userSpaceOnUse">
<stop stop-color="#2CEBC7" stop-opacity="0.2"/>
<stop offset="0.322917" stop-color="#48C0CC" stop-opacity="0.1"/>
<stop offset="0.651042" stop-color="#48C0CC" stop-opacity="0.2"/>
<stop offset="1" stop-color="#8267D5" stop-opacity="0.3"/>
</linearGradient>
<linearGradient id="paint23_linear_299_3067" x1="399.146" y1="316.895" x2="508.269" y2="950.173" gradientUnits="userSpaceOnUse">
<stop stop-color="#2CEBC7" stop-opacity="0.2"/>
<stop offset="0.322917" stop-color="#48C0CC" stop-opacity="0.1"/>
<stop offset="0.651042" stop-color="#48C0CC" stop-opacity="0.2"/>
<stop offset="1" stop-color="#8267D5" stop-opacity="0.3"/>
</linearGradient>
<linearGradient id="paint24_linear_299_3067" x1="385.793" y1="308.249" x2="518.798" y2="969.365" gradientUnits="userSpaceOnUse">
<stop stop-color="#2CEBC7" stop-opacity="0.2"/>
<stop offset="0.322917" stop-color="#48C0CC" stop-opacity="0.1"/>
<stop offset="0.651042" stop-color="#48C0CC" stop-opacity="0.2"/>
<stop offset="1" stop-color="#8267D5" stop-opacity="0.3"/>
</linearGradient>
<linearGradient id="paint25_linear_299_3067" x1="372.561" y1="299.706" x2="534.503" y2="989.992" gradientUnits="userSpaceOnUse">
<stop stop-color="#2CEBC7" stop-opacity="0.2"/>
<stop offset="0.322917" stop-color="#48C0CC" stop-opacity="0.1"/>
<stop offset="0.651042" stop-color="#48C0CC" stop-opacity="0.2"/>
<stop offset="1" stop-color="#8267D5" stop-opacity="0.3"/>
</linearGradient>
<linearGradient id="paint26_linear_299_3067" x1="358.717" y1="291.527" x2="552.733" y2="1009.91" gradientUnits="userSpaceOnUse">
<stop stop-color="#2CEBC7" stop-opacity="0.2"/>
<stop offset="0.322917" stop-color="#48C0CC" stop-opacity="0.1"/>
<stop offset="0.651042" stop-color="#48C0CC" stop-opacity="0.2"/>
<stop offset="1" stop-color="#8267D5" stop-opacity="0.3"/>
</linearGradient>
<linearGradient id="paint27_linear_299_3067" x1="344.707" y1="283.283" x2="575.67" y2="1029.41" gradientUnits="userSpaceOnUse">
<stop stop-color="#2CEBC7" stop-opacity="0.2"/>
<stop offset="0.322917" stop-color="#48C0CC" stop-opacity="0.1"/>
<stop offset="0.651042" stop-color="#48C0CC" stop-opacity="0.2"/>
<stop offset="1" stop-color="#8267D5" stop-opacity="0.3"/>
</linearGradient>
<linearGradient id="paint28_linear_299_3067" x1="331.158" y1="275.947" x2="600.186" y2="1046.78" gradientUnits="userSpaceOnUse">
<stop stop-color="#2CEBC7" stop-opacity="0.2"/>
<stop offset="0.322917" stop-color="#48C0CC" stop-opacity="0.1"/>
<stop offset="0.651042" stop-color="#48C0CC" stop-opacity="0.2"/>
<stop offset="1" stop-color="#8267D5" stop-opacity="0.3"/>
</linearGradient>
<linearGradient id="paint29_linear_299_3067" x1="317.521" y1="268.277" x2="630.826" y2="1062.87" gradientUnits="userSpaceOnUse">
<stop stop-color="#2CEBC7" stop-opacity="0.2"/>
<stop offset="0.322917" stop-color="#48C0CC" stop-opacity="0.1"/>
<stop offset="0.651042" stop-color="#48C0CC" stop-opacity="0.2"/>
<stop offset="1" stop-color="#8267D5" stop-opacity="0.3"/>
</linearGradient>
<linearGradient id="paint30_linear_299_3067" x1="304.076" y1="261.245" x2="665.584" y2="1076.96" gradientUnits="userSpaceOnUse">
<stop stop-color="#2CEBC7" stop-opacity="0.2"/>
<stop offset="0.322917" stop-color="#48C0CC" stop-opacity="0.1"/>
<stop offset="0.651042" stop-color="#48C0CC" stop-opacity="0.2"/>
<stop offset="1" stop-color="#8267D5" stop-opacity="0.3"/>
</linearGradient>
<linearGradient id="paint31_linear_299_3067" x1="290.328" y1="254.685" x2="701.732" y2="1088.14" gradientUnits="userSpaceOnUse">
<stop stop-color="#2CEBC7" stop-opacity="0.2"/>
<stop offset="0.322917" stop-color="#48C0CC" stop-opacity="0.1"/>
<stop offset="0.651042" stop-color="#48C0CC" stop-opacity="0.2"/>
<stop offset="1" stop-color="#8267D5" stop-opacity="0.3"/>
</linearGradient>
<linearGradient id="paint32_linear_299_3067" x1="277.414" y1="247.977" x2="744.705" y2="1094.51" gradientUnits="userSpaceOnUse">
<stop stop-color="#2CEBC7" stop-opacity="0.2"/>
<stop offset="0.322917" stop-color="#48C0CC" stop-opacity="0.1"/>
<stop offset="0.651042" stop-color="#48C0CC" stop-opacity="0.2"/>
<stop offset="1" stop-color="#8267D5" stop-opacity="0.3"/>
</linearGradient>
<linearGradient id="paint33_linear_299_3067" x1="264.129" y1="241.904" x2="787.653" y2="1097.3" gradientUnits="userSpaceOnUse">
<stop stop-color="#2CEBC7" stop-opacity="0.2"/>
<stop offset="0.322917" stop-color="#48C0CC" stop-opacity="0.1"/>
<stop offset="0.651042" stop-color="#48C0CC" stop-opacity="0.2"/>
<stop offset="1" stop-color="#8267D5" stop-opacity="0.3"/>
</linearGradient>
<linearGradient id="paint34_linear_299_3067" x1="251.611" y1="235.278" x2="835.238" y2="1094.15" gradientUnits="userSpaceOnUse">
<stop stop-color="#2CEBC7" stop-opacity="0.2"/>
<stop offset="0.322917" stop-color="#48C0CC" stop-opacity="0.1"/>
<stop offset="0.651042" stop-color="#48C0CC" stop-opacity="0.2"/>
<stop offset="1" stop-color="#8267D5" stop-opacity="0.3"/>
</linearGradient>
<linearGradient id="paint35_linear_299_3067" x1="239.166" y1="229.261" x2="885.213" y2="1085.95" gradientUnits="userSpaceOnUse">
<stop stop-color="#2CEBC7" stop-opacity="0.2"/>
<stop offset="0.322917" stop-color="#48C0CC" stop-opacity="0.1"/>
<stop offset="0.651042" stop-color="#48C0CC" stop-opacity="0.2"/>
<stop offset="1" stop-color="#8267D5" stop-opacity="0.3"/>
</linearGradient>
<linearGradient id="paint36_linear_299_3067" x1="227.607" y1="223.386" x2="936.061" y2="1071.49" gradientUnits="userSpaceOnUse">
<stop stop-color="#2CEBC7" stop-opacity="0.2"/>
<stop offset="0.322917" stop-color="#48C0CC" stop-opacity="0.1"/>
<stop offset="0.651042" stop-color="#48C0CC" stop-opacity="0.2"/>
<stop offset="1" stop-color="#8267D5" stop-opacity="0.3"/>
</linearGradient>
<linearGradient id="paint37_linear_299_3067" x1="216.451" y1="216.995" x2="988.101" y2="1050.19" gradientUnits="userSpaceOnUse">
<stop stop-color="#2CEBC7" stop-opacity="0.2"/>
<stop offset="0.322917" stop-color="#48C0CC" stop-opacity="0.1"/>
<stop offset="0.651042" stop-color="#48C0CC" stop-opacity="0.2"/>
<stop offset="1" stop-color="#8267D5" stop-opacity="0.3"/>
</linearGradient>
<linearGradient id="paint38_linear_299_3067" x1="205.658" y1="210.193" x2="1038.89" y2="1021.97" gradientUnits="userSpaceOnUse">
<stop stop-color="#2CEBC7" stop-opacity="0.2"/>
<stop offset="0.322917" stop-color="#48C0CC" stop-opacity="0.1"/>
<stop offset="0.651042" stop-color="#48C0CC" stop-opacity="0.2"/>
<stop offset="1" stop-color="#8267D5" stop-opacity="0.3"/>
</linearGradient>
<linearGradient id="paint39_linear_299_3067" x1="195.348" y1="202.826" x2="1089.33" y2="986.221" gradientUnits="userSpaceOnUse">
<stop stop-color="#2CEBC7" stop-opacity="0.2"/>
<stop offset="0.322917" stop-color="#48C0CC" stop-opacity="0.1"/>
<stop offset="0.651042" stop-color="#48C0CC" stop-opacity="0.2"/>
<stop offset="1" stop-color="#8267D5" stop-opacity="0.3"/>
</linearGradient>
<linearGradient id="paint40_linear_299_3067" x1="185.84" y1="194.97" x2="1137.26" y2="944.082" gradientUnits="userSpaceOnUse">
<stop stop-color="#2CEBC7" stop-opacity="0.2"/>
<stop offset="0.322917" stop-color="#48C0CC" stop-opacity="0.1"/>
<stop offset="0.651042" stop-color="#48C0CC" stop-opacity="0.2"/>
<stop offset="1" stop-color="#8267D5" stop-opacity="0.3"/>
</linearGradient>
<linearGradient id="paint41_linear_299_3067" x1="176.533" y1="185.848" x2="1182.33" y2="894.585" gradientUnits="userSpaceOnUse">
<stop stop-color="#2CEBC7" stop-opacity="0.2"/>
<stop offset="0.322917" stop-color="#48C0CC" stop-opacity="0.1"/>
<stop offset="0.651042" stop-color="#48C0CC" stop-opacity="0.2"/>
<stop offset="1" stop-color="#8267D5" stop-opacity="0.3"/>
</linearGradient>
<linearGradient id="paint42_linear_299_3067" x1="167.84" y1="175.243" x2="1223.89" y2="838.308" gradientUnits="userSpaceOnUse">
<stop stop-color="#2CEBC7" stop-opacity="0.2"/>
<stop offset="0.322917" stop-color="#48C0CC" stop-opacity="0.1"/>
<stop offset="0.651042" stop-color="#48C0CC" stop-opacity="0.2"/>
<stop offset="1" stop-color="#8267D5" stop-opacity="0.3"/>
</linearGradient>
<linearGradient id="paint43_linear_299_3067" x1="158.99" y1="162.338" x2="1260.95" y2="775.504" gradientUnits="userSpaceOnUse">
<stop stop-color="#2CEBC7" stop-opacity="0.2"/>
<stop offset="0.322917" stop-color="#48C0CC" stop-opacity="0.1"/>
<stop offset="0.651042" stop-color="#48C0CC" stop-opacity="0.2"/>
<stop offset="1" stop-color="#8267D5" stop-opacity="0.3"/>
</linearGradient>
<linearGradient id="paint44_linear_299_3067" x1="150.152" y1="147.753" x2="1292.9" y2="707.234" gradientUnits="userSpaceOnUse">
<stop stop-color="#2CEBC7" stop-opacity="0.2"/>
<stop offset="0.322917" stop-color="#48C0CC" stop-opacity="0.1"/>
<stop offset="0.651042" stop-color="#48C0CC" stop-opacity="0.2"/>
<stop offset="1" stop-color="#8267D5" stop-opacity="0.3"/>
</linearGradient>
<linearGradient id="paint45_linear_299_3067" x1="141.215" y1="130.112" x2="1319.19" y2="632.678" gradientUnits="userSpaceOnUse">
<stop stop-color="#2CEBC7" stop-opacity="0.2"/>
<stop offset="0.322917" stop-color="#48C0CC" stop-opacity="0.1"/>
<stop offset="0.651042" stop-color="#48C0CC" stop-opacity="0.2"/>
<stop offset="1" stop-color="#8267D5" stop-opacity="0.3"/>
</linearGradient>
<linearGradient id="paint46_linear_299_3067" x1="131.223" y1="108.629" x2="1340" y2="552.356" gradientUnits="userSpaceOnUse">
<stop stop-color="#2CEBC7" stop-opacity="0.2"/>
<stop offset="0.322917" stop-color="#48C0CC" stop-opacity="0.1"/>
<stop offset="0.651042" stop-color="#48C0CC" stop-opacity="0.2"/>
<stop offset="1" stop-color="#8267D5" stop-opacity="0.3"/>
</linearGradient>
<linearGradient id="paint47_linear_299_3067" x1="120.547" y1="83.7042" x2="1354.97" y2="467.34" gradientUnits="userSpaceOnUse">
<stop stop-color="#2CEBC7" stop-opacity="0.2"/>
<stop offset="0.322917" stop-color="#48C0CC" stop-opacity="0.1"/>
<stop offset="0.651042" stop-color="#48C0CC" stop-opacity="0.2"/>
<stop offset="1" stop-color="#8267D5" stop-opacity="0.3"/>
</linearGradient>
<linearGradient id="paint48_linear_299_3067" x1="108.027" y1="53.8824" x2="1362.83" y2="376.566" gradientUnits="userSpaceOnUse">
<stop stop-color="#2CEBC7" stop-opacity="0.2"/>
<stop offset="0.322917" stop-color="#48C0CC" stop-opacity="0.1"/>
<stop offset="0.651042" stop-color="#48C0CC" stop-opacity="0.2"/>
<stop offset="1" stop-color="#8267D5" stop-opacity="0.3"/>
</linearGradient>
<linearGradient id="paint49_linear_299_3067" x1="93.5488" y1="19.6199" x2="1365.18" y2="281.807" gradientUnits="userSpaceOnUse">
<stop stop-color="#2CEBC7" stop-opacity="0.2"/>
<stop offset="0.322917" stop-color="#48C0CC" stop-opacity="0.1"/>
<stop offset="0.651042" stop-color="#48C0CC" stop-opacity="0.2"/>
<stop offset="1" stop-color="#8267D5" stop-opacity="0.3"/>
</linearGradient>
<linearGradient id="paint50_linear_299_3067" x1="1216.7" y1="6.10352e-05" x2="1040.24" y2="1334.23" gradientUnits="userSpaceOnUse">
<stop stop-color="#2CEBC7" stop-opacity="0.2"/>
<stop offset="0.322917" stop-color="#48C0CC" stop-opacity="0.1"/>
<stop offset="0.651042" stop-color="#48C0CC" stop-opacity="0.2"/>
<stop offset="1" stop-color="#8267D5" stop-opacity="0.3"/>
</linearGradient>
<clipPath id="clip0_299_3067">
<rect width="1204" height="1272" fill="white" transform="translate(1272 6.10352e-05) rotate(90)"/>
</clipPath>
</defs>
</svg>
