<svg width="186" height="44" viewBox="0 0 186 44" fill="none" xmlns="http://www.w3.org/2000/svg">
<path d="M40.8315 0C41.048 0 41.2374 0.0812955 41.3997 0.243886C41.5621 0.406476 41.6432 0.596164 41.6432 0.812951V16.0151C41.6432 16.259 41.5621 16.4622 41.3997 16.6248C41.2374 16.7603 41.048 16.8281 40.8315 16.8281H7.18407V28.4532H0V11.5439C0 11.0019 0.175881 10.5548 0.527643 10.2025C0.906465 9.82314 1.36646 9.63345 1.90763 9.63345H34.4186V7.23525H7.18407V8.8205H0V0H40.8315Z" fill="white"/>
<path d="M82.5375 0H89.7622V8.49532H82.5375V0ZM87.8139 9.63345C88.3551 9.63345 88.8151 9.82314 89.1939 10.2025C89.5728 10.5548 89.7622 11.0019 89.7622 11.5439V26.868C89.7622 27.3015 89.5998 27.6809 89.2751 28.0061C88.9775 28.3042 88.5986 28.4532 88.1386 28.4532H49.7019C49.2689 28.4532 48.8901 28.3042 48.5654 28.0061C48.2677 27.6809 48.1189 27.3015 48.1189 26.868V0H55.303V21.218H82.5375V9.63345H87.8139Z" fill="white"/>
<path d="M137.881 0V7.23525H103.463V8.49532H98.1455C97.6043 8.49532 97.1443 8.31918 96.7655 7.9669C96.4137 7.58753 96.2378 7.12686 96.2378 6.58489V1.6259C96.2378 1.16523 96.3867 0.785851 96.6843 0.48777C97.009 0.16259 97.4014 0 97.8614 0H137.881ZM136.258 9.63345C136.718 9.63345 137.096 9.79604 137.394 10.1212C137.719 10.4193 137.881 10.7851 137.881 11.2187V26.868C137.881 27.3015 137.719 27.6809 137.394 28.0061C137.096 28.3042 136.718 28.4532 136.258 28.4532H96.2378V21.218H130.656V16.8281H97.8614C97.4014 16.8281 97.009 16.679 96.6843 16.3809C96.3867 16.0828 96.2378 15.7035 96.2378 15.2428V9.63345H136.258Z" fill="white"/>
<path d="M144.357 0H151.541V8.49532H144.357V0ZM186 0L170.942 13.4137L186 28.4532H175.772L165.544 18.2101L154.098 28.4532H144.357V9.63345H149.633C150.174 9.63345 150.621 9.82314 150.973 10.2025C151.351 10.5548 151.541 11.0019 151.541 11.5439V21.0554L175.163 0H186Z" fill="white"/>
<path d="M5.63886 39.6755H4.69476C4.65845 39.471 4.59087 39.2911 4.49202 39.1357C4.39317 38.9803 4.27213 38.8484 4.1289 38.74C3.98568 38.6316 3.8253 38.5498 3.64778 38.4946C3.47227 38.4394 3.28567 38.4118 3.08798 38.4118C2.73091 38.4118 2.41117 38.5028 2.12875 38.6848C1.84834 38.8668 1.62644 39.1336 1.46304 39.4853C1.30165 39.837 1.22096 40.2664 1.22096 40.7735C1.22096 41.2847 1.30165 41.7162 1.46304 42.0679C1.62644 42.4196 1.84935 42.6854 2.13177 42.8653C2.4142 43.0453 2.73192 43.1352 3.08495 43.1352C3.28063 43.1352 3.46622 43.1087 3.64173 43.0555C3.81925 43.0003 3.97962 42.9195 4.12285 42.8132C4.26608 42.7069 4.38712 42.577 4.48597 42.4237C4.58683 42.2683 4.65643 42.0904 4.69476 41.89L5.63886 41.893C5.58842 42.2018 5.49059 42.486 5.34534 42.7457C5.20211 43.0034 5.01753 43.2262 4.79159 43.4144C4.56767 43.6004 4.31147 43.7446 4.023 43.8468C3.73452 43.9491 3.41982 44.0002 3.0789 44.0002C2.54229 44.0002 2.06419 43.8714 1.64459 43.6137C1.225 43.354 0.894157 42.9829 0.652081 42.5003C0.412022 42.0178 0.291992 41.4422 0.291992 40.7735C0.291992 40.1028 0.41303 39.5272 0.655107 39.0467C0.897183 38.5642 1.22802 38.194 1.64762 37.9364C2.06722 37.6767 2.54431 37.5469 3.0789 37.5469C3.40772 37.5469 3.71435 37.5949 3.99879 37.691C4.28525 37.7851 4.54245 37.9241 4.77041 38.1082C4.99836 38.2902 5.18698 38.513 5.33626 38.7768C5.48554 39.0385 5.58641 39.3381 5.63886 39.6755Z" fill="white"/>
<path d="M10.1661 43.9143V37.6328H12.3751C12.8552 37.6328 13.2536 37.7166 13.5703 37.8843C13.8891 38.0519 14.1271 38.284 14.2845 38.5805C14.4418 38.875 14.5205 39.2154 14.5205 39.6019C14.5205 39.9863 14.4408 40.3247 14.2814 40.6171C14.1241 40.9075 13.8861 41.1334 13.5673 41.2949C13.2506 41.4565 12.8522 41.5373 12.3721 41.5373H10.6987V40.7214H12.2873C12.5899 40.7214 12.836 40.6774 13.0257 40.5895C13.2173 40.5016 13.3575 40.3738 13.4463 40.2061C13.535 40.0384 13.5794 39.837 13.5794 39.6019C13.5794 39.3647 13.534 39.1592 13.4433 38.9854C13.3545 38.8116 13.2143 38.6787 13.0226 38.5866C12.833 38.4926 12.5839 38.4456 12.2752 38.4456H11.1012V43.9143H10.1661ZM13.2254 41.0802L14.7565 43.9143H13.6914L12.1905 41.0802H13.2254Z" fill="white"/>
<path d="M18.3639 37.6328H19.426L21.0449 40.4883H21.1115L22.7304 37.6328H23.7925L21.5442 41.4483V43.9143H20.6122V41.4483L18.3639 37.6328Z" fill="white"/>
<path d="M28.0837 43.9143V37.6328H30.2927C30.7748 37.6328 31.1742 37.7217 31.491 37.8996C31.8077 38.0775 32.0447 38.3208 32.2021 38.6296C32.3594 38.9363 32.4381 39.2819 32.4381 39.6663C32.4381 40.0527 32.3584 40.4004 32.199 40.7091C32.0417 41.0158 31.8036 41.2592 31.4849 41.4391C31.1682 41.617 30.7698 41.7059 30.2897 41.7059H28.7706V40.9023H30.2049C30.5095 40.9023 30.7567 40.8492 30.9463 40.7429C31.1359 40.6345 31.2751 40.4873 31.3639 40.3012C31.4526 40.1151 31.497 39.9035 31.497 39.6663C31.497 39.4291 31.4526 39.2185 31.3639 39.0344C31.2751 38.8504 31.1349 38.7063 30.9433 38.602C30.7536 38.4977 30.5035 38.4456 30.1928 38.4456H29.0188V43.9143H28.0837Z" fill="white"/>
<path d="M36.6371 38.4486V37.6328H41.4332V38.4486H39.4996V43.9143H38.5676V38.4486H36.6371Z" fill="white"/>
<path d="M51.0184 40.7735C51.0184 41.4442 50.8973 42.0208 50.6553 42.5034C50.4132 42.9839 50.0813 43.354 49.6597 43.6137C49.2401 43.8714 48.763 44.0002 48.2284 44.0002C47.6918 44.0002 47.2127 43.8714 46.7911 43.6137C46.3715 43.354 46.0407 42.9829 45.7986 42.5003C45.5565 42.0178 45.4355 41.4422 45.4355 40.7735C45.4355 40.1028 45.5565 39.5272 45.7986 39.0467C46.0407 38.5642 46.3715 38.194 46.7911 37.9364C47.2127 37.6767 47.6918 37.5469 48.2284 37.5469C48.763 37.5469 49.2401 37.6767 49.6597 37.9364C50.0813 38.194 50.4132 38.5642 50.6553 39.0467C50.8973 39.5272 51.0184 40.1028 51.0184 40.7735ZM50.0924 40.7735C50.0924 40.2623 50.0107 39.8319 49.8473 39.4823C49.6859 39.1306 49.464 38.8647 49.1816 38.6848C48.9012 38.5028 48.5835 38.4118 48.2284 38.4118C47.8714 38.4118 47.5526 38.5028 47.2722 38.6848C46.9918 38.8647 46.7699 39.1306 46.6065 39.4823C46.4451 39.8319 46.3644 40.2623 46.3644 40.7735C46.3644 41.2847 46.4451 41.7162 46.6065 42.0679C46.7699 42.4175 46.9918 42.6833 47.2722 42.8653C47.5526 43.0453 47.8714 43.1352 48.2284 43.1352C48.5835 43.1352 48.9012 43.0453 49.1816 42.8653C49.464 42.6833 49.6859 42.4175 49.8473 42.0679C50.0107 41.7162 50.0924 41.2847 50.0924 40.7735Z" fill="white"/>
<path d="M62.4695 43.9143L60.7507 37.6328H61.7342L62.9415 42.4973H62.999L64.2548 37.6328H65.2292L66.4849 42.5003H66.5424L67.7468 37.6328H68.7332L67.0115 43.9143H66.0704L64.7662 39.2093H64.7178L63.4136 43.9143H62.4695Z" fill="white"/>
<path d="M72.9851 43.9143H71.9926L74.2228 37.6328H75.303L77.5332 43.9143H76.5406L74.7886 38.7737H74.7402L72.9851 43.9143ZM73.1516 41.4544H76.3712V42.2519H73.1516V41.4544Z" fill="white"/>
<path d="M81.8365 43.9143V37.6328H82.7715V43.0984H85.5796V43.9143H81.8365Z" fill="white"/>
<path d="M90.0547 43.9143V37.6328H90.9897V43.0984H93.7978V43.9143H90.0547Z" fill="white"/>
<path d="M98.2729 43.9143V37.6328H102.158V38.4486H99.2079V40.3625H101.955V41.1753H99.2079V43.0984H102.195V43.9143H98.2729Z" fill="white"/>
<path d="M106.51 38.4486V37.6328H111.306V38.4486H109.373V43.9143H108.441V38.4486H106.51Z" fill="white"/>
</svg>
