<svg width="24" height="24" viewBox="0 0 24 24" fill="none" xmlns="http://www.w3.org/2000/svg">
<g id="Icon / 24 / Computer">
<path id="Union" fill-rule="evenodd" clip-rule="evenodd" d="M2.75 6.74003C2.75 5.04922 2.97898 4.29421 3.37158 3.90161C3.76418 3.50901 4.51919 3.28003 6.21 3.28003H16.74C18.4308 3.28003 19.1858 3.50901 19.5784 3.90161C19.971 4.29421 20.2 5.04922 20.2 6.74003C20.2 7.15424 20.5358 7.49003 20.95 7.49003C21.3642 7.49003 21.7 7.15424 21.7 6.74003C21.7 5.06084 21.509 3.71085 20.6391 2.84095C19.7692 1.97105 18.4192 1.78003 16.74 1.78003H6.21C4.53081 1.78003 3.18082 1.97105 2.31092 2.84095C1.44102 3.71085 1.25 5.06084 1.25 6.74003V12.74C1.25 12.7993 1.25024 12.8581 1.25073 12.9165C1.25025 12.9276 1.25 12.9388 1.25 12.95C1.25 12.9667 1.25055 12.9833 1.25162 12.9998C1.27175 14.5586 1.48634 15.8145 2.31092 16.6391C3.18082 17.509 4.53081 17.7 6.21 17.7H9.25V20.72H6.74023C6.32602 20.72 5.99023 21.0558 5.99023 21.47C5.99023 21.8842 6.32602 22.22 6.74023 22.22H9.99217L10 22.22C10.0291 22.22 10.0579 22.2184 10.0861 22.2151C10.1081 22.2126 10.1298 22.2091 10.1512 22.2048C10.493 22.1349 10.7502 21.8325 10.7502 21.47L10.75 21.451V16.95V16.95L10.7499 16.9403C10.7493 16.8919 10.7441 16.8447 10.7348 16.7989C10.6648 16.4571 10.3624 16.2 10 16.2L9.99473 16.2H6.21C4.51919 16.2 3.76418 15.9711 3.37158 15.5785C3.06274 15.2696 2.85515 14.7365 2.78063 13.7H10C10.4142 13.7 10.75 13.3642 10.75 12.95C10.75 12.5358 10.4142 12.2 10 12.2H2.75V6.74003ZM13.6514 10.9616C13.4463 11.1666 13.2798 11.609 13.2798 12.8V18.51C13.2798 19.701 13.4463 20.1434 13.6514 20.3484C13.8564 20.5535 14.2988 20.72 15.4898 20.72H19.0398C20.2308 20.72 20.6732 20.5535 20.8782 20.3484C21.0832 20.1434 21.2498 19.701 21.2498 18.51V12.8C21.2498 11.609 21.0832 11.1666 20.8782 10.9616C20.6732 10.7566 20.2308 10.59 19.0398 10.59H15.4898C14.2988 10.59 13.8564 10.7566 13.6514 10.9616ZM12.5907 9.90095C13.2732 9.21849 14.3108 9.09003 15.4898 9.09003H19.0398C20.2188 9.09003 21.2564 9.21849 21.9389 9.90095C22.6213 10.5834 22.7498 11.621 22.7498 12.8V18.51C22.7498 19.689 22.6213 20.7267 21.9389 21.4091C21.2564 22.0916 20.2188 22.22 19.0398 22.22H15.4898C14.3108 22.22 13.2732 22.0916 12.5907 21.4091C11.9082 20.7267 11.7798 19.689 11.7798 18.51V12.8C11.7798 11.621 11.9082 10.5834 12.5907 9.90095ZM17.2445 17.25C16.6922 17.25 16.2445 17.6977 16.2445 18.25C16.2445 18.8023 16.6922 19.25 17.2445 19.25H17.2535C17.8058 19.25 18.2535 18.8023 18.2535 18.25C18.2535 17.6977 17.8058 17.25 17.2535 17.25H17.2445Z" fill="black"/>
</g>
</svg>
