<svg width="24" height="24" viewBox="0 0 24 24" fill="none" xmlns="http://www.w3.org/2000/svg">
<g id="Icon / 24 / Team">
<path id="Union" fill-rule="evenodd" clip-rule="evenodd" d="M5.31055 6.44C5.31055 4.40311 6.95586 2.75 9.00055 2.75C11.0358 2.75 12.6897 4.40339 12.6905 6.43847C12.6814 8.42308 11.1314 10.031 9.17755 10.1188C9.05934 10.1102 8.93404 10.1106 8.81543 10.1189C6.85962 10.032 5.31055 8.42302 5.31055 6.44ZM9.00055 1.25C6.12523 1.25 3.81055 3.57689 3.81055 6.44C3.81055 9.24337 6.02014 11.526 8.80535 11.6196C8.83641 11.6206 8.8675 11.6197 8.89845 11.6169C8.96564 11.6108 9.0377 11.6115 9.08592 11.6163C9.11908 11.6196 9.15243 11.6207 9.18574 11.6196C11.9715 11.5259 14.1789 9.24352 14.1905 6.44313L14.1905 6.44C14.1905 3.57579 11.8648 1.25 9.00055 1.25ZM16.4103 3.25C15.9961 3.25 15.6603 3.58579 15.6603 4C15.6603 4.41421 15.9961 4.75 16.4103 4.75C17.9347 4.75 19.1603 5.98282 19.1603 7.5C19.1603 8.9683 18.007 10.169 16.5603 10.2483C16.4386 10.2385 16.3152 10.2415 16.1974 10.2546C15.7858 10.3003 15.4891 10.6711 15.5349 11.0828C15.5806 11.4945 15.9514 11.7912 16.3631 11.7454C16.4017 11.7411 16.4323 11.7423 16.4472 11.7442C16.4874 11.7492 16.5279 11.751 16.5683 11.7495C18.8392 11.6645 20.6603 9.79545 20.6603 7.5C20.6603 5.15718 18.7659 3.25 16.4103 3.25ZM9.1732 12.4375C11.1014 12.4375 13.0677 12.9214 14.5873 13.9363C15.9531 14.8454 16.7357 16.1198 16.7357 17.4912C16.7357 18.8626 15.9533 20.1393 14.5879 21.0532L14.5878 21.0533C13.0636 22.0732 11.0948 22.56 9.1657 22.56C7.237 22.56 5.26862 22.0734 3.74452 21.0539C2.37841 20.1448 1.5957 18.8703 1.5957 17.4987C1.5957 16.1274 2.37815 14.8507 3.74349 13.9368L3.74624 13.9349L3.74625 13.9349C5.27468 12.9215 7.24477 12.4375 9.1732 12.4375ZM4.57654 15.1842C3.52289 15.89 3.0957 16.7429 3.0957 17.4987C3.0957 18.2544 3.52271 19.1047 4.57613 19.8056L4.57778 19.8067C5.80356 20.6268 7.46479 21.06 9.1657 21.06C10.8666 21.06 12.5277 20.6269 13.7535 19.8068C14.8081 19.1007 15.2357 18.2474 15.2357 17.4912C15.2357 16.7355 14.8087 15.8853 13.7553 15.1844L13.7542 15.1837C12.5337 14.3686 10.875 13.9375 9.1732 13.9375C7.47228 13.9375 5.80797 14.3682 4.57654 15.1842ZM18.5352 13.2683C18.1311 13.1773 17.7297 13.431 17.6387 13.8351C17.5476 14.2392 17.8014 14.6406 18.2055 14.7317C18.835 14.8735 19.3992 15.1156 19.8451 15.4561L19.8451 15.4561L19.8503 15.46C20.4676 15.923 20.7203 16.487 20.7203 16.995C20.7203 17.503 20.4676 18.067 19.8503 18.53L19.8503 18.53L19.8436 18.5351C19.3857 18.8867 18.8137 19.1353 18.1874 19.2658C17.7819 19.3502 17.5216 19.7475 17.6061 20.153C17.6906 20.5585 18.0878 20.8187 18.4933 20.7342C19.3056 20.565 20.0923 20.2344 20.7537 19.7274C21.6943 19.0206 22.2203 18.0357 22.2203 16.995C22.2203 15.954 21.694 14.9688 20.7529 14.262C20.0994 13.7636 19.3246 13.4462 18.5352 13.2683Z" fill="black"/>
</g>
</svg>
