<svg width="110" height="26" viewBox="0 0 110 26" fill="none" xmlns="http://www.w3.org/2000/svg">
<path d="M24.1477 0C24.2757 0 24.3877 0.0480384 24.4837 0.144115C24.5797 0.240191 24.6277 0.35228 24.6277 0.480382V9.46351C24.6277 9.60762 24.5797 9.72772 24.4837 9.82379C24.3877 9.90386 24.2757 9.94389 24.1477 9.94389H4.24864V16.8133H0V6.82141C0 6.50116 0.104016 6.23695 0.312047 6.02878C0.536081 5.8046 0.808122 5.69252 1.12817 5.69252H20.3551V4.27539H4.24864V5.21213H0V0H24.1477Z" fill="white"/>
<path d="M48.8125 0H53.0851V5.01998H48.8125V0ZM51.933 5.69252C52.253 5.69252 52.5251 5.8046 52.7491 6.02878C52.9731 6.23695 53.0851 6.50116 53.0851 6.82141V15.8766C53.0851 16.1328 52.9891 16.357 52.7971 16.5491C52.6211 16.7253 52.397 16.8133 52.125 16.8133H29.3936C29.1375 16.8133 28.9135 16.7253 28.7215 16.5491C28.5454 16.357 28.4574 16.1328 28.4574 15.8766V0H32.7061V12.5379H48.8125V5.69252H51.933Z" fill="white"/>
<path d="M81.5426 0V4.27539H61.1875V5.01998H58.043C57.723 5.01998 57.4509 4.9159 57.2269 4.70773C57.0189 4.48356 56.9149 4.21134 56.9149 3.89109V0.960762C56.9149 0.688546 57.0029 0.464368 57.1789 0.288229C57.3709 0.0960764 57.603 0 57.875 0H81.5426ZM80.5824 5.69252C80.8545 5.69252 81.0785 5.78859 81.2545 5.98074C81.4466 6.15688 81.5426 6.37305 81.5426 6.62926V15.8766C81.5426 16.1328 81.4466 16.357 81.2545 16.5491C81.0785 16.7253 80.8545 16.8133 80.5824 16.8133H56.9149V12.5379H77.2699V9.94389H57.875C57.603 9.94389 57.3709 9.85582 57.1789 9.67968C57.0029 9.50354 56.9149 9.27936 56.9149 9.00714V5.69252H80.5824Z" fill="white"/>
<path d="M85.3723 0H89.6209V5.01998H85.3723V0ZM110 0L101.095 7.92629L110 16.8133H103.951L97.9022 10.7605L91.1331 16.8133H85.3723V5.69252H88.4928C88.8128 5.69252 89.0768 5.8046 89.2849 6.02878C89.5089 6.23695 89.6209 6.50116 89.6209 6.82141V12.4419L103.591 0H110Z" fill="white"/>
<path d="M3.33498 23.4446H2.77664C2.75516 23.3238 2.7152 23.2174 2.65674 23.1256C2.59828 23.0338 2.5267 22.9558 2.44199 22.8918C2.35729 22.8278 2.26244 22.7794 2.15746 22.7468C2.05366 22.7142 1.94331 22.6979 1.82639 22.6979C1.61522 22.6979 1.42613 22.7516 1.2591 22.8592C1.09327 22.9667 0.96204 23.1244 0.865405 23.3322C0.769963 23.54 0.722242 23.7938 0.722242 24.0934C0.722242 24.3955 0.769963 24.6505 0.865405 24.8583C0.96204 25.0661 1.09387 25.2232 1.26089 25.3295C1.42792 25.4358 1.61582 25.489 1.8246 25.489C1.94032 25.489 2.05008 25.4733 2.15388 25.4419C2.25886 25.4093 2.35371 25.3615 2.43841 25.2987C2.52312 25.2359 2.5947 25.1591 2.65316 25.0685C2.71281 24.9767 2.75397 24.8716 2.77664 24.7532L3.33498 24.755C3.30515 24.9374 3.24729 25.1054 3.16139 25.2588C3.07668 25.4111 2.96752 25.5428 2.8339 25.6539C2.70148 25.7639 2.54996 25.8491 2.37936 25.9095C2.20876 25.9699 2.02264 26.0001 1.82102 26.0001C1.50368 26.0001 1.22093 25.924 0.972778 25.7717C0.724628 25.6183 0.528971 25.399 0.385807 25.1138C0.243837 24.8287 0.172852 24.4885 0.172852 24.0934C0.172852 23.6971 0.244433 23.357 0.387597 23.073C0.53076 22.7879 0.726417 22.5692 0.974567 22.4169C1.22272 22.2635 1.50487 22.1868 1.82102 22.1868C2.01549 22.1868 2.19683 22.2152 2.36504 22.272C2.53445 22.3275 2.68656 22.4097 2.82138 22.5184C2.95619 22.626 3.06774 22.7577 3.15602 22.9135C3.24431 23.0682 3.30396 23.2452 3.33498 23.4446Z" fill="white"/>
<path d="M6.0124 25.9494V22.2375H7.31877C7.60271 22.2375 7.83833 22.2871 8.02564 22.3861C8.21414 22.4852 8.35491 22.6224 8.44797 22.7976C8.54103 22.9715 8.58756 23.1727 8.58756 23.4011C8.58756 23.6282 8.54043 23.8282 8.44618 24.001C8.35313 24.1726 8.21235 24.3061 8.02385 24.4015C7.83654 24.497 7.60092 24.5447 7.31698 24.5447H6.32736V24.0626H7.26687C7.44583 24.0626 7.59138 24.0366 7.70352 23.9847C7.81686 23.9327 7.89977 23.8572 7.95227 23.7581C8.00476 23.6591 8.03101 23.54 8.03101 23.4011C8.03101 23.2609 8.00416 23.1395 7.95048 23.0368C7.89798 22.9341 7.81507 22.8556 7.70173 22.8012C7.58959 22.7456 7.44225 22.7178 7.25971 22.7178H6.56537V25.9494H6.0124ZM7.82163 24.2747L8.72714 25.9494H8.09722L7.20961 24.2747H7.82163Z" fill="white"/>
<path d="M10.8605 22.2375H11.4887L12.4461 23.9249H12.4855L13.4429 22.2375H14.071L12.7414 24.4922V25.9494H12.1902V24.4922L10.8605 22.2375Z" fill="white"/>
<path d="M16.6088 25.9494V22.2375H17.9152C18.2003 22.2375 18.4366 22.2901 18.6239 22.3952C18.8112 22.5003 18.9513 22.6441 19.0444 22.8266C19.1375 23.0078 19.184 23.212 19.184 23.4392C19.184 23.6675 19.1369 23.8729 19.0426 24.0554C18.9496 24.2366 18.8088 24.3804 18.6203 24.4867C18.433 24.5919 18.1973 24.6444 17.9134 24.6444H17.0151V24.1696H17.8633C18.0434 24.1696 18.1896 24.1381 18.3017 24.0753C18.4139 24.0113 18.4962 23.9243 18.5487 23.8143C18.6012 23.7044 18.6274 23.5793 18.6274 23.4392C18.6274 23.299 18.6012 23.1745 18.5487 23.0658C18.4962 22.957 18.4133 22.8719 18.2999 22.8102C18.1878 22.7486 18.0399 22.7178 17.8561 22.7178H17.1618V25.9494H16.6088Z" fill="white"/>
<path d="M21.6672 22.7196V22.2375H24.5037V22.7196H23.3602V25.9494H22.809V22.7196H21.6672Z" fill="white"/>
<path d="M30.1723 24.0934C30.1723 24.4898 30.1007 24.8305 29.9576 25.1156C29.8144 25.3996 29.6182 25.6183 29.3688 25.7717C29.1207 25.924 28.8385 26.0001 28.5224 26.0001C28.205 26.0001 27.9217 25.924 27.6723 25.7717C27.4242 25.6183 27.2285 25.399 27.0854 25.1138C26.9422 24.8287 26.8706 24.4885 26.8706 24.0934C26.8706 23.6971 26.9422 23.357 27.0854 23.073C27.2285 22.7879 27.4242 22.5692 27.6723 22.4169C27.9217 22.2635 28.205 22.1868 28.5224 22.1868C28.8385 22.1868 29.1207 22.2635 29.3688 22.4169C29.6182 22.5692 29.8144 22.7879 29.9576 23.073C30.1007 23.357 30.1723 23.6971 30.1723 24.0934ZM29.6247 24.0934C29.6247 23.7914 29.5764 23.537 29.4798 23.3304C29.3843 23.1226 29.2531 22.9655 29.0861 22.8592C28.9202 22.7516 28.7323 22.6979 28.5224 22.6979C28.3112 22.6979 28.1227 22.7516 27.9569 22.8592C27.791 22.9655 27.6598 23.1226 27.5632 23.3304C27.4677 23.537 27.42 23.7914 27.42 24.0934C27.42 24.3955 27.4677 24.6505 27.5632 24.8583C27.6598 25.0649 27.791 25.222 27.9569 25.3295C28.1227 25.4358 28.3112 25.489 28.5224 25.489C28.7323 25.489 28.9202 25.4358 29.0861 25.3295C29.2531 25.222 29.3843 25.0649 29.4798 24.8583C29.5764 24.6505 29.6247 24.3955 29.6247 24.0934Z" fill="white"/>
<path d="M36.9445 25.9494L35.928 22.2375H36.5096L37.2237 25.112H37.2577L38.0003 22.2375H38.5766L39.3192 25.1138H39.3532L40.0655 22.2375H40.6488L39.6306 25.9494H39.074L38.3027 23.1691H38.2741L37.5028 25.9494H36.9445Z" fill="white"/>
<path d="M43.1634 25.9494H42.5765L43.8953 22.2375H44.5342L45.8531 25.9494H45.2661L44.23 22.9117H44.2014L43.1634 25.9494ZM43.2618 24.4958H45.1659V24.967H43.2618V24.4958Z" fill="white"/>
<path d="M48.3981 25.9494V22.2375H48.9511V25.4672H50.6118V25.9494H48.3981Z" fill="white"/>
<path d="M53.2583 25.9494V22.2375H53.8113V25.4672H55.472V25.9494H53.2583Z" fill="white"/>
<path d="M58.1186 25.9494V22.2375H60.4163V22.7196H58.6715V23.8506H60.2964V24.3309H58.6715V25.4672H60.4378V25.9494H58.1186Z" fill="white"/>
<path d="M62.99 22.7196V22.2375H65.8264V22.7196H64.6829V25.9494H64.1317V22.7196H62.99Z" fill="white"/>
</svg>
